<?xml version="1.0" encoding="utf-8"?>
<!-- Generator: Adobe Illustrator 16.0.0, SVG Export Plug-In . SVG Version: 6.00 Build 0)  -->
<!DOCTYPE svg PUBLIC "-//W3C//DTD SVG 1.1//EN" "http://www.w3.org/Graphics/SVG/1.1/DTD/svg11.dtd">
<svg version="1.1" id="Layer_1" xmlns="http://www.w3.org/2000/svg" xmlns:xlink="http://www.w3.org/1999/xlink" x="0px" y="0px"
	 width="1400px" height="1400px" viewBox="0 0 1400 1400" enable-background="new 0 0 1400 1400" xml:space="preserve">
<g>
	<g>
		<path fill="#FEFEFE" d="M57.089,607.107c0-222.372,0.079-444.745-0.275-667.116C56.8-69.268,59.299-70.385,67.61-70.38
			c421.614,0.224,843.228,0.225,1264.841-0.011c8.444-0.005,10.74,1.312,10.733,10.433c-0.299,444.337-0.301,888.675-0.008,1333.013
			c0.008,9.523-2.576,10.996-11.386,10.992c-421.207-0.24-842.415-0.24-1263.623,0.008c-8.91,0.004-11.345-1.629-11.332-11.051
			C57.161,1051.039,57.089,829.074,57.089,607.107z"/>
		<path fill="#CCCCCC" d="M271.057,940.346c-15.998-16.457-19.465-35.721-20.589-55.113c-5.479-94.486,9.873-185.497,51.643-270.667
			c20.108-41,43.228-80.835,78.271-111.995c16.88-15.01,35.454-25.667,58.259-27.442c33.325-2.593,57.586,11.615,70.501,42.52
			c13.985,33.458,20.186,69.167,27.903,104.376c5.548,25.312,10.589,50.738,15.47,76.187c1.214,6.33,4.95,9.694,9.917,12.882
			c26.246,16.854,52.563,33.604,78.479,50.951c21.306,14.26,23.673,40.838,5.887,58.721c-12.281,12.348-31.028,14.57-46.965,4.43
			c-39.018-24.826-77.749-50.098-116.588-75.203c-8.98-5.803-13.934-14.316-17.062-24.357c-1.636-5.253-1.447-11.205-6.091-16.762
			c-10.021,35.92-19.821,71.008-29.593,106.102c-5.002,17.963-9.675,36.027-15.081,53.867c-1.922,6.344-0.443,9.406,5.348,12.369
			c20.591,10.525,40.752,21.844,59.92,34.85c13.6,9.227,25.405,20.193,33.554,34.66c18.196,32.301,2.032,70.494-33.868,79.918
			c-10.62,2.787-21.493,4.268-32.457,4.732c-77.88,3.316-155.795,2.604-233.708,1.736c-14.747-0.162-29.087-2.496-42.143-10.041
			c-28.944-16.73-31.904-50.65-6.107-71.855c12.021-9.881,26.059-14.711,41.585-14.83
			C227.813,940.232,248.086,940.346,271.057,940.346z"/>
		<path fill="#CCCCCC" d="M1248.596,935.234c-0.964,24.281-3.448,47.979-14.255,70.027c-10.061,20.533-25.695,31.086-49.311,30.75
			c-33.008-0.475-63.435-8.654-90.492-27.545c-7.093-4.951-11.824-4.402-18.224,0.383c-10.389,7.764-21.252,14.914-32.113,22.018
			c-13.236,8.658-27.649,6.916-35.912-3.986c-7.967-10.508-6.448-24.492,5.219-34.855c19.438-17.27,40.347-32.74,62.907-45.719
			c12.286-7.068,25.581-7.309,38.718-1.775c7.278,3.066,10.77,1.553,9.571-6.904c-0.226-1.592-0.066-3.242-0.036-4.865
			c0.121-6.453,2.623-14.395-0.252-18.953c-3.032-4.812-10.734,1.123-16.696,0.539c-9.474-0.926-17.124-4.543-23.246-11.645
			c-9.538-11.062-19.469-21.824-28.401-33.354c-2.468-3.184-4.742-4.893-7.212-5.355c-2.615-0.488-5.452,0.426-8.964,2.477
			c-12.602,7.357-25.947,13.436-38.523,20.828c-6.722,3.951-9.661,2.312-12.961-4.111c-11.49-22.367-23.343-44.547-35.369-66.629
			c-3.236-5.939-3.967-9.467,3.388-13.162c22.823-11.473,45.236-23.762,67.805-35.742c4.067-2.16,8.715-4.859,10.92,1.602
			c10.569,30.932,35.132,50.879,56.773,73.143c1.694,1.742,3.551,3.467,4.734,5.541c7.211,12.643,15.507,12.854,27.371,5.006
			c12.455-8.236,26.686-13.6,41.219-17.709c26.601-7.527,45.307-1.162,61.29,21.74
			C1242.966,880.512,1247.871,907.418,1248.596,935.234z"/>
		<path fill="#CCCCCC" d="M386.102,334.17c0.097-63.076,50.831-114.06,113.569-114.132c63.182-0.071,114.426,51.642,114.007,115.052
			c-0.416,62.984-51.387,113.555-114.318,113.422C436.631,448.379,386.002,397.265,386.102,334.17z"/>
		<path fill="#CCCCCC" d="M1168.591,811.701c-37.208-0.055-67.046-29.768-67.388-67.102c-0.345-37.562,30.006-67.911,67.809-67.803
			c37.388,0.104,67.183,29.744,67.367,67.01C1236.563,781.503,1206.357,811.758,1168.591,811.701z"/>
		<path fill="#CCCCCC" d="M831.102,929.869c13.77-0.01,27.547,0.328,41.302-0.137c7.988-0.268,11.646,1.803,11.504,10.693
			c-0.462,28.387-0.346,56.791-0.095,85.184c0.065,7.152-2.348,9.908-9.66,9.84c-28.825-0.27-57.656-0.287-86.478,0.006
			c-7.533,0.078-9.498-3.047-9.437-10.014c0.251-28.393,0.289-56.793-0.034-85.184c-0.088-7.707,2.314-10.789,10.312-10.514
			C802.695,930.23,816.906,929.881,831.102,929.869z"/>
		<path fill="#CCCCCC" d="M766.459,916.887c-14.207,0.004-28.423-0.244-42.621,0.109c-7.146,0.182-9.98-2.311-9.914-9.656
			c0.262-28.414,0.299-56.834-0.022-85.248c-0.091-7.979,3.089-10.529,10.685-10.467c28.416,0.23,56.834,0.215,85.248-0.012
			c7.209-0.057,9.739,2.598,9.662,9.869c-0.309,28.844-0.269,57.697-0.02,86.541c0.06,6.785-2.539,9.072-9.102,8.947
			C795.742,916.682,781.1,916.879,766.459,916.887z"/>
		<path fill="#CCCCCC" d="M700.549,1035.344c-13.776,0.008-27.561-0.289-41.324,0.123c-7.518,0.227-10.84-1.895-10.73-10.094
			c0.376-28.408,0.351-56.824,0.013-85.232c-0.092-7.861,2.623-10.492,10.451-10.395c27.976,0.344,55.963,0.326,83.941,0
			c7.535-0.088,10.917,1.975,10.826,10.082c-0.315,28.404-0.283,56.82-0.041,85.23c0.066,7.68-2.58,10.707-10.523,10.424
			C728.973,1034.977,714.755,1035.342,700.549,1035.344z"/>
	</g>
	<path fill="#FF0066" d="M700.82,944.875c-21.288,0-38.618,17.252-38.618,38.619c0,21.365,17.33,38.539,38.618,38.539
		c21.287,0,38.617-17.252,38.617-38.619C739.438,962.049,722.108,944.875,700.82,944.875z M706.438,1008.342h-19.229
		c-0.949,0-1.741-0.791-1.741-1.742v-49.062c0-0.949,0.792-1.74,1.741-1.74h15.748c7.677,0,14.008,6.33,14.008,14.006
		c0,4.592-2.217,8.785-5.777,11.318c5.381,1.898,9.259,7.043,9.259,13.135C720.445,1002.01,714.115,1008.342,706.438,1008.342z"/>
	<path fill="#FF0066" d="M702.957,980.012c5.777,0,10.524-4.67,10.524-10.445c0-5.777-4.668-10.527-10.524-10.527H688.95v20.973
		H702.957z"/>
	<path fill="#FF0066" d="M706.438,1004.543c5.778,0,10.527-4.67,10.527-10.523c0-5.855-4.67-10.525-10.527-10.525H688.95v21.047
		h17.487V1004.543z"/>
	<path fill="#0EC7A7" d="M807.437,865.195c0,21.967-17.802,39.85-39.852,39.85c-22.048,0-39.851-17.883-39.851-39.85
		s17.885-39.852,39.851-39.852C789.553,825.344,807.437,843.229,807.437,865.195z M750.761,889.531c0.247,0,0.328,0.08,0.573,0.08
		c0.734,0,1.471-0.488,1.633-1.305l4.246-13.146h20.58l4.246,13.146c0.326,0.98,1.306,1.551,2.204,1.225
		c0.981-0.328,1.553-1.389,1.144-2.285l-16.252-50.631c-0.244-0.736-0.895-1.227-1.633-1.227c-0.815,0-1.549,0.49-1.714,1.227
		l-16.169,50.631C749.293,888.225,749.863,889.203,750.761,889.531z"/>
	<polygon fill="#0EC7A7" points="776.73,871.482 767.584,842.982 758.438,871.482 	"/>
	<path fill="#FF0068" d="M870.905,982.582c0,21.969-17.802,39.852-39.851,39.852s-39.851-17.883-39.851-39.852
		c0-21.967,17.884-39.85,39.851-39.85C853.023,942.732,870.905,960.615,870.905,982.582z M814.232,1006.918
		c0.244,0,0.327,0.084,0.571,0.084c0.734,0,1.471-0.49,1.634-1.307l4.246-13.148h20.578l4.247,13.148
		c0.327,0.98,1.308,1.551,2.204,1.225c0.982-0.328,1.554-1.389,1.145-2.285l-16.251-50.631c-0.245-0.736-0.896-1.227-1.634-1.227
		c-0.816,0-1.55,0.49-1.714,1.227l-16.169,50.631C812.765,1005.611,813.333,1006.59,814.232,1006.918z"/>
	<polygon fill="#FF0068" points="840.201,988.871 831.055,960.369 821.908,988.871 	"/>
</g>
<g>
	<path fill="#CCCCCC" d="M696.986,61.431c-359.573,0-652.098,292.54-652.098,652.127c0,359.613,292.525,652.182,652.098,652.182
		c359.586,0,652.125-292.566,652.125-652.182C1349.111,353.971,1056.572,61.431,696.986,61.431z M1170.521,1097.662l0.012,0.043
		c-0.684,0.84-1.361,1.684-2.049,2.521l-0.029-0.1c-0.322,0.379-0.713,0.703-1.166,0.961
		c-11.207,12.074-46.713,51.035-48.762,52.998c-2.561,2.451-5.143,4.879-7.744,7.287
		c-108.816,100.656-254.236,162.281-413.811,162.281C360.623,1323.67,86.96,1049.965,86.96,713.559
		c0-336.378,273.663-610.056,610.026-610.056c69.321,0,135.92,11.794,198.073,33.194c9.332,3.957,57.883,23.033,66.971,27.435
		c203.998,98.812,345.012,307.962,345.012,549.426c0,145.409-51.168,279.09-136.4,384.016
		C1170.672,1097.523,1170.629,1097.557,1170.521,1097.662z"/>
</g>
</svg>
