<?xml version="1.0" encoding="utf-8"?>
<!-- Generator: Adobe Illustrator 16.0.0, SVG Export Plug-In . SVG Version: 6.00 Build 0)  -->
<!DOCTYPE svg PUBLIC "-//W3C//DTD SVG 1.1//EN" "http://www.w3.org/Graphics/SVG/1.1/DTD/svg11.dtd">
<svg version="1.1" id="Layer_1" xmlns="http://www.w3.org/2000/svg" xmlns:xlink="http://www.w3.org/1999/xlink" x="0px" y="0px"
	 width="1400px" height="1400px" viewBox="0 0 1400 1400" enable-background="new 0 0 1400 1400" xml:space="preserve">
<g>
	<path fill="#FEFEFE" d="M-79.368,638.463c0-266.146,0.094-532.293-0.329-798.438c-0.018-11.082,2.974-12.419,12.92-12.414
		c504.609,0.269,1009.218,0.27,1513.827-0.013c10.107-0.006,12.854,1.571,12.846,12.487
		c-0.357,531.805-0.359,1063.611-0.008,1595.419c0.008,11.398-3.084,13.161-13.627,13.155
		c-504.123-0.286-1008.246-0.288-1512.369,0.009c-10.664,0.006-13.579-1.949-13.563-13.225
		C-79.282,1169.784-79.368,904.124-79.368,638.463z"/>
	<path fill-rule="evenodd" clip-rule="evenodd" fill="#CCCCCC" d="M176.719,1037.301c-19.147-19.698-23.297-42.753-24.643-65.964
		c-6.557-113.085,11.817-222.011,61.81-323.947c24.066-49.072,51.737-96.748,93.678-134.042
		c20.204-17.965,42.433-30.72,69.728-32.845c39.885-3.104,68.922,13.901,84.38,50.89c16.737,40.044,24.159,82.782,33.395,124.922
		c6.641,30.294,12.674,60.726,18.515,91.184c1.453,7.575,5.925,11.603,11.869,15.418c31.412,20.172,62.91,40.22,93.928,60.982
		c25.5,17.067,28.333,48.875,7.046,70.279c-14.698,14.778-37.136,17.438-56.211,5.301c-46.698-29.711-93.054-59.959-139.538-90.005
		c-10.748-6.946-16.677-17.135-20.42-29.153c-1.958-6.287-1.733-13.41-7.29-20.061c-11.993,42.991-23.723,84.985-35.419,126.987
		c-5.987,21.5-11.579,43.12-18.05,64.472c-2.3,7.592-0.53,11.258,6.402,14.802c24.644,12.599,48.774,26.146,71.715,41.71
		c16.278,11.043,30.405,24.169,40.159,41.485c21.779,38.659,2.432,84.37-40.535,95.649c-12.711,3.336-25.723,5.108-38.845,5.665
		c-93.211,3.968-186.464,3.116-279.714,2.078c-17.65-0.194-34.814-2.989-50.439-12.019c-34.641-20.023-38.184-60.621-7.309-86
		c14.387-11.826,31.189-17.607,49.772-17.748C124.963,1037.164,149.227,1037.301,176.719,1037.301z"/>
	<path fill-rule="evenodd" clip-rule="evenodd" fill="#CCCCCC" d="M1346.688,1031.183c-1.154,29.062-4.127,57.423-17.061,83.812
		c-12.041,24.574-30.754,37.206-59.018,36.803c-39.506-0.567-75.922-10.359-108.305-32.966c-8.49-5.926-14.152-5.269-21.812,0.457
		c-12.432,9.293-25.434,17.85-38.434,26.352c-15.842,10.363-33.092,8.277-42.982-4.77c-9.535-12.578-7.717-29.315,6.246-41.719
		c23.264-20.668,48.289-39.184,75.291-54.717c14.705-8.46,30.617-8.748,46.34-2.125c8.711,3.67,12.889,1.859,11.455-8.263
		c-0.27-1.906-0.08-3.882-0.043-5.824c0.145-7.724,3.139-17.227-0.301-22.683c-3.629-5.76-12.848,1.344-19.984,0.645
		c-11.338-1.109-20.494-5.437-27.822-13.938c-11.416-13.24-23.301-26.119-33.992-39.919c-2.953-3.81-5.676-5.855-8.631-6.408
		c-3.131-0.586-6.525,0.508-10.729,2.963c-15.082,8.805-31.055,16.081-46.107,24.927c-8.045,4.729-11.562,2.77-15.512-4.92
		c-13.752-26.769-27.938-53.316-42.332-79.745c-3.873-7.108-4.748-11.33,4.055-15.754c27.316-13.729,54.141-28.438,81.152-42.777
		c4.867-2.585,10.43-5.816,13.07,1.917c12.65,37.021,42.047,60.894,67.949,87.541c2.027,2.085,4.25,4.148,5.666,6.632
		c8.631,15.132,18.559,15.383,32.76,5.991c14.906-9.857,31.938-16.277,49.332-21.196c31.836-9.008,54.225-1.391,73.355,26.021
		C1339.949,965.688,1345.82,997.892,1346.688,1031.183z"/>
	<path fill-rule="evenodd" clip-rule="evenodd" fill="#CCCCCC" d="M314.411,311.799c0.116-75.493,60.837-136.513,135.926-136.599
		c75.619-0.085,136.951,61.808,136.449,137.7c-0.498,75.382-61.503,135.909-136.822,135.749
		C374.887,448.49,314.292,387.314,314.411,311.799z"/>
	<path fill-rule="evenodd" clip-rule="evenodd" fill="#CCCCCC" d="M1250.934,883.331c-44.533-0.065-80.244-35.626-80.654-80.31
		c-0.412-44.956,35.914-81.279,81.158-81.15c44.748,0.125,80.408,35.599,80.629,80.202
		C1332.287,847.189,1296.135,883.399,1250.934,883.331z"/>
	<path fill-rule="evenodd" clip-rule="evenodd" fill="#CCCCCC" d="M847.01,1024.763c16.479-0.012,32.969,0.39,49.431-0.164
		c9.561-0.322,13.938,2.156,13.769,12.798c-0.553,33.975-0.414,67.969-0.113,101.951c0.078,8.56-2.81,11.859-11.563,11.777
		c-34.499-0.322-69.005-0.344-103.5,0.007c-9.016,0.093-11.368-3.647-11.294-11.985c0.3-33.982,0.345-67.971-0.041-101.952
		c-0.105-9.223,2.77-12.913,12.341-12.584C813.012,1025.194,830.02,1024.775,847.01,1024.763z"/>
	<path fill-rule="evenodd" clip-rule="evenodd" fill="#CCCCCC" d="M769.643,1009.224c-17.005,0.005-34.019-0.293-51.013,0.131
		c-8.553,0.216-11.944-2.766-11.864-11.557c0.312-34.007,0.356-68.022-0.028-102.029c-0.109-9.549,3.698-12.603,12.788-12.529
		c34.01,0.276,68.022,0.259,102.03-0.013c8.628-0.068,11.656,3.109,11.563,11.812c-0.369,34.522-0.321,69.054-0.022,103.576
		c0.07,8.122-3.04,10.86-10.894,10.708C804.689,1008.979,787.165,1009.215,769.643,1009.224z"/>
	<path fill-rule="evenodd" clip-rule="evenodd" fill="#CCCCCC" d="M690.757,1150.999c-16.488,0.009-32.985-0.347-49.458,0.147
		c-8.998,0.271-12.974-2.266-12.843-12.082c0.45-33.999,0.42-68.009,0.016-102.008c-0.111-9.41,3.138-12.558,12.508-12.443
		c33.483,0.412,66.979,0.392,100.466,0.001c9.019-0.104,13.066,2.364,12.956,12.067c-0.377,33.997-0.338,68.005-0.048,102.008
		c0.079,9.193-3.088,12.815-12.595,12.476C724.776,1150.559,707.76,1150.996,690.757,1150.999z"/>
</g>
<path fill="#FF0066" d="M691.082,1042.722c-25.478,0-46.22,20.647-46.22,46.221c0,25.572,20.742,46.125,46.22,46.125
	c25.478,0,46.22-20.648,46.22-46.221C737.302,1063.275,716.56,1042.722,691.082,1042.722z M697.806,1118.682h-23.015
	c-1.136,0-2.083-0.947-2.083-2.084v-58.722c0-1.136,0.948-2.083,2.083-2.083h18.849c9.187,0,16.764,7.576,16.764,16.764
	c0,5.494-2.652,10.513-6.914,13.545c6.44,2.272,11.081,8.43,11.081,15.721C714.57,1111.104,706.994,1118.682,697.806,1118.682z"/>
<path fill="#FF0066" d="M693.639,1084.775c6.915,0,12.596-5.589,12.596-12.502c0-6.915-5.587-12.598-12.596-12.598h-16.764v25.1
	H693.639z"/>
<path fill="#FF0066" d="M697.806,1114.135c6.915,0,12.598-5.588,12.598-12.596s-5.589-12.597-12.598-12.597h-20.931v25.192H697.806z
	"/>
<path fill="#0EC7A7" d="M818.685,947.356c0,26.291-21.306,47.696-47.696,47.696c-26.388,0-47.695-21.405-47.695-47.696
	s21.405-47.695,47.695-47.695C797.281,899.661,818.685,921.065,818.685,947.356z M750.854,976.482c0.294,0,0.392,0.098,0.685,0.098
	c0.879,0,1.76-0.586,1.955-1.563l5.082-15.735h24.63l5.083,15.735c0.391,1.173,1.563,1.857,2.638,1.466
	c1.174-0.392,1.858-1.662,1.369-2.736l-19.451-60.598c-0.292-0.88-1.072-1.467-1.954-1.467c-0.977,0-1.855,0.587-2.052,1.467
	l-19.353,60.598C749.097,974.919,749.779,976.091,750.854,976.482z"/>
<polygon fill="#0EC7A7" points="781.936,954.882 770.988,920.771 760.042,954.882 "/>
<path fill="#FF0068" d="M894.649,1087.852c0,26.292-21.306,47.696-47.696,47.696c-26.388,0-47.695-21.404-47.695-47.696
	c0-26.291,21.404-47.695,47.695-47.695C873.246,1040.156,894.649,1061.561,894.649,1087.852z M826.819,1116.979
	c0.293,0,0.392,0.098,0.684,0.098c0.879,0,1.761-0.586,1.956-1.563l5.082-15.736h24.629l5.083,15.736
	c0.391,1.173,1.564,1.857,2.638,1.466c1.175-0.393,1.859-1.663,1.37-2.736l-19.451-60.598c-0.292-0.88-1.073-1.467-1.954-1.467
	c-0.978,0-1.856,0.587-2.052,1.467l-19.353,60.598C825.062,1115.414,825.743,1116.586,826.819,1116.979z"/>
<polygon fill="#FF0068" points="857.9,1095.378 846.953,1061.267 836.007,1095.378 "/>
</svg>
