<?xml version="1.0" encoding="utf-8"?>
<!-- Generator: Adobe Illustrator 16.0.0, SVG Export Plug-In . SVG Version: 6.00 Build 0)  -->
<!DOCTYPE svg PUBLIC "-//W3C//DTD SVG 1.1//EN" "http://www.w3.org/Graphics/SVG/1.1/DTD/svg11.dtd">
<svg version="1.1" id="Layer_1" xmlns="http://www.w3.org/2000/svg" xmlns:xlink="http://www.w3.org/1999/xlink" x="0px" y="0px"
	 width="2000px" height="2000px" viewBox="0 0 2000 2000" enable-background="new 0 0 2000 2000" xml:space="preserve">
<g>
	<path fill="#0EC7A7" d="M967.935,51.688c19.925,0,39.851,0,59.777,0c2.058,0.248,4.109,0.651,6.174,0.722
		c60.842,2.069,121.021,9.643,180.219,23.719c222.836,52.99,405.321,169.699,546.105,350.19
		c112.536,144.277,177.378,308.405,196.696,490.373c5.505,51.851,6.433,103.854,3.363,155.945
		c-3.416,58.019-11.491,115.357-25.646,171.697c-54.731,217.826-170.625,396.319-347.719,534.215
		c-144.236,112.312-308.215,177.071-490.008,196.364c-51.852,5.503-103.854,6.435-155.945,3.354
		c-53.822-3.183-107.063-10.423-159.524-22.757c-196.138-46.114-362.121-143.947-497.94-292.555
		c-78.787-86.205-139.396-184.051-182.418-292.684c-37.836-95.537-59.706-194.62-65.624-297.217
		c-0.526-9.117-1.169-18.229-1.758-27.343c0-19.926,0-39.851,0-59.777c0.254-2.214,0.663-4.423,0.74-6.644
		c1.226-35.178,4.547-70.154,9.647-104.983c10.999-75.104,30.623-147.872,59.116-218.208
		c58.39-144.141,146.467-267.205,263.819-369.128c94.781-82.319,201.787-143.708,320.668-184.206
		c82.045-27.95,166.363-44.374,252.908-49.324C949.706,52.923,958.819,52.277,967.935,51.688z M997.772,1856.479
		c463.872,0.012,840.648-376.716,840.714-840.607c0.066-463.817-376.706-840.628-840.612-840.699
		c-463.84-0.072-840.568,376.607-840.712,840.604C157.018,1479.511,533.932,1856.466,997.772,1856.479z"/>
	<path fill-rule="evenodd" clip-rule="evenodd" fill="#FFFFFF" d="M33.687,1045.714c0.589,9.114,1.232,18.226,1.758,27.343
		c5.918,102.597,27.787,201.68,65.624,297.217c43.023,108.633,103.631,206.479,182.418,292.684
		c135.819,148.607,301.802,246.44,497.94,292.555c52.461,12.334,105.703,19.574,159.524,22.757
		c52.091,3.08,104.094,2.148,155.945-3.354c181.793-19.293,345.771-84.052,490.008-196.364
		c177.094-137.896,292.987-316.389,347.719-534.215c14.155-56.34,22.23-113.679,25.646-171.697
		c3.069-52.092,2.142-104.095-3.363-155.945c-19.318-181.967-84.16-346.096-196.696-490.373
		c-140.784-180.491-323.27-297.201-546.105-350.19c-59.198-14.076-119.377-21.65-180.219-23.719
		c-2.064-0.071-4.116-0.474-6.174-0.722c311.737,0,623.476,0,935.212,0c0,643.079,0,1286.158,0,1929.237
		c-643.079,0-1286.157,0-1929.236,0C33.687,1669.189,33.687,1357.451,33.687,1045.714z"/>
	<path fill-rule="evenodd" clip-rule="evenodd" fill="#FFFFFF" d="M967.935,51.688c-9.116,0.589-18.229,1.234-27.35,1.755
		c-86.545,4.95-170.863,21.374-252.908,49.324c-118.882,40.498-225.887,101.887-320.668,184.206
		C249.657,388.896,161.58,511.96,103.19,656.102C74.697,726.438,55.073,799.206,44.074,874.31
		c-5.1,34.83-8.421,69.805-9.647,104.983c-0.077,2.22-0.486,4.429-0.74,6.644c0-311.416,0-622.832,0-934.249
		C345.103,51.688,656.519,51.688,967.935,51.688z"/>
</g>
<g>
	<path fill-rule="evenodd" clip-rule="evenodd" fill="#0EC7A7" d="M269.039,774.486c7.279-15.357,20.142-22.961,35.69-28.896
		c206.686-78.861,413.242-158.057,619.708-237.493c30.43-11.708,59.961-11.847,90.408-0.12
		c208.555,80.336,417.215,160.397,625.916,240.355c16.206,6.209,28.048,15.484,28.98,33.944c0.8,15.817-9.355,27.426-29.304,35.027
		c-37.431,14.259-74.767,28.786-112.354,42.612c-8.568,3.155-11.733,7.212-11.697,16.69c0.379,106.729,0.116,213.457,0.582,320.185
		c0.021,5.647,3.625,12.882,7.944,16.655c29.223,25.555,33.194,65.061,7.502,93.574c-6.427,7.137-6.16,13.079-3.76,20.725
		c15.955,50.758,50.157,83.448,99.733,100.994c9.003,3.187,18.245,5.864,26.896,9.834c14.734,6.766,18.208,16.966,10.179,31.099
		c-4.213,7.416-9.689,14.527-15.959,20.298c-29.966,27.596-64.072,47.809-104.196,57.213c-13.553,3.178-24.017-0.551-33.178-10.454
		c-21.374-23.116-34.169-51.134-40.238-81.112c-8.017-39.579-12.519-79.89-17.912-119.97c-1.198-8.907-2.982-15.568-10.756-21.853
		c-32.47-26.244-31.569-72.392,0.492-100.083c4.125-3.561,8.018-10.114,8.044-15.3c0.455-99.886,0.322-199.772,0.279-299.661
		c0-2.221-0.324-4.442-0.647-8.599c-5.899,2.028-10.9,3.582-15.778,5.45c-140.691,53.895-281.425,107.691-422.02,161.842
		c-30.408,11.711-59.978,11.598-90.424-0.174c-208.454-80.577-417.01-160.892-625.693-240.876
		c-13.359-5.119-21.603-14.046-28.439-25.485C269.039,785.435,269.039,779.961,269.039,774.486z"/>
	<path fill-rule="evenodd" clip-rule="evenodd" fill="#0EC7A7" d="M577.543,976.939c23.965,9.126,46.417,17.593,68.808,26.214
		c87.506,33.697,175.049,67.295,262.462,101.231c40.999,15.913,81.529,15.563,122.523-0.212
		c106.207-40.869,212.576-81.313,318.885-121.917c4.178-1.596,8.394-3.084,13.816-5.073c0.29,5.454,0.717,9.777,0.72,14.103
		c0.032,43.788-0.558,87.586,0.188,131.361c0.44,25.84-8.68,46.989-26.053,65.358c-27.451,29.026-61.354,48.586-96.989,65.253
		c-81.359,38.057-166.187,65.788-255.739,74.435c-29.166,2.813-59.929-3.221-89.077-9.388
		c-80.95-17.125-159.257-42.845-231.059-84.771c-22.961-13.406-43.963-30.81-63.876-48.604
		c-18.045-16.124-25.205-38.02-24.822-62.825C578.063,1074.329,577.543,1026.535,577.543,976.939z"/>
</g>
</svg>
