<?xml version="1.0" encoding="utf-8"?>
<!-- Generator: Adobe Illustrator 16.0.0, SVG Export Plug-In . SVG Version: 6.00 Build 0)  -->
<!DOCTYPE svg PUBLIC "-//W3C//DTD SVG 1.1//EN" "http://www.w3.org/Graphics/SVG/1.1/DTD/svg11.dtd">
<svg version="1.1" id="Layer_1" xmlns="http://www.w3.org/2000/svg" xmlns:xlink="http://www.w3.org/1999/xlink" x="0px" y="0px"
	 width="1400px" height="1400px" viewBox="0 0 1400 1400" enable-background="new 0 0 1400 1400" xml:space="preserve">
<g>
	<path fill="#CCCCCC" d="M700.833,51.729c-359.573,0-652.098,292.54-652.098,652.127c0,359.611,292.525,652.183,652.098,652.183
		c359.587,0,652.126-292.567,652.126-652.183C1352.959,344.269,1060.42,51.729,700.833,51.729z M1174.368,1087.96l0.013,0.043
		c-0.684,0.841-1.362,1.685-2.05,2.521l-0.028-0.099c-0.322,0.378-0.713,0.703-1.166,0.96
		c-11.208,12.074-46.713,51.035-48.763,52.999c-2.56,2.45-5.142,4.879-7.744,7.286
		c-108.815,100.656-254.235,162.282-413.811,162.282c-336.352,0.015-610.012-273.69-610.012-610.099
		c0-336.377,273.663-610.056,610.026-610.056c69.321,0,135.921,11.794,198.073,33.194c9.331,3.957,57.882,23.033,66.97,27.435
		c203.999,98.812,345.012,307.962,345.012,549.426c0,145.409-51.167,279.091-136.398,384.018
		C1174.52,1087.822,1174.477,1087.854,1174.368,1087.96z"/>
</g>
<path fill="none" d="M894.195,125.399"/>
<g>
	<g>
		<path fill="#CCCCCC" d="M734.631,348.192c0-17.897-13.921-31.817-31.818-31.817s-31.818,13.92-31.818,31.817
			c0,17.898,13.921,31.818,31.818,31.818S734.631,366.091,734.631,348.192z"/>
		<path fill="#CCCCCC" d="M1140.312,1024.331h-131.25V751.888l27.843,21.874c9.941,7.956,25.853,7.956,35.795-3.977
			c7.955-9.942,7.955-25.854-3.979-35.795L873.836,570.921V348.192l7.955,5.966c3.979,3.978,9.942,5.965,15.908,5.965
			c7.955,0,13.922-3.977,19.888-7.954c7.953-9.943,7.953-25.853-3.978-35.795L718.721,153.306c-9.941-7.955-21.875-7.955-31.815,0
			l-194.888,161.08c-9.944,7.954-11.934,23.865-3.979,35.795c7.955,9.943,23.864,11.934,35.795,3.979l7.955-5.966V574.9
			L336.902,737.967c-11.933,7.955-11.933,23.864-3.979,33.808c3.979,5.967,11.932,9.943,19.887,9.943
			c5.967,0,11.932-1.989,15.908-5.967l27.842-21.874v270.454H265.31c-13.92,0-23.863,11.934-23.863,23.866
			c0,13.92,11.932,23.861,23.863,23.861h344.036h188.922h342.047c13.921,0,23.863-11.933,23.863-23.861
			C1164.178,1034.275,1154.234,1024.331,1140.312,1024.331z M581.504,306.431L702.812,205.01l121.307,101.421v226.706l-105.398-87.5
			c-9.941-7.956-21.875-7.956-31.815,0l-105.4,87.5L581.504,306.431L581.504,306.431z M446.277,712.114L702.812,497.34
			l256.533,214.774v312.217H820.143v-218.75c0-13.921-11.933-23.863-23.862-23.863H607.357c-13.92,0-23.864,11.934-23.864,23.863
			v218.75H444.289V712.114H446.277z M633.209,1024.331V829.444h139.206v192.898H633.209V1024.331z"/>
	</g>
</g>
</svg>
