<?xml version="1.0" encoding="utf-8"?>
<!-- Generator: Adobe Illustrator 16.0.0, SVG Export Plug-In . SVG Version: 6.00 Build 0)  -->
<!DOCTYPE svg PUBLIC "-//W3C//DTD SVG 1.1//EN" "http://www.w3.org/Graphics/SVG/1.1/DTD/svg11.dtd">
<svg version="1.1" id="Layer_1" xmlns="http://www.w3.org/2000/svg" xmlns:xlink="http://www.w3.org/1999/xlink" x="0px" y="0px"
	 width="1400px" height="1400px" viewBox="0 0 1400 1400" enable-background="new 0 0 1400 1400" xml:space="preserve">
<g id="Ni4dol_1_">
	<g>
		<path fill="#FEFEFE" d="M151.884,905.177c0.489-203.176,0.988-406.35,1.374-609.525c0.006-3.319,0.732-3.897,3.956-3.888
			c253.464,0.703,506.93,1.305,760.395,1.915c0.046,1.584-1.212,1.432-2.213,1.736c-11.176,3.395-20.867,9.091-28.177,18.405
			c-12.89,16.418-16.179,34.679-8.559,54.031c2.522,6.407,1.866,10.116-2.452,15.093c-20.827,23.996-40.827,48.684-60.553,73.602
			c-26.4,33.349-52.173,67.145-75.524,102.731c-11.943,18.204-23.258,36.742-31.622,56.945c-5.332,12.875-7.003,25.481,0.63,38.176
			c4.379,7.286,9.28,14.16,15.034,20.351c11.269,12.118,23.828,22.825,37.047,32.764c4.299,3.233,8.565,6.504,13.591,10.32
			c-24.594-0.06-48.121-0.115-71.649-0.173c-14.795-0.036-29.589-0.131-44.385-0.054c-2.752,0.014-3.88-0.709-3.694-3.614
			c0.23-3.615,0.07-7.26,0.079-10.89c0.033-13.853,0.077-27.707,0.085-41.56c0.001-1.658,0.537-3.72-2.317-3.672
			c-5.508,0.087-11.033-0.118-16.525,0.22c-9.961,0.612-19.792,0.243-29.363-2.852c-4.043-1.308-6.776-4.02-8.687-7.875
			c-2.301-4.642-1.833-9.691-2.664-14.538c-0.819-4.792-4.688-8.407-9.349-8.229c-5.119,0.196-9.018,3.82-9.3,8.78
			c-0.122,2.145-0.162,4.312,0.007,6.452c1.254,15.791,9.386,28.812,25.143,34.029c9.615,3.185,19.482,3.543,29.423,3.247
			c3.272-0.097,4.432,0.763,4.355,4.22c-0.243,10.621-0.307,21.253-0.062,31.874c0.086,3.76-1.262,4.381-4.635,4.358
			c-28.379-0.19-56.757-0.201-85.137-0.299c-1.125-0.005-2.373,0.436-3.656-0.643c3.371-6.68,6.731-13.385,9.411-20.389
			c6.308-16.49,11.609-33.216,10.555-51.189c-0.699-11.877-6.606-21.384-20.854-20.714c-14.75,0.695-29.535-0.349-44.315,0.691
			c-11.643,0.822-23.343,0.133-35.035,0.619c-13.523,0.565-27.133,0.856-40.666-0.639c-0.891-0.1-2.015,0.247-2.463-0.881
			c-0.424-1.064,0.396-1.776,1.047-2.422c10.88-10.802,21.542-21.839,32.728-32.315c13.251-12.409,26.018-25.232,37.497-39.307
			c3.244-3.979,4.788-8.387,4.688-13.713c-0.266-14.118-0.094-28.243-0.019-42.364c0.02-3.827,2.046-6.212,5.18-5.823
			c3.021,0.374,4.977,2.148,5.402,5.533c0.538,4.277,0.675,8.546,0.665,12.843c-0.039,14.392-0.038,28.783-0.044,43.172
			c-0.003,5.911,1.644,10.742,6.893,14.464c8,5.675,16.13,11.12,24.472,16.259c20.682,12.736,41.833,24.709,61.744,38.691
			c5.117,3.591,7.439,8.027,7.667,14.15c0.139,3.75,0.129,7.745,4.021,10.365c8.831,5.94,18.192,6.952,27.974,3.176
			c6.662-2.57,9.626-7.419,9.042-13.6c-0.334-3.53-2.177-6.306-4.624-8.701c-6.829-6.681-14.685-12.124-22.188-17.963
			c-26.878-20.914-53.937-41.595-80.939-62.346c-1.695-1.301-2.833-2.705-2.622-5.05c0.683-7.601,1.212-15.215,1.864-22.82
			c1.019-11.865,2.09-23.726,3.135-35.588c0.786-8.929,1.86-17.848,2.232-26.796c0.216-5.209,1.577-10.335,0.827-15.621
			c-1.415-9.949-6.522-17.486-14.729-22.982c-2.276-1.524-2.056-2.589-0.388-4.366c2.382-2.535,4.664-5.193,6.721-7.997
			c1.668-2.273,3.281-3.036,6.069-1.822c7.854,3.425,16.299,3.905,24.542,2.855c29.064-3.698,50.825-29.179,47.824-59.713
			c-1.282-13.038-6.466-24.086-15.52-33.19c-11.353-11.416-25.246-16.778-41.504-15.962c-16.403,0.825-29.923,7.457-39.882,20.355
			c-14.185,18.372-16.095,38.32-5.892,59.275c0.981,2.017,1.088,3.509-0.519,5.43c-12.387,14.805-24.609,29.749-36.942,44.597
			c-14.653,17.636-28.864,35.623-42.841,53.795c-14.639,19.03-29.078,38.211-42.756,57.955
			c-15.61,22.533-30.842,45.295-42.622,70.14c-3.735,7.88-7.061,15.991-8.264,24.701c-1.57,11.359,3.716,20.715,9.842,29.47
			c11.193,15.993,25.769,28.71,40.945,40.754c6.348,5.037,12.844,9.887,19.921,15.318c-12.257-0.029-23.666,0.259-35.044-0.198
			c-7.091-0.283-11.096,2.708-14.175,8.819c-13.169,26.149-25.769,52.593-39.757,78.328c-17.906-6.705-36.172-10.363-55.493-8.355
			c-19.56,2.037-37.878,7.435-54.508,17.953c-28.917,18.293-47.622,44.021-55.793,77.358
			C153.823,895.611,153.759,900.589,151.884,905.177z"/>
		<path fill="#CBCBCB" d="M320.783,803.902c13.989-25.735,26.588-52.177,39.757-78.328c3.078-6.111,7.083-9.103,14.175-8.819
			c11.378,0.457,22.788,0.169,35.045,0.198c-7.077-5.432-13.574-10.281-19.922-15.318c-15.176-12.044-29.753-24.762-40.945-40.754
			c-6.126-8.755-11.413-18.11-9.843-29.468c1.204-8.71,4.529-16.823,8.264-24.703c11.78-24.845,27.012-47.607,42.622-70.14
			c13.679-19.744,28.119-38.925,42.757-57.955c13.977-18.173,28.188-36.159,42.84-53.795c12.335-14.849,24.556-29.792,36.943-44.597
			c1.606-1.92,1.5-3.412,0.519-5.43c-10.204-20.955-8.293-40.903,5.892-59.275c9.958-12.898,23.479-19.53,39.881-20.354
			c16.258-0.819,30.152,4.545,41.503,15.961c9.054,9.104,14.237,20.152,15.519,33.19c3.003,30.534-18.759,56.016-47.824,59.713
			c-8.244,1.05-16.688,0.57-24.542-2.855c-2.787-1.214-4.4-0.451-6.068,1.822c-2.057,2.804-4.339,5.462-6.721,7.997
			c-1.668,1.777-1.888,2.842,0.388,4.366c8.206,5.496,13.312,13.033,14.728,22.982c0.751,5.286-0.609,10.413-0.826,15.621
			c-0.372,8.947-1.447,17.867-2.233,26.796c-1.043,11.862-2.116,23.723-3.133,35.588c-0.652,7.604-1.18,15.219-1.864,22.82
			c-0.209,2.345,0.927,3.749,2.622,5.05c27.004,20.751,54.062,41.433,80.939,62.346c7.504,5.84,15.358,11.282,22.188,17.963
			c2.446,2.395,4.289,5.172,4.623,8.701c0.585,6.181-2.379,11.032-9.041,13.6c-9.781,3.776-19.142,2.764-27.972-3.176
			c-3.893-2.62-3.881-6.613-4.021-10.365c-0.228-6.123-2.551-10.559-7.667-14.15c-19.912-13.981-41.065-25.955-61.745-38.691
			c-8.342-5.139-16.471-10.584-24.471-16.259c-5.249-3.723-6.896-8.554-6.893-14.463c0.006-14.392,0.005-28.783,0.043-43.173
			c0.012-4.297-0.127-8.566-0.666-12.843c-0.425-3.385-2.381-5.16-5.401-5.533c-3.133-0.388-5.161,1.997-5.181,5.823
			c-0.077,14.121-0.248,28.247,0.019,42.364c0.101,5.326-1.442,9.734-4.688,13.713c-11.479,14.074-24.246,26.896-37.497,39.307
			c-11.186,10.477-21.847,21.513-32.728,32.315c-0.651,0.648-1.471,1.358-1.047,2.422c0.448,1.127,1.572,0.781,2.463,0.881
			c13.533,1.496,27.141,1.204,40.665,0.639c11.693-0.486,23.393,0.203,35.035-0.619c14.781-1.041,29.564,0.004,44.317-0.691
			c14.247-0.671,20.154,8.837,20.852,20.712c1.056,17.976-4.247,34.701-10.554,51.19c-2.68,7.004-6.039,13.709-9.411,20.389
			c1.283,1.078,2.53,0.638,3.657,0.645c28.377,0.096,56.757,0.106,85.135,0.297c3.374,0.022,4.723-0.599,4.636-4.358
			c-0.244-10.62-0.18-21.253,0.061-31.873c0.078-3.458-1.082-4.318-4.355-4.221c-9.94,0.296-19.808-0.062-29.422-3.247
			c-15.758-5.217-23.889-18.238-25.143-34.029c-0.169-2.14-0.13-4.308-0.009-6.452c0.284-4.959,4.181-8.584,9.301-8.78
			c4.661-0.178,8.529,3.438,9.349,8.229c0.83,4.846,0.362,9.896,2.664,14.538c1.909,3.854,4.643,6.566,8.686,7.875
			c9.573,3.095,19.4,3.464,29.364,2.852c5.493-0.338,11.016-0.133,16.525-0.22c2.855-0.046,2.319,2.017,2.318,3.672
			c-0.011,13.853-0.054,27.707-0.086,41.56c-0.009,3.63,0.15,7.274-0.079,10.89c-0.186,2.905,0.941,3.628,3.693,3.614
			c14.795-0.077,29.591,0.018,44.386,0.054c23.528,0.058,47.058,0.113,71.647,0.173c-5.025-3.816-9.29-7.087-13.589-10.32
			c-13.219-9.939-25.778-20.646-37.049-32.764c-5.752-6.19-10.651-13.064-15.03-20.351c-7.633-12.695-5.964-25.301-0.632-38.173
			c8.362-20.206,19.676-38.744,31.622-56.948c23.348-35.586,49.124-69.382,75.526-102.731
			c19.722-24.917,39.724-49.604,60.551-73.602c4.318-4.976,4.975-8.686,2.452-15.093c-7.621-19.353-4.331-37.613,8.557-54.031
			c7.31-9.313,17-15.01,28.179-18.405c1.003-0.305,2.257-0.15,2.211-1.735c0.539,0.002,1.075,0.003,1.615,0.004
			c0.534,0.948,1.073,0.896,1.615,0.004c5.916,0.014,11.834,0.028,17.752,0.043c0.268,0.658,0.537,0.728,0.808,0.002
			c0.539,0.001,1.077,0.003,1.613,0.004c0.046,1.842,1.581,1.509,2.654,1.781c24.021,6.091,43.532,31.122,40.125,58.446
			c-2.132,17.067-9.82,30.567-24.054,39.983c-15.001,9.922-31.337,11.998-48.357,5.922c-3.468-1.239-5.426-0.58-7.476,2.062
			c-2.465,3.174-4.963,6.359-7.782,9.205c-2.275,2.294-2.312,3.374,0.472,5.455c9.733,7.277,15.34,16.8,14.128,29.406
			c-0.989,10.262-1.849,20.53-2.597,30.813c-0.494,6.805-1.112,13.606-1.652,20.412c-1.143,14.402-2.587,28.781-3.962,43.163
			c-0.196,2.041,0.799,3.291,2.247,4.405c27.938,21.518,55.898,43.001,83.79,64.579c6.993,5.409,14.348,10.407,20.5,16.838
			c6.214,6.495,6.017,13.605-1.112,19.045c-7.415,5.66-15.966,5.857-24.525,2.987c-6.341-2.126-11.691-5.092-11.356-13.452
			c0.214-5.395-1.583-10.279-6.605-13.854c-15.88-11.299-32.569-21.295-49.205-31.393c-12.389-7.52-25.059-14.619-36.622-23.401
			c-3.235-2.457-7.061-4.874-7.746-9.396c-0.582-3.826-0.786-7.739-0.802-11.615c-0.069-15.467-0.018-30.934,0.038-46.4
			c0.006-2.045-0.058-4.086-0.955-5.909c-1.129-2.276-2.951-4.125-5.665-3.707c-2.608,0.401-4.151,2.378-4.586,5.013
			c-0.17,1.051-0.098,2.148-0.076,3.222c0.212,11.409,0.79,22.826,0.519,34.223c-0.155,6.53,0.065,13.227-4.638,19.068
			c-12.266,15.234-26.301,28.747-40.387,42.178c-10.023,9.559-19.786,19.365-29.67,29.053c-0.381,0.373-0.718,0.806-1.009,1.253
			c-1.075,1.643-1.067,2.718,1.338,2.752c4.556,0.062,9.047,0.998,13.639,0.843c11.271-0.38,22.54,0.243,33.832-0.563
			c11.906-0.851,23.876-0.069,35.838-0.687c13.413-0.691,26.891-0.165,40.34-0.157c4.67,0.004,8.546,1.773,11.872,5.074
			c5.94,5.897,6.303,13.653,6.138,21.016c-0.355,15.702-4.981,30.565-10.586,45.154c-2.788,7.256-6.574,14.036-9.78,21.234
			c0.688,0.171,1.055,0.34,1.421,0.341c29.858,0.089,59.714,0.135,89.573,0.285c2.681,0.014,3.062-1.19,3.053-3.425
			c-0.043-11.163-0.075-22.328,0.112-33.489c0.05-3.03-1.198-3.548-3.814-3.494c-8.452,0.168-16.901,0.164-25.231-1.69
			c-22.886-5.091-31.103-22.488-30.477-42.148c0.144-4.46,4.361-8.231,8.724-8.677c4.149-0.424,8.259,2.526,9.792,6.867
			c0.742,2.094,0.685,4.218,0.725,6.363c0.186,10.301,5.184,16.8,15.237,18.837c7.349,1.487,14.909,2.313,22.381,1.677
			c5.648-0.483,11.276-0.122,16.883-0.555c3.593-0.278,4.526,0.932,4.494,4.495c-0.213,24.074-0.187,48.148-0.272,72.223
			c-0.011,2.198,0.285,4.161,1.568,6.09c15.123,22.679,30.172,45.407,45.242,68.117c0.726,1.098,1.222,2.47,2.855,2.57
			c1.559,5.109,5.529,8.742,8.143,13.215c0.764,1.308,1.32,3.041,3.274,3.237c0.373,3.315,2.329,5.941,4.052,8.573
			c10.737,16.387,21.604,32.685,32.393,49.035c1.283,1.946,2.404,3.022,5.176,2.253c3.686-1.025,7.527-0.987,11.487-0.445
			c17.577,2.404,31.132,20.538,28.027,37.977c-4.046,22.72-27.146,34.714-47.89,24.795c-2.018-0.963-3.983-1.377-6.179-1.381
			c-25.003-0.024-50.001-0.106-75.001-0.134c-1.408-0.002-2.997-0.539-4.154,0.845c-6.646-0.01-13.293-0.023-19.941-0.033
			c-0.995-1.332-2.45-0.88-3.732-0.882c-36.849-0.111-73.697-0.189-110.549-0.309c-1.934-0.008-3.666,0.37-5.397,1.26
			c-9.792,5.045-19.637,4.632-29.409-0.029c-1.884-0.899-3.721-1.322-5.788-1.328c-110.144-0.239-220.286-0.507-330.43-0.786
			c-1.777-0.004-3.32,0.363-4.976,1.171c-9.443,4.608-19.072,5.216-28.657,0.446c-2.745-1.37-5.498-1.772-8.497-1.73
			c-28.616,0.389-57.244-0.997-85.853,0.576c-0.742-1.101-1.896-0.758-2.903-0.764c-5.7-0.016-11.397,0.012-17.097,0.028
			c-26.755-0.088-53.511-0.172-80.268-0.27c-1.76-0.006-3.327,0.271-4.992,1.103c-8.417,4.201-17.208,5.089-26.094,1.738
			c-22.288-8.402-29.308-35.042-13.945-53.238c6.8-8.055,15.909-11.722,26.35-11.336c2.624,0.097,3.884-0.229,5.006-2.506
			c9.73-19.734,19.533-39.432,29.324-59.132c0.483-0.974,0.944-1.934,0.838-3.057C315.721,815.805,318.397,809.928,320.783,803.902z
			 M1063.256,840.428c-2.951-6.243-6.17-12.312-11.304-17.112c-0.153-1.388-0.907-2.49-1.653-3.618
			c-15.981-24.168-31.997-48.312-47.867-72.55c-1.998-3.048-2.886-3.006-4.815,0.016c-10.333,16.16-20.821,32.218-31.284,48.294
			c-18.946,29.12-37.921,58.222-56.865,87.344c-2.304,3.544-4.477,7.172-6.993,11.214c35.728,0.086,70.772,0.17,105.818,0.255
			c6.653,0.023,13.308,0.047,19.962,0.069c22.681,0.076,45.358,0.133,68.036,0.257c2.749,0.016,3.43-0.469,1.669-3.027
			C1086.269,874.608,1075.798,856.816,1063.256,840.428z M1025.812,904.941c-6.444-0.089-12.889-0.177-19.333-0.266
			c-0.855-0.933-1.992-0.651-3.033-0.653c-32.001-0.09-64.005-0.124-96.004-0.298c-3.792-0.022-3.562,1.264-2.275,3.989
			c2.708,5.718,3.422,11.672,2.273,18.009c-0.85,4.68-2.975,8.81-4.815,13.507c34.889,0.086,69.404,0.168,103.918,0.252
			c6.66,0.016,13.32,0.031,19.981,0.05c23.667,0.079,47.331,0.129,70.996,0.271c2.795,0.019,3.698-0.41,2.157-3.294
			c-4.999-9.35-5.177-19.038-1.062-28.699c1.354-3.176,0.729-3.648-2.501-3.64c-22.052,0.069-44.106-0.052-66.158-0.069
			C1028.555,904.098,1026.957,903.528,1025.812,904.941z M378.354,937.989c6.506,0.005,13.013,0.011,19.522,0.015
			c24.591,0.086,49.184,0.14,73.776,0.297c3.005,0.02,4.227-0.159,2.506-3.637c-4.711-9.521-5.193-19.322-0.473-29.034
			c1.547-3.183-0.326-2.907-2.37-2.909c-24.459-0.035-48.916-0.088-73.375-0.138c-6.372-0.012-12.744-0.024-19.117-0.036
			c-24.567-0.059-49.134-0.118-73.684-0.177c-0.049,0.51-0.159,0.799-0.083,1.024c0.339,1.016,0.717,2.02,1.107,3.019
			c3.651,9.361,3.548,18.634-1.147,27.579c-1.693,3.228-1.206,3.943,2.393,3.93C331.055,937.853,354.704,937.948,378.354,937.989z
			 M330.531,830.392c-3.311,3.167-4.187,7.684-6.373,11.467c-8.812,15.248-16.035,31.311-24.2,46.886
			c-1.47,2.805-1.401,3.979,2.269,3.968c24.731-0.075,49.462-0.001,74.193,0.023c6.623,0.016,13.246,0.033,19.87,0.051
			c23.648,0.09,47.299,0.199,70.949,0.236c1.803,0.002,4.377,0.981,5.246-0.612c0.829-1.523-1.264-3.298-2.232-4.801
			c-17.581-27.283-35.231-54.521-52.886-81.758c-13.205-20.369-26.427-40.729-39.675-61.073c-0.823-1.265-0.96-3.596-2.944-3.349
			c-1.48,0.185-1.754,2.213-2.399,3.506c-11.273,22.58-22.521,45.172-33.774,67.761C335.422,818.379,332.11,823.991,330.531,830.392
			z M841.23,893.956c0.226-1.534-0.494-2.21-0.995-2.982c-12.374-19.171-24.724-38.358-37.124-57.513
			c-20.276-31.329-40.599-62.625-60.828-93.984c-1.076-1.667-2.1-2.438-4.117-2.439c-33.354-0.026-66.707-0.107-100.061-0.236
			c-2.118-0.008-3.335,0.675-4.524,2.511c-25.944,40.129-51.966,80.205-77.983,120.284c-6.505,10.022-13.049,20.016-19.571,30.027
			c-0.576,0.883-1.619,1.812-1.183,2.837c0.599,1.406,2.134,0.562,3.25,0.754c0.524,0.089,1.073,0.016,1.612,0.017
			c99.12,0.239,198.239,0.478,297.358,0.717C838.401,893.949,839.737,893.953,841.23,893.956z M689.282,938.785
			c50.705,0.122,101.408,0.243,152.111,0.365c0.94,0.002,1.884-0.028,2.823,0.01c2.311,0.09,2.395-0.645,1.328-2.566
			c-5.368-9.667-5.767-19.637-1.207-29.708c1.173-2.594,0.528-3.321-2.161-3.293c-6.859,0.074-13.719-0.003-20.578-0.02
			c-94.412-0.227-188.826-0.453-283.239-0.681c-5.499-0.014-5.349-0.067-3.558,4.932c3.172,8.838,3.061,17.615-1.118,26.176
			c-2.148,4.398-2.161,4.404,2.683,4.416C587.338,938.542,638.31,938.662,689.282,938.785z M879.918,737.418
			c5.88,5.274,11.271,9.466,15.859,14.504c3.462,3.801,6.381,7.8,7.037,13.226c1.336,11.051-0.243,21.941-1.998,32.716
			c-4.716,28.959-12.217,57.294-20.181,85.506c-0.437,1.545-1.879,3.372,0.653,4.449c2.451,1.039,2.945-1.203,3.816-2.546
			c10.397-15.961,20.742-31.958,31.122-47.931c20.76-31.949,41.535-63.89,62.298-95.839c0.641-0.983,1.916-2.021,1.316-3.151
			c-0.731-1.369-2.429-0.672-3.685-0.677c-30.245-0.106-60.489-0.171-90.736-0.244C883.951,737.427,882.484,737.424,879.918,737.418
			z M395.024,736.257c27.827,43.024,55.136,85.247,83.116,128.507c1.78-7.913,3.353-14.505,4.735-21.14
			c3.68-17.659,6.853-35.397,8.951-53.329c1.173-10.033-0.86-18.079-9.89-24.347c-13.774-9.559-27.79-18.75-41.598-28.251
			c-1.112-0.766-2.29-1.352-3.719-1.352C423.064,736.333,409.505,736.292,395.024,736.257z M515.194,736.72
			c3.781,3.337,6.841,6.09,9.959,8.775c7.995,6.876,13.775,14.438,13.08,26.104c-0.591,9.912-1.282,19.789-2.998,29.524
			c-3.458,19.628-7.94,39.048-13.24,58.272c-2.369,8.595-4.639,17.22-6.954,25.829c0.276,0.13,0.552,0.259,0.826,0.391
			c32.07-49.391,64.14-98.783,96.527-148.661C579.808,736.875,548.015,736.8,515.194,736.72z M844.27,860.571
			c1.872-8.784,3.801-17.124,5.407-25.525c3.368-17.598,7.135-35.146,7.079-53.212c-0.014-4.809-1.831-8.368-5.602-11.394
			c-14.576-11.698-30.663-21.193-45.949-31.849c-1.503-1.05-3.112-1.393-4.929-1.391c-10.888,0.021-21.776-0.04-32.667-0.038
			c-1.033,0-2.423-0.506-3.023,0.452c-0.795,1.271,0.676,2.183,1.272,3.104c24.811,38.441,49.666,76.854,74.555,115.247
			C841.4,857.489,842.034,859.355,844.27,860.571z M881.106,718.075c-2.296-1.852-3.919-3.16-5.542-4.473
			c-5.608-4.536-6.572-8.427-3.736-15.021c2.756-6.405,5.39-12.853,6.695-19.751c1.06-5.611-1.198-8.365-6.867-8.36
			c-1.613,0-3.226-0.04-4.837-0.021c-20.942,0.267-41.901-0.968-62.832,0.623c-2.002,0.152-4.66-0.204-5.487,1.585
			c-1.001,2.159,1.834,3.185,3.024,4.67c0.838,1.041,1.849,1.964,2.888,2.809c15.718,12.764,32.426,24.218,48.476,36.546
			c0.959,0.735,2.018,1.334,3.3,1.335C864.199,718.035,872.209,718.054,881.106,718.075z M516.251,717.209
			c-2.607-2.166-4.651-3.65-6.443-5.395c-5.6-5.454-5.925-7.939-2.691-14.932c2.922-6.323,5.618-12.717,6.429-19.772
			c0.565-4.923-1.332-7.505-6.163-7.52c-19.744-0.052-39.489-0.147-59.232-0.072c-4.125,0.017-8.26,0.586-12.365,1.113
			c-2.572,0.329-3.312,1.673-1.224,3.694c2.215,2.144,4.315,4.46,6.758,6.311c15.367,11.648,30.826,23.178,46.226,34.783
			c1.576,1.188,3.202,1.773,5.191,1.76C500.255,717.131,507.775,717.188,516.251,717.209z"/>
		<path fill="#FEFEFE" d="M1069.537,812.177c-1.632-0.102-2.126-1.473-2.855-2.57c-15.07-22.712-30.119-45.44-45.239-68.119
			c-1.284-1.929-1.579-3.892-1.571-6.089c0.088-24.075,0.062-48.149,0.275-72.223c0.031-3.562-0.902-4.774-4.495-4.495
			c-5.608,0.435-11.233,0.071-16.883,0.554c-7.474,0.637-15.034-0.189-22.382-1.677c-10.055-2.038-15.051-8.536-15.236-18.838
			c-0.04-2.145,0.018-4.268-0.724-6.362c-1.536-4.339-5.647-7.292-9.793-6.868c-4.362,0.446-8.58,4.218-8.724,8.676
			c-0.628,19.661,7.592,37.058,30.477,42.15c8.33,1.851,16.779,1.857,25.229,1.689c2.616-0.054,3.868,0.465,3.816,3.494
			c-0.188,11.164-0.155,22.327-0.114,33.489c0.011,2.234-0.372,3.438-3.053,3.427c-29.855-0.152-59.715-0.197-89.571-0.287
			c-0.368-0.001-0.731-0.171-1.421-0.341c3.204-7.197,6.992-13.978,9.78-21.234c5.604-14.588,10.232-29.45,10.584-45.153
			c0.165-7.363-0.197-15.12-6.138-21.018c-3.324-3.301-7.2-5.069-11.87-5.072c-13.449-0.009-26.929-0.535-40.342,0.157
			c-11.96,0.617-23.93-0.164-35.838,0.687c-11.29,0.805-22.56,0.183-33.828,0.562c-4.594,0.154-9.084-0.779-13.641-0.843
			c-2.404-0.034-2.413-1.108-1.338-2.752c0.291-0.448,0.626-0.88,1.007-1.252c9.885-9.69,19.648-19.496,29.67-29.054
			c14.086-13.432,28.121-26.944,40.387-42.179c4.703-5.84,4.486-12.537,4.64-19.067c0.271-11.396-0.307-22.814-0.519-34.223
			c-0.021-1.075-0.094-2.171,0.078-3.222c0.433-2.633,1.974-4.612,4.584-5.013c2.714-0.417,4.538,1.43,5.663,3.708
			c0.899,1.822,0.961,3.863,0.955,5.909c-0.054,15.467-0.105,30.934-0.038,46.4c0.018,3.875,0.22,7.789,0.802,11.615
			c0.688,4.521,4.513,6.937,7.749,9.395c11.562,8.784,24.232,15.882,36.621,23.401c16.634,10.098,33.325,20.095,49.205,31.394
			c5.022,3.574,6.819,8.458,6.604,13.853c-0.332,8.36,5.018,11.328,11.358,13.452c8.56,2.87,17.112,2.673,24.525-2.986
			c7.127-5.439,7.324-12.551,1.111-19.045c-6.151-6.431-13.506-11.429-20.498-16.838c-27.892-21.578-55.855-43.062-83.793-64.579
			c-1.446-1.114-2.442-2.364-2.245-4.405c1.375-14.383,2.819-28.762,3.962-43.164c0.538-6.805,1.158-13.607,1.65-20.411
			c0.75-10.283,1.609-20.551,2.599-30.812c1.214-12.605-4.396-22.129-14.127-29.408c-2.782-2.08-2.748-3.161-0.475-5.455
			c2.821-2.846,5.319-6.03,7.784-9.205c2.05-2.643,4.006-3.301,7.474-2.062c17.021,6.075,33.359,4,48.359-5.923
			c14.233-9.416,21.922-22.915,24.052-39.983c3.409-27.324-16.102-52.354-40.123-58.446c-1.075-0.272-2.608,0.061-2.654-1.781
			c103.165,0.248,206.329,0.512,309.493,0.668c3.025,0.004,3.707,0.691,3.699,3.716c-0.572,202.965-1.051,405.93-1.54,608.896
			c-1.979-7.003-2.58-14.271-4.644-21.309c-5.286-18.032-14.362-33.838-26.747-47.779c-11.933-13.435-26.32-23.614-42.771-30.856
			c-13.625-5.998-27.932-9.256-42.753-10.037c-10.645-0.559-21.267,0.001-31.729,2.295
			C1091.923,801.985,1080.276,805.859,1069.537,812.177z"/>
		<path fill="#FEFEFE" d="M395.641,948.5c28.608-1.573,57.235-0.188,85.852-0.578c2.998-0.042,5.751,0.362,8.497,1.73
			c9.584,4.771,19.212,4.163,28.656-0.446c1.655-0.808,3.199-1.175,4.976-1.171c110.141,0.283,220.286,0.549,330.429,0.788
			c2.067,0.004,3.904,0.429,5.79,1.327c9.77,4.66,19.615,5.073,29.408,0.03c1.73-0.892,3.461-1.269,5.399-1.262
			c36.849,0.119,73.697,0.197,110.546,0.309c1.282,0.004,2.739-0.45,3.734,0.882c-0.025,0.67-0.219,1.386-0.054,2.004
			c3.25,11.957,7.814,23.375,14.462,33.869c7.986,12.606,17.521,23.772,29.434,32.977c12.977,10.023,27.186,17.354,42.968,21.597
			c6.126,1.649,12.391,2.77,18.592,4.132c-275.192-0.662-550.386-1.326-825.581-1.988c0.199-0.592,0.665-0.726,1.229-0.785
			c12.042-1.255,23.634-4.312,34.63-9.322C361.521,1015.778,385.083,987.611,395.641,948.5z"/>
		<path fill="#0EC6A6" d="M1114.331,1044.688c-6.201-1.362-12.468-2.482-18.594-4.132c-15.78-4.243-29.991-11.573-42.966-21.597
			c-11.914-9.204-21.451-20.37-29.434-32.977c-6.649-10.494-11.212-21.912-14.462-33.869c-0.167-0.62,0.024-1.334,0.052-2.004
			c6.646,0.012,13.296,0.023,19.943,0.035c0.411,0.668,0.75,1.326,1.004,2.11c7.168,22.188,20.165,40.196,39.155,53.735
			c18.521,13.204,39.285,19.547,61.999,19.317c6.341-0.063,12.625-1.047,18.862-2.299c17.954-3.605,33.792-11.565,47.461-23.61
			c11.86-10.451,21.19-22.869,27.379-37.566c4.957-11.783,7.725-24.048,8.469-36.743c0.574-9.856-0.712-19.607-3.158-29.152
			c-5.841-22.748-17.839-41.745-36.185-56.338c-14.975-11.908-32.004-19.485-51.268-21.711c-12.169-1.408-24.177-1.175-36.173,1.405
			c-8.944,1.927-17.337,5.229-25.459,9.333c-1.956-0.195-2.513-1.93-3.276-3.237c-2.613-4.471-6.584-8.103-8.143-13.214
			c10.737-6.315,22.386-10.189,34.483-12.847c10.46-2.293,21.084-2.854,31.727-2.295c14.821,0.78,29.13,4.04,42.755,10.037
			c16.45,7.243,30.838,17.423,42.771,30.856c12.383,13.942,21.459,29.747,26.747,47.78c2.063,7.038,2.666,14.305,4.642,21.309
			c-0.023,9.685-0.046,19.37-0.069,29.054c-1.366,2.457-1.093,5.261-1.583,7.893c-2.73,14.623-8.004,28.265-15.613,41.002
			c-7.805,13.068-17.727,24.248-29.716,33.686c-13.103,10.313-27.675,17.627-43.681,22.054c-6.111,1.693-12.406,2.722-18.617,4.052
			C1133.699,1044.733,1124.016,1044.709,1114.331,1044.688z"/>
		<path fill="#0EC6A6" d="M395.641,948.5c-10.559,39.111-34.12,67.278-71.032,84.092c-10.998,5.009-22.587,8.067-34.63,9.32
			c-0.565,0.06-1.031,0.193-1.229,0.787c-9.146-0.021-18.293-0.044-27.439-0.065c-1.551-1.615-3.725-1.185-5.578-1.478
			c-50.645-7.977-92.1-48.048-101.641-98.205c-0.657-3.451-0.344-7.156-2.272-10.337c0.021-9.146,0.043-18.293,0.065-27.439
			c1.874-4.586,1.938-9.563,3.104-14.316c8.171-33.338,26.876-59.067,55.793-77.358c16.629-10.521,34.948-15.916,54.507-17.953
			c19.323-2.01,37.586,1.649,55.494,8.353c-2.385,6.028-5.062,11.905-8.924,17.167c-14.924-5.715-30.43-7.332-46.234-6.119
			c-21.729,1.669-40.959,9.989-57.303,24.09c-29.164,25.166-41.495,57.438-36.091,95.475c6.599,46.451,43.905,84.332,95.149,88.641
			c26.163,2.201,50.079-4.827,71.017-20.837c18.361-14.04,31.1-32.089,37.243-54.552c5.7-0.014,11.397-0.045,17.097-0.025
			C393.745,947.74,394.898,947.399,395.641,948.5z"/>
		<path fill="#FEFEFE" d="M151.818,932.616c1.929,3.181,1.616,6.886,2.273,10.338c9.54,50.156,50.996,90.228,101.64,98.204
			c1.853,0.293,4.027-0.138,5.578,1.476c-35.644-0.086-71.287-0.2-106.93-0.188c-2.407,0.001-2.897-0.492-2.885-2.899
			C151.679,1003.901,151.733,968.26,151.818,932.616z"/>
		<path fill="#FEFEFE" d="M1143.384,1044.755c6.211-1.33,12.506-2.358,18.617-4.05c16.004-4.425,30.578-11.742,43.681-22.056
			c11.989-9.438,21.911-20.615,29.716-33.686c7.609-12.737,12.883-26.379,15.613-41.002c0.49-2.632,0.217-5.436,1.583-7.893
			c-0.086,35.374-0.199,70.748-0.188,106.124c0,2.407-0.49,2.896-2.897,2.886
			C1214.132,1044.895,1178.757,1044.841,1143.384,1044.755z"/>
		<path fill="#FEFEFE" d="M920.836,293.687c-0.54,0.892-1.076,0.944-1.615-0.004C919.762,293.684,920.298,293.686,920.836,293.687z"
			/>
		<path fill="#FEFEFE" d="M939.398,293.731c-0.271,0.726-0.541,0.656-0.809-0.002C938.859,293.73,939.129,293.73,939.398,293.731z"
			/>
		<path fill="#FEFEFE" d="M841.23,893.956c-1.493-0.003-2.829-0.007-4.169-0.011c-99.117-0.238-198.237-0.477-297.357-0.716
			c-0.539-0.001-1.088,0.073-1.612-0.018c-1.114-0.189-2.651,0.652-3.249-0.753c-0.437-1.026,0.605-1.954,1.182-2.838
			c6.522-10.01,13.065-20.005,19.571-30.026c26.018-40.078,52.04-80.156,77.983-120.285c1.188-1.836,2.407-2.518,4.525-2.51
			c33.354,0.128,66.705,0.209,100.061,0.235c2.018,0.002,3.041,0.771,4.115,2.439c20.228,31.359,40.554,62.655,60.83,93.984
			c12.398,19.155,24.75,38.343,37.122,57.513C840.736,891.746,841.456,892.422,841.23,893.956z"/>
		<path fill="#FEFEFE" d="M1080.958,828.626c8.12-4.103,16.515-7.406,25.459-9.333c11.996-2.58,24.002-2.813,36.173-1.405
			c19.262,2.226,36.293,9.803,51.268,21.711c18.346,14.593,30.342,33.59,36.183,56.338c2.448,9.545,3.734,19.296,3.158,29.152
			c-0.742,12.693-3.51,24.96-8.467,36.743c-6.187,14.697-15.519,27.115-27.379,37.566c-13.669,12.045-29.507,20.003-47.461,23.61
			c-6.239,1.252-12.521,2.235-18.862,2.299c-22.714,0.229-43.479-6.113-61.999-19.317c-18.99-13.539-31.989-31.547-39.155-53.735
			c-0.254-0.786-0.595-1.442-1.004-2.11c1.153-1.386,2.742-0.849,4.15-0.847c24.998,0.029,49.998,0.109,74.999,0.135
			c2.199,0.003,4.165,0.417,6.182,1.38c20.743,9.918,43.843-2.075,47.889-24.795c3.104-17.436-10.45-35.57-28.027-37.974
			c-3.96-0.544-7.802-0.582-11.487,0.441c-2.771,0.771-3.892-0.306-5.174-2.251c-10.788-16.353-21.659-32.648-32.395-49.034
			C1083.283,834.568,1081.329,831.943,1080.958,828.626z"/>
		<path fill="#FEFEFE" d="M375.642,947.764c-6.144,22.463-18.883,40.512-37.244,54.55c-20.937,16.01-44.853,23.04-71.017,20.837
			c-51.244-4.309-88.549-42.188-95.149-88.642c-5.404-38.034,6.928-70.309,36.091-95.472c16.343-14.104,35.574-22.421,57.303-24.091
			c15.805-1.214,31.31,0.405,46.234,6.12c0.106,1.123-0.355,2.083-0.838,3.055c-9.791,19.701-19.593,39.399-29.323,59.134
			c-1.122,2.276-2.381,2.601-5.006,2.504c-10.441-0.384-19.549,3.282-26.351,11.338c-15.361,18.195-8.343,44.835,13.947,53.235
			c8.886,3.353,17.677,2.465,26.093-1.736c1.666-0.832,3.232-1.108,4.993-1.103C322.13,947.593,348.886,947.677,375.642,947.764z"/>
		<path fill="#FEFEFE" d="M1008.292,894.269c-35.046-0.084-70.091-0.168-105.818-0.254c2.515-4.042,4.689-7.67,6.993-11.214
			c18.944-29.122,37.919-58.224,56.865-87.344c10.463-16.074,20.951-32.134,31.284-48.294c1.93-3.021,2.817-3.063,4.815-0.016
			c15.868,24.237,31.886,48.383,47.867,72.551c0.746,1.127,1.5,2.229,1.653,3.619c-0.511,1.764-2.365,2.019-3.52,3.065
			c-14.297,12.988-25.995,27.896-33.541,45.774C1011.896,879.25,1008.947,886.441,1008.292,894.269z"/>
		<path fill="#FEFEFE" d="M689.282,938.785c-50.972-0.123-101.943-0.243-152.916-0.369c-4.844-0.012-4.832-0.018-2.683-4.416
			c4.179-8.561,4.29-17.338,1.118-26.176c-1.792-4.999-1.941-4.945,3.558-4.932c94.414,0.228,188.828,0.454,283.24,0.681
			c6.859,0.017,13.717,0.094,20.576,0.02c2.689-0.028,3.334,0.699,2.161,3.293c-4.56,10.069-4.161,20.041,1.207,29.708
			c1.066,1.922,0.982,2.654-1.326,2.566c-0.941-0.038-1.885-0.008-2.825-0.01C790.691,939.028,739.986,938.907,689.282,938.785z"/>
		<path fill="#FEFEFE" d="M338.576,812.696c11.253-22.59,22.5-45.182,33.773-67.762c0.645-1.292,0.919-3.32,2.399-3.507
			c1.983-0.247,2.12,2.085,2.944,3.351c13.248,20.343,26.47,40.702,39.675,61.073c17.654,27.235,35.305,54.475,52.886,81.756
			c0.968,1.503,3.061,3.279,2.232,4.802c-0.869,1.595-3.442,0.615-5.246,0.613c-23.65-0.039-47.3-0.147-70.949-0.238
			c-0.395-1.668-0.739-3.353-1.189-5.008C386.264,855.221,367.329,830.26,338.576,812.696z"/>
		<path fill="#FEFEFE" d="M879.918,737.418c2.566,0.006,4.033,0.009,5.503,0.013c30.247,0.073,60.491,0.138,90.736,0.244
			c1.258,0.005,2.953-0.692,3.685,0.676c0.603,1.13-0.676,2.169-1.316,3.152c-20.765,31.948-41.538,63.889-62.298,95.838
			c-10.38,15.972-20.725,31.971-31.122,47.932c-0.871,1.343-1.365,3.583-3.816,2.544c-2.532-1.075-1.09-2.903-0.653-4.447
			c7.964-28.212,15.465-56.548,20.181-85.506c1.755-10.776,3.332-21.665,1.998-32.717c-0.656-5.427-3.575-9.425-7.037-13.227
			C891.189,746.884,885.798,742.692,879.918,737.418z"/>
		<path fill="#FEFEFE" d="M395.024,736.257c14.481,0.035,28.04,0.076,41.597,0.089c1.429,0,2.606,0.586,3.718,1.352
			c13.808,9.501,27.824,18.692,41.599,28.251c9.028,6.268,11.063,14.313,9.89,24.347c-2.098,17.932-5.271,35.67-8.952,53.331
			c-1.381,6.633-2.955,13.225-4.734,21.138C450.16,821.504,422.851,779.281,395.024,736.257z"/>
		<path fill="#FEFEFE" d="M515.194,736.72c32.821,0.08,64.612,0.155,97.2,0.234c-32.388,49.879-64.458,99.271-96.527,148.661
			c-0.275-0.132-0.55-0.259-0.826-0.389c2.315-8.611,4.585-17.234,6.954-25.829c5.3-19.225,9.781-38.645,13.24-58.274
			c1.715-9.735,2.406-19.612,2.998-29.524c0.695-11.666-5.085-19.226-13.08-26.104C522.036,742.81,518.977,740.057,515.194,736.72z"
			/>
		<path fill="#FEFEFE" d="M844.27,860.571c-2.235-1.216-2.869-3.083-3.856-4.604c-24.889-38.393-49.744-76.806-74.555-115.246
			c-0.597-0.921-2.067-1.832-1.272-3.105c0.601-0.956,1.99-0.452,3.023-0.452c10.891,0,21.779,0.059,32.667,0.04
			c1.816-0.004,3.426,0.339,4.929,1.389c15.288,10.657,31.375,20.15,45.949,31.849c3.771,3.025,5.586,6.586,5.602,11.396
			c0.056,18.066-3.711,35.614-7.079,53.21C848.07,843.447,846.142,851.787,844.27,860.571z"/>
		<path fill="#FEFEFE" d="M1006.541,939.481c-34.512-0.084-69.027-0.166-103.916-0.252c1.841-4.697,3.966-8.829,4.815-13.507
			c1.148-6.337,0.435-12.289-2.273-18.009c-1.286-2.726-1.517-4.012,2.275-3.989c31.999,0.174,64.003,0.208,96.004,0.298
			c1.041,0.002,2.178-0.281,3.033,0.653c-1.234,3.611-1.265,7.418-1.529,11.141C1004.382,923.755,1005.297,931.641,1006.541,939.481
			z"/>
		<path fill="#FEFEFE" d="M376.419,892.735c-24.731-0.024-49.462-0.099-74.194-0.023c-3.668,0.01-3.737-1.166-2.268-3.968
			c8.166-15.575,15.388-31.638,24.2-46.886c2.187-3.783,3.062-8.3,6.374-11.467C354.046,845.123,369.292,865.943,376.419,892.735z"
			/>
		<path fill="#FEFEFE" d="M397.939,902.585c24.458,0.048,48.917,0.101,73.375,0.136c2.044,0.005,3.917-0.273,2.371,2.91
			c-4.721,9.713-4.239,19.512,0.472,29.033c1.721,3.478,0.5,3.656-2.505,3.637c-24.593-0.155-49.186-0.209-73.777-0.295
			C398.719,926.199,399.698,914.395,397.939,902.585z"/>
		<path fill="#FEFEFE" d="M378.354,937.989c-23.649-0.041-47.297-0.137-70.945-0.065c-3.598,0.012-4.086-0.704-2.393-3.932
			c4.695-8.943,4.799-18.216,1.148-27.579c-0.39-0.997-0.768-2.003-1.107-3.018c-0.076-0.227,0.035-0.516,0.083-1.025
			c24.55,0.059,49.117,0.118,73.683,0.177C379.834,914.377,380.33,926.199,378.354,937.989z"/>
		<path fill="#FEFEFE" d="M1025.812,904.941c1.145-1.413,2.742-0.844,4.144-0.842c22.052,0.018,44.106,0.139,66.158,0.069
			c3.23-0.009,3.854,0.462,2.501,3.64c-4.114,9.661-3.935,19.348,1.062,28.699c1.541,2.882,0.638,3.312-2.157,3.294
			c-23.663-0.142-47.329-0.191-70.996-0.271c-1.001-6.359-1.517-12.733-1.583-19.19
			C1024.89,915.158,1025.996,910.096,1025.812,904.941z"/>
		<path fill="#FEFEFE" d="M881.106,718.075c-8.897-0.021-16.907-0.04-24.919-0.059c-1.282-0.001-2.339-0.598-3.3-1.335
			c-16.05-12.328-32.758-23.78-48.476-36.546c-1.039-0.844-2.05-1.768-2.888-2.807c-1.188-1.486-4.025-2.513-3.024-4.672
			c0.827-1.789,3.485-1.433,5.487-1.584c20.931-1.591,41.89-0.354,62.832-0.621c1.611-0.021,3.224,0.02,4.837,0.019
			c5.669-0.004,7.927,2.75,6.867,8.359c-1.306,6.899-3.941,13.346-6.695,19.751c-2.836,6.595-1.872,10.487,3.736,15.021
			C877.188,714.915,878.811,716.224,881.106,718.075z"/>
		<path fill="#FEFEFE" d="M516.251,717.209c-8.475-0.021-15.996-0.078-23.515-0.029c-1.989,0.014-3.615-0.572-5.191-1.76
			c-15.4-11.605-30.859-23.135-46.226-34.783c-2.442-1.851-4.543-4.167-6.758-6.311c-2.087-2.021-1.349-3.365,1.224-3.694
			c4.104-0.527,8.241-1.097,12.365-1.113c19.744-0.075,39.488,0.021,59.232,0.072c4.831,0.014,6.728,2.597,6.163,7.52
			c-0.81,7.054-3.508,13.449-6.429,19.772c-3.233,6.993-2.908,9.48,2.691,14.932C511.6,713.559,513.644,715.043,516.251,717.209z"/>
		<path fill="#FEFEFE" d="M1063.256,840.428c12.542,16.389,23.013,34.181,34.703,51.143c1.761,2.557,1.08,3.043-1.669,3.027
			c-22.678-0.126-45.355-0.181-68.036-0.257c3.026-8.944,6.225-17.764,11.084-25.979
			C1045.701,857.603,1053.772,848.445,1063.256,840.428z"/>
		<path fill="#0EC6A6" d="M376.419,892.735c-7.128-26.792-22.373-47.612-45.888-62.343c1.579-6.401,4.89-12.013,8.044-17.696
			c28.753,17.564,47.688,42.524,56.525,75.081c0.45,1.656,0.795,3.341,1.189,5.01C389.667,892.769,383.042,892.751,376.419,892.735z
			"/>
		<path fill="#0EC6A6" d="M1063.256,840.428c-9.483,8.018-17.555,17.175-23.916,27.934c-4.861,8.216-8.06,17.035-11.086,25.979
			c-6.654-0.024-13.309-0.048-19.962-0.071c0.658-7.828,3.606-15.02,6.6-22.111c7.546-17.878,19.246-32.783,33.541-45.774
			c1.154-1.047,3.011-1.303,3.52-3.066C1057.086,828.116,1060.305,834.186,1063.256,840.428z"/>
		<path fill="#0EC6A6" d="M1025.812,904.941c0.184,5.154-0.921,10.217-0.871,15.397c0.066,6.459,0.584,12.833,1.583,19.19
			c-6.659-0.017-13.321-0.032-19.981-0.048c-1.246-7.843-2.159-15.727-1.593-23.665c0.265-3.723,0.295-7.529,1.529-11.141
			C1012.924,904.765,1019.368,904.853,1025.812,904.941z"/>
		<path fill="#0EC6A6" d="M378.354,937.989c1.977-11.79,1.481-23.612,0.469-35.442c6.373,0.012,12.745,0.024,19.118,0.038
			c1.76,11.81,0.781,23.614-0.064,35.419C391.367,938,384.86,937.994,378.354,937.989z"/>
	</g>
</g>
<g>
	<path fill="#CCCCCC" d="M700.833,51.729c-359.573,0-652.098,292.54-652.098,652.127c0,359.612,292.525,652.183,652.098,652.183
		c359.587,0,652.126-292.567,652.126-652.183C1352.959,344.269,1060.42,51.729,700.833,51.729z M1174.368,1087.96l0.013,0.043
		c-0.684,0.841-1.362,1.685-2.05,2.521l-0.028-0.099c-0.322,0.378-0.713,0.703-1.166,0.96
		c-11.208,12.074-46.713,51.035-48.763,52.999c-2.56,2.45-5.142,4.879-7.744,7.286
		c-108.815,100.656-254.235,162.282-413.811,162.282c-336.351,0.015-610.012-273.69-610.012-610.098
		c0-336.377,273.663-610.056,610.026-610.056c69.321,0,135.921,11.794,198.073,33.194c9.331,3.957,57.882,23.033,66.97,27.435
		c203.999,98.812,345.012,307.962,345.012,549.426c0,145.409-51.167,279.09-136.399,384.017
		C1174.52,1087.822,1174.477,1087.854,1174.368,1087.96z"/>
</g>
<path fill="none" d="M894.195,125.399"/>
</svg>
