<?xml version="1.0" encoding="utf-8"?>
<!-- Generator: Adobe Illustrator 16.0.0, SVG Export Plug-In . SVG Version: 6.00 Build 0)  -->
<!DOCTYPE svg PUBLIC "-//W3C//DTD SVG 1.1//EN" "http://www.w3.org/Graphics/SVG/1.1/DTD/svg11.dtd">
<svg version="1.1" id="Layer_1" xmlns="http://www.w3.org/2000/svg" xmlns:xlink="http://www.w3.org/1999/xlink" x="0px" y="0px"
	 width="1400px" height="1400px" viewBox="0 0 1400 1400" enable-background="new 0 0 1400 1400" xml:space="preserve">
<g>
	<path fill="none" d="M-662.646,836.326c16.437,0,32.872,0.003,49.308-0.017c0.487,0,0.583,0.099,0.583,0.583
		c-0.015,29.077-0.015,58.154,0,87.231c0,0.486-0.096,0.582-0.583,0.582c-32.871-0.016-65.741-0.016-98.613,0
		c-0.487,0-0.583-0.096-0.583-0.583c0.015-29.077,0.015-58.153,0-87.23c0-0.484,0.096-0.583,0.583-0.583
		C-695.517,836.329-679.082,836.326-662.646,836.326z M-662.693,837.558c-23.475-0.141-42.713,19.19-42.791,42.589
		c-0.078,23.555,19.212,42.89,42.706,42.918c23.519,0.029,42.807-19.245,42.827-42.726
		C-619.93,856.799-639.24,837.441-662.693,837.558z"/>
	<path fill="none" d="M-690.575,858.693c-0.032-0.394,0.207-0.711,0.472-1.023c3.688-4.374,8.131-7.773,13.277-10.259
		c0.914-0.441,1.701-0.24,2.089,0.505c0.394,0.762,0.068,1.556-0.878,2.008c-4.467,2.125-8.321,5.06-11.644,8.712
		c-0.35,0.386-0.668,0.806-1.048,1.156c-0.408,0.377-0.902,0.503-1.444,0.25C-690.268,859.798-690.58,859.315-690.575,858.693z"/>
	<path fill="none" d="M-672.923,846.614c0.02-0.522,0.401-0.946,1.056-1.161c2.232-0.733,4.522-1.229,6.854-1.538
		c1.646-0.22,3.297-0.339,4.959-0.312c1.025,0.019,1.672,0.523,1.688,1.335c0.014,0.834-0.668,1.44-1.694,1.438
		c-3.703-0.009-7.308,0.598-10.839,1.687C-672.028,848.408-672.924,847.831-672.923,846.614z"/>
	<path fill="none" d="M-699.41,881.816c0.073-2.495,0.408-5.049,0.994-7.566c0.146-0.634,0.479-1.081,1.158-1.175
		c1.021-0.146,1.801,0.63,1.579,1.634c-0.604,2.761-0.979,5.542-0.968,8.373c0.004,0.925-0.631,1.562-1.418,1.562
		c-0.79-0.003-1.33-0.642-1.347-1.6C-699.416,882.664-699.41,882.285-699.41,881.816z"/>
	<path fill="none" d="M-693.645,866.917c-1.032,0.01-1.708-0.818-1.423-1.722c0.229-0.727,0.629-1.389,1.087-1.989
		c0.42-0.553,1.141-0.644,1.729-0.295c0.581,0.341,0.866,1.021,0.597,1.647c-0.271,0.627-0.616,1.229-0.974,1.813
		C-692.864,866.766-693.267,866.925-693.645,866.917z"/>
</g>
<g id="Ni4dol_1_">
	<g>
		<path fill="#FEFEFE" d="M19.085,1003.019c0-251.729,0.013-503.457-0.114-755.184c-0.002-4.112,0.895-4.83,4.89-4.828
			c314.035,0.116,628.071,0.106,942.106,0.106c0.062,1.963-1.495,1.777-2.736,2.157c-13.839,4.239-25.827,11.326-34.856,22.887
			c-15.919,20.381-19.941,43.014-10.442,66.968c3.145,7.931,2.343,12.529-2.993,18.707c-25.732,29.793-50.438,60.44-74.802,91.37
			c-32.61,41.398-64.443,83.346-93.268,127.505c-14.745,22.589-28.706,45.592-39.009,70.649
			c-6.565,15.966-8.598,31.589,0.896,47.296c5.447,9.013,11.539,17.515,18.687,25.167c13.995,14.982,29.59,28.21,45.996,40.486
			c5.335,3.992,10.633,8.031,16.869,12.744c-30.469,0-59.62,0.002-88.771,0c-18.33,0-36.661-0.072-54.991,0.066
			c-3.409,0.025-4.808-0.868-4.587-4.467c0.275-4.481,0.066-8.994,0.065-13.493c0-17.164,0.013-34.328-0.016-51.492
			c-0.004-2.052,0.654-4.608-2.883-4.543c-6.825,0.125-13.67-0.112-20.473,0.323c-12.341,0.789-24.521,0.36-36.389-3.445
			c-5.013-1.607-8.409-4.962-10.786-9.73c-2.864-5.745-2.3-12.002-3.343-18.005c-1.029-5.933-5.833-10.402-11.607-10.168
			c-6.343,0.258-11.161,4.761-11.497,10.906c-0.145,2.658-0.187,5.345,0.03,7.994c1.601,19.561,11.713,35.67,31.251,42.087
			c11.923,3.917,24.149,4.332,36.463,3.936c4.055-0.13,5.495,0.931,5.408,5.215c-0.269,13.16-0.315,26.333,0.02,39.489
			c0.118,4.661-1.551,5.433-5.73,5.415c-35.16-0.152-70.321-0.078-105.482-0.115c-1.395-0.002-2.938,0.546-4.531-0.786
			c4.156-8.286,8.299-16.604,11.598-25.291c7.766-20.448,14.285-41.187,12.924-63.454c-0.9-14.712-8.247-26.472-25.897-25.599
			c-18.275,0.904-36.596-0.346-54.904,0.988c-14.422,1.053-28.92,0.232-43.405,0.872c-16.754,0.74-33.614,1.14-50.385-0.672
			c-1.105-0.119-2.495,0.313-3.054-1.084c-0.528-1.317,0.484-2.201,1.29-3.004c13.448-13.416,26.625-27.122,40.453-40.135
			c16.379-15.414,32.159-31.339,46.339-48.811c4.008-4.939,5.907-10.405,5.767-17.004c-0.372-17.49-0.202-34.992-0.15-52.488
			c0.014-4.741,2.519-7.701,6.401-7.229c3.744,0.454,6.173,2.647,6.71,6.839c0.679,5.298,0.863,10.587,0.862,15.91
			c-0.005,17.831,0.039,35.662,0.074,53.491c0.015,7.322,2.069,13.302,8.583,17.899c9.929,7.007,20.017,13.73,30.368,20.071
			c25.661,15.719,51.903,30.49,76.615,47.753c6.349,4.434,9.24,9.924,9.541,17.508c0.184,4.648,0.183,9.597,5.012,12.83
			c10.958,7.334,22.559,8.559,34.667,3.852c8.246-3.205,11.905-9.22,11.16-16.876c-0.424-4.373-2.714-7.807-5.753-10.766
			c-8.481-8.258-18.228-14.978-27.543-22.19c-33.363-25.831-66.948-51.375-100.467-77.003c-2.104-1.608-3.516-3.343-3.262-6.248
			c0.824-9.42,1.455-18.856,2.24-28.28c1.226-14.703,2.52-29.401,3.778-44.101c0.948-11.066,2.252-22.119,2.686-33.206
			c0.253-6.455,1.924-12.81,0.977-19.357c-1.783-12.322-8.132-21.645-18.316-28.431c-2.824-1.881-2.555-3.201-0.493-5.407
			c2.943-3.149,5.763-6.449,8.303-9.928c2.06-2.823,4.057-3.773,7.514-2.276c9.741,4.22,20.205,4.79,30.414,3.464
			c36-4.669,62.886-36.304,59.075-74.125c-1.627-16.15-8.083-29.822-19.326-41.075c-14.1-14.11-31.329-20.713-51.47-19.652
			c-20.321,1.07-37.051,9.328-49.351,25.337c-17.519,22.804-19.827,47.526-7.123,73.457c1.222,2.497,1.358,4.345-0.627,6.729
			c-15.303,18.379-30.399,36.931-45.638,55.364c-18.1,21.895-35.654,44.221-52.917,66.778
			c-18.08,23.623-35.913,47.429-52.801,71.932c-19.273,27.964-38.077,56.211-52.598,87.029c-4.605,9.773-8.7,19.833-10.165,30.629
			c-1.911,14.078,4.666,25.653,12.282,36.481c13.915,19.782,32.013,35.495,50.851,50.372c7.88,6.223,15.943,12.212,24.727,18.92
			c-15.187,0-29.32,0.39-43.419-0.141c-8.787-0.331-13.739,3.387-17.536,10.969c-16.239,32.438-31.77,65.236-49.024,97.161
			c-22.206-8.252-44.847-12.73-68.779-10.182c-24.228,2.58-46.907,9.321-67.479,22.404c-35.773,22.749-58.871,54.681-68.896,96.01
			C21.458,991.162,21.393,997.33,19.085,1003.019z"/>
		<path fill-rule="evenodd" clip-rule="evenodd" fill="#CBCBCB" d="M228.042,877.038c17.255-31.925,32.785-64.723,49.024-97.161
			c3.796-7.582,8.749-11.3,17.536-10.969c14.099,0.53,28.233,0.141,43.419,0.141c-8.783-6.708-16.847-12.697-24.727-18.92
			c-18.838-14.877-36.937-30.59-50.851-50.372c-7.616-10.828-14.193-22.403-12.282-36.481c1.464-10.795,5.56-20.856,10.165-30.629
			c14.521-30.818,33.325-59.065,52.598-87.029c16.889-24.503,34.722-48.309,52.801-71.932
			c17.263-22.557,34.817-44.883,52.917-66.778c15.239-18.434,30.335-36.985,45.638-55.364c1.985-2.383,1.849-4.232,0.627-6.729
			c-12.704-25.931-10.396-50.653,7.123-73.457c12.3-16.009,29.03-24.267,49.351-25.337c20.141-1.062,37.371,5.542,51.47,19.652
			c11.243,11.252,17.699,24.925,19.326,41.075c3.811,37.822-23.075,69.457-59.075,74.125c-10.209,1.325-20.673,0.756-30.414-3.464
			c-3.457-1.497-5.454-0.546-7.514,2.276c-2.54,3.479-5.36,6.779-8.303,9.928c-2.062,2.206-2.331,3.526,0.493,5.407
			c10.184,6.786,16.533,16.109,18.316,28.431c0.947,6.547-0.724,12.902-0.977,19.357c-0.434,11.086-1.738,22.14-2.686,33.206
			c-1.258,14.7-2.552,29.398-3.778,44.101c-0.785,9.423-1.416,18.86-2.24,28.28c-0.254,2.905,1.158,4.64,3.262,6.248
			c33.519,25.628,67.104,51.172,100.467,77.003c9.315,7.212,19.062,13.932,27.543,22.19c3.039,2.959,5.329,6.394,5.753,10.766
			c0.745,7.656-2.914,13.672-11.16,16.876c-12.108,4.707-23.709,3.482-34.667-3.852c-4.829-3.233-4.828-8.182-5.012-12.83
			c-0.301-7.584-3.192-13.074-9.541-17.508c-24.712-17.263-50.955-32.034-76.615-47.753c-10.351-6.341-20.439-13.064-30.368-20.071
			c-6.514-4.597-8.568-10.577-8.583-17.899c-0.035-17.83-0.079-35.661-0.074-53.491c0.001-5.323-0.184-10.612-0.862-15.91
			c-0.537-4.192-2.966-6.385-6.71-6.839c-3.882-0.472-6.387,2.489-6.401,7.229c-0.052,17.497-0.222,34.999,0.15,52.488
			c0.141,6.599-1.758,12.065-5.767,17.004c-14.18,17.472-29.96,33.396-46.339,48.811c-13.827,13.014-27.004,26.719-40.453,40.135
			c-0.806,0.804-1.818,1.688-1.29,3.004c0.56,1.397,1.949,0.965,3.054,1.084c16.771,1.812,33.631,1.412,50.385,0.672
			c14.485-0.64,28.983,0.181,43.405-0.872c18.309-1.334,36.629-0.084,54.904-0.988c17.65-0.874,24.997,10.887,25.897,25.599
			c1.361,22.268-5.159,43.006-12.924,63.454c-3.299,8.688-7.442,17.005-11.598,25.291c1.593,1.332,3.136,0.784,4.531,0.786
			c35.161,0.037,70.322-0.037,105.482,0.115c4.179,0.018,5.849-0.754,5.73-5.415c-0.335-13.156-0.288-26.329-0.02-39.489
			c0.087-4.284-1.353-5.345-5.408-5.215c-12.314,0.396-24.54-0.019-36.463-3.936c-19.538-6.417-29.65-22.526-31.251-42.087
			c-0.217-2.649-0.175-5.336-0.03-7.994c0.336-6.145,5.154-10.648,11.497-10.906c5.774-0.234,10.578,4.235,11.607,10.168
			c1.043,6.003,0.479,12.26,3.343,18.005c2.377,4.768,5.773,8.123,10.786,9.73c11.868,3.805,24.047,4.234,36.389,3.445
			c6.803-0.436,13.648-0.198,20.473-0.323c3.538-0.064,2.879,2.492,2.883,4.543c0.028,17.164,0.016,34.328,0.016,51.492
			c0.001,4.499,0.21,9.012-0.065,13.493c-0.221,3.599,1.179,4.492,4.587,4.467c18.33-0.139,36.661-0.066,54.991-0.066
			c29.151,0.002,58.303,0,88.771,0c-6.236-4.713-11.534-8.752-16.869-12.744c-16.406-12.276-32.001-25.504-45.996-40.486
			c-7.147-7.651-13.239-16.154-18.687-25.167c-9.494-15.707-7.462-31.33-0.896-47.296c10.303-25.057,24.264-48.06,39.009-70.649
			c28.824-44.159,60.657-86.107,93.268-127.505c24.363-30.93,49.069-61.576,74.802-91.37c5.336-6.178,6.138-10.776,2.993-18.707
			c-9.499-23.954-5.477-46.587,10.442-66.968c9.029-11.561,21.018-18.648,34.856-22.887c1.241-0.38,2.798-0.193,2.736-2.157
			c0.666,0,1.332,0,1.999,0c0.667,1.173,1.333,1.107,2,0c7.332,0,14.665,0,21.997,0c0.333,0.815,0.667,0.901,1,0
			c0.667,0,1.333,0,2,0c0.06,2.282,1.963,1.865,3.293,2.199c29.779,7.476,54.027,38.43,49.884,72.293
			c-2.588,21.153-12.072,37.902-29.68,49.61c-18.554,12.338-38.791,14.958-59.896,7.481c-4.301-1.524-6.722-0.703-9.255,2.578
			c-3.043,3.94-6.13,7.894-9.616,11.428c-2.81,2.849-2.851,4.187,0.604,6.757c12.078,8.988,19.056,20.77,17.589,36.392
			c-1.194,12.716-2.229,25.44-3.124,38.183c-0.593,8.432-1.338,16.861-1.986,25.294c-1.373,17.848-3.12,35.667-4.782,53.49
			c-0.236,2.529,1.001,4.075,2.796,5.451c34.678,26.576,69.388,53.11,104.008,79.761c8.681,6.682,17.808,12.853,25.448,20.802
			c7.716,8.026,7.494,16.837-1.321,23.6c-9.169,7.032-19.764,7.301-30.378,3.772c-7.861-2.614-14.499-6.274-14.11-16.632
			c0.251-6.686-1.989-12.73-8.224-17.144c-19.71-13.952-40.419-26.287-61.058-38.749c-15.371-9.28-31.09-18.036-45.443-28.884
			c-4.016-3.035-8.762-6.017-9.627-11.617c-0.731-4.738-0.993-9.585-1.026-14.388c-0.132-19.163-0.114-38.326-0.093-57.489
			c0.003-2.534-0.081-5.063-1.201-7.318c-1.401-2.818-3.666-5.102-7.026-4.576c-3.231,0.505-5.138,2.959-5.666,6.225
			c-0.21,1.302-0.116,2.661-0.088,3.992c0.297,14.134,1.048,28.278,0.746,42.399c-0.172,8.092,0.12,16.388-5.69,23.639
			c-15.15,18.91-32.5,35.694-49.912,52.378c-12.389,11.872-24.456,24.05-36.675,36.084c-0.47,0.463-0.885,1-1.246,1.555
			c-1.326,2.039-1.312,3.372,1.668,3.406c5.646,0.064,11.211,1.209,16.902,1.004c13.961-0.503,27.925,0.235,41.912-0.797
			c14.75-1.089,29.582-0.158,44.4-0.958c16.617-0.897,33.316-0.286,49.98-0.315c5.786-0.01,10.593,2.172,14.723,6.251
			c7.376,7.289,7.85,16.895,7.666,26.021c-0.391,19.455-6.079,37.882-12.979,55.975c-3.432,8.998-8.105,17.409-12.055,26.338
			c0.853,0.209,1.307,0.418,1.762,0.418c36.992,0.02,73.985-0.012,110.979,0.086c3.32,0.008,3.789-1.486,3.772-4.253
			c-0.087-13.83-0.16-27.663,0.04-41.492c0.054-3.754-1.497-4.393-4.738-4.319c-10.471,0.235-20.938,0.254-31.264-2.018
			c-28.371-6.24-38.604-27.771-37.884-52.13c0.163-5.526,5.376-10.21,10.781-10.776c5.138-0.539,10.238,3.107,12.153,8.479
			c0.924,2.592,0.861,5.223,0.916,7.881c0.259,12.761,6.471,20.799,18.932,23.293c9.11,1.822,18.482,2.822,27.736,2.011
			c6.998-0.615,13.97-0.182,20.916-0.737c4.45-0.356,5.61,1.143,5.581,5.556c-0.193,29.826-0.088,59.655-0.123,89.482
			c-0.004,2.724,0.365,5.153,1.964,7.539c18.801,28.054,37.512,56.168,56.253,84.263c0.905,1.355,1.524,3.054,3.546,3.174
			c1.946,6.328,6.877,10.816,10.128,16.348c0.951,1.617,1.647,3.765,4.069,4.002c0.47,4.107,2.899,7.355,5.044,10.61
			c13.351,20.269,26.865,40.429,40.28,60.656c1.596,2.406,2.985,3.736,6.42,2.773c4.562-1.279,9.321-1.242,14.23-0.583
			c21.783,2.926,38.632,25.354,34.838,46.966c-4.945,28.16-33.529,43.09-59.261,30.864c-2.501-1.188-4.938-1.697-7.66-1.693
			c-30.975,0.044-61.949,0.018-92.924,0.056c-1.744,0.003-3.714-0.657-5.141,1.062c-8.236,0.006-16.473,0.011-24.709,0.016
			c-1.236-1.647-3.039-1.081-4.626-1.082c-45.655-0.028-91.31-0.013-136.964-0.052c-2.402-0.002-4.545,0.47-6.687,1.579
			c-12.116,6.277-24.316,5.796-36.436,0.05c-2.338-1.108-4.616-1.628-7.179-1.628c-136.463,0.031-272.926,0.03-409.39,0.011
			c-2.201,0-4.113,0.458-6.161,1.464c-11.686,5.738-23.613,6.521-35.503,0.638c-3.406-1.686-6.817-2.179-10.533-2.119
			c-35.453,0.569-70.926-1.062-106.366,0.974c-0.922-1.363-2.351-0.937-3.599-0.938c-7.061-0.007-14.121,0.049-21.182,0.083
			c-33.149-0.028-66.299-0.052-99.45-0.094c-2.18-0.003-4.121,0.346-6.182,1.381c-10.415,5.231-21.304,6.356-32.324,2.231
			c-27.64-10.344-36.416-43.327-17.437-65.917c8.401-10,19.676-14.57,32.613-14.124c3.251,0.111,4.812-0.296,6.195-3.118
			c11.996-24.479,24.083-48.912,36.154-73.353c0.596-1.206,1.163-2.396,1.029-3.788
			C221.805,891.803,225.104,884.514,228.042,877.038z M1148.048,920.082c-3.677-7.726-7.68-15.235-14.057-21.168
			c-0.195-1.719-1.132-3.083-2.059-4.478c-19.873-29.895-39.788-59.761-59.524-89.745c-2.481-3.77-3.581-3.715-5.965,0.035
			c-12.753,20.052-25.701,39.979-38.615,59.928c-23.389,36.134-46.811,72.246-70.192,108.384c-2.846,4.397-5.527,8.899-8.632,13.915
			c44.266,0,87.686,0,131.105,0.001c8.244,0.009,16.489,0.018,24.733,0.027c28.099,0.027,56.197,0.028,84.296,0.115
			c3.405,0.011,4.248-0.593,2.058-3.756C1176.661,962.36,1163.636,940.349,1148.048,920.082z M1101.848,1000.124
			c-7.984-0.091-15.969-0.182-23.953-0.272c-1.062-1.154-2.469-0.802-3.76-0.802c-39.649-0.016-79.299,0.039-118.947-0.082
			c-4.699-0.015-4.409,1.577-2.804,4.95c3.37,7.076,4.273,14.45,2.867,22.307c-1.038,5.797-3.658,10.921-5.924,16.748
			c43.225,0,85.987,0,128.749,0c8.252,0.001,16.505,0.002,24.758,0.003c29.32,0.027,58.642,0.02,87.962,0.125
			c3.462,0.013,4.582-0.522,2.663-4.09c-6.222-11.569-6.471-23.57-1.402-35.552c1.666-3.941,0.893-4.524-3.11-4.503
			c-27.321,0.153-54.645,0.067-81.966,0.111C1105.242,999.07,1103.264,998.37,1101.848,1000.124z M299.769,1042.998
			c8.062-0.014,16.124-0.027,24.187-0.041c30.469,0.033,60.938,0.027,91.407,0.148c3.724,0.015,5.237-0.209,3.093-4.514
			c-5.864-11.783-6.491-23.923-0.671-35.97c1.907-3.948-0.413-3.599-2.946-3.597c-30.303,0.03-60.605,0.036-90.909,0.048
			c-7.895,0.004-15.79,0.009-23.686,0.013c-30.438,0-60.875,0-91.291,0c-0.059,0.631-0.195,0.988-0.101,1.269
			c0.424,1.259,0.895,2.502,1.381,3.737c4.552,11.589,4.451,23.075-1.34,34.172c-2.089,4.004-1.482,4.889,2.976,4.864
			C241.168,1042.969,270.468,1043.018,299.769,1042.998z M240.198,909.83c-4.093,3.933-5.163,9.532-7.86,14.227
			c-10.873,18.917-19.774,38.839-29.844,58.162c-1.812,3.477-1.724,4.932,2.822,4.907c30.641-0.164,61.282-0.148,91.923-0.191
			c8.206,0.001,16.412,0.002,24.618,0.004c29.301,0.041,58.603,0.105,87.904,0.081c2.234-0.002,5.427,1.205,6.498-0.773
			c1.022-1.89-1.576-4.084-2.78-5.943c-21.864-33.749-43.813-67.443-65.767-101.135c-16.42-25.199-32.863-50.385-49.337-75.55
			c-1.025-1.565-1.201-4.454-3.657-4.141c-1.834,0.233-2.167,2.749-2.962,4.351c-13.901,28.01-27.768,56.033-41.643,84.054
			C246.222,894.934,242.136,901.896,240.198,909.83z M873.125,987.063c0.274-1.901-0.619-2.736-1.24-3.692
			c-15.389-23.716-30.748-47.45-46.167-71.146c-25.215-38.754-50.49-77.47-75.646-116.262c-1.337-2.062-2.606-3.015-5.107-3.01
			c-41.324,0.067-82.648,0.066-123.972,0.005c-2.624-0.004-4.132,0.847-5.599,3.126c-32.022,49.795-64.144,99.525-96.259,149.26
			c-8.03,12.435-16.107,24.838-24.158,37.259c-0.711,1.097-2.001,2.25-1.457,3.52c0.746,1.739,2.646,0.692,4.029,0.923
			c0.648,0.108,1.33,0.019,1.997,0.019c122.805,0,245.611,0,368.417,0C869.619,987.063,871.275,987.063,873.125,987.063z
			 M685.001,1043.056c62.821,0,125.641,0,188.46,0c1.166,0,2.334-0.038,3.499,0.004c2.861,0.103,2.964-0.806,1.636-3.183
			c-6.68-11.962-7.203-24.314-1.584-36.806c1.445-3.215,0.646-4.115-2.688-4.071c-8.497,0.113-16.995,0.037-25.493,0.037
			c-116.976-0.001-233.951-0.001-350.926,0c-6.813,0-6.628-0.066-4.392,6.12c3.955,10.941,3.843,21.817-1.308,32.434
			c-2.649,5.458-2.665,5.463,3.337,5.463C558.695,1043.058,621.848,1043.056,685.001,1043.056z M920.591,793.001
			c7.302,6.521,13.993,11.695,19.694,17.924c4.3,4.699,7.929,9.644,8.757,16.365c1.686,13.689-0.237,27.186-2.379,40.54
			c-5.756,35.894-14.966,71.022-24.748,105.999c-0.535,1.914-2.317,4.185,0.826,5.51c3.036,1.279,3.643-1.499,4.72-3.163
			c12.833-19.809,25.602-39.659,38.415-59.48c25.625-39.646,51.268-79.281,76.898-118.924c0.791-1.224,2.37-2.513,1.621-3.91
			c-0.91-1.694-3.009-0.825-4.568-0.827c-37.472-0.043-74.944-0.033-112.416-0.033C925.591,793.001,923.771,793.001,920.591,793.001
			z M319.822,793.009c34.605,53.223,68.565,105.454,103.361,158.969c2.181-9.811,4.111-17.983,5.803-26.206
			c4.507-21.889,8.386-43.878,10.931-66.101c1.425-12.433-1.12-22.398-12.325-30.134c-17.094-11.801-34.487-23.148-51.623-34.879
			c-1.38-0.945-2.84-1.666-4.611-1.663C354.562,793.019,337.765,793.009,319.822,793.009z M468.709,793.225
			c4.696,4.123,8.495,7.525,12.367,10.842c9.925,8.498,17.11,17.846,16.282,32.303c-0.703,12.281-1.53,24.521-3.626,36.586
			c-4.226,24.331-9.721,48.405-16.229,72.239c-2.91,10.657-5.696,21.347-8.539,32.022c0.342,0.16,0.684,0.319,1.024,0.479
			c39.586-61.288,79.172-122.577,119.149-184.472C548.764,793.225,509.373,793.225,468.709,793.225z M876.791,945.691
			c2.293-10.889,4.656-21.227,6.623-31.641c4.12-21.812,8.734-43.564,8.612-65.948c-0.032-5.959-2.293-10.362-6.972-14.1
			c-18.094-14.45-38.053-26.166-57.025-39.323c-1.867-1.295-3.863-1.715-6.11-1.706c-13.49,0.055-26.981,0.015-40.473,0.048
			c-1.281,0.003-3.007-0.619-3.746,0.57c-0.98,1.577,0.845,2.702,1.585,3.843c30.855,47.553,61.765,95.071,92.713,142.563
			C873.225,941.88,874.019,944.19,876.791,945.691z M922.007,769.035c-2.85-2.288-4.866-3.905-6.88-5.526
			c-6.962-5.603-8.17-10.422-4.675-18.6c3.396-7.945,6.64-15.94,8.235-24.492c1.297-6.954-1.508-10.358-8.53-10.337
			c-1.999,0.006-3.998-0.04-5.995-0.01c-25.946,0.393-51.915-1.075-77.844,0.957c-2.48,0.195-5.774-0.238-6.795,1.98
			c-1.232,2.679,2.284,3.94,3.765,5.778c1.036,1.286,2.295,2.427,3.584,3.47c19.513,15.768,40.245,29.91,60.167,45.135
			c1.192,0.911,2.505,1.648,4.095,1.646C901.059,769.035,910.982,769.035,922.007,769.035z M469.962,769.049
			c-3.238-2.677-5.775-4.509-8-6.665c-6.954-6.739-7.364-9.82-3.379-18.494c3.602-7.842,6.924-15.772,7.907-24.516
			c0.686-6.101-1.673-9.294-7.658-9.296c-24.463-0.007-48.925-0.067-73.387,0.086c-5.11,0.032-10.232,0.751-15.315,1.415
			c-3.186,0.417-4.098,2.082-1.505,4.58c2.751,2.651,5.358,5.514,8.391,7.8c19.074,14.387,38.261,28.625,57.375,42.958
			c1.957,1.468,3.972,2.188,6.437,2.165C450.143,769,459.46,769.049,469.962,769.049z"/>
		<path fill-rule="evenodd" clip-rule="evenodd" fill="#FEFEFE" d="M1155.745,885.06c-2.021-0.121-2.64-1.819-3.545-3.175
			c-18.741-28.095-37.452-56.209-56.253-84.263c-1.599-2.386-1.968-4.815-1.964-7.539c0.035-29.827-0.07-59.656,0.123-89.482
			c0.029-4.413-1.131-5.912-5.581-5.556c-6.946,0.556-13.918,0.122-20.916,0.737c-9.254,0.812-18.626-0.188-27.736-2.011
			c-12.461-2.494-18.673-10.532-18.932-23.293c-0.055-2.658,0.008-5.289-0.916-7.881c-1.915-5.371-7.016-9.017-12.153-8.479
			c-5.405,0.566-10.618,5.25-10.781,10.776c-0.721,24.359,9.513,45.89,37.884,52.13c10.326,2.271,20.793,2.253,31.264,2.018
			c3.241-0.073,4.792,0.565,4.738,4.319c-0.2,13.829-0.127,27.662-0.04,41.492c0.017,2.767-0.452,4.261-3.772,4.253
			c-36.993-0.098-73.986-0.066-110.979-0.086c-0.455,0-0.909-0.209-1.762-0.418c3.949-8.929,8.623-17.34,12.055-26.338
			c6.9-18.093,12.589-36.52,12.979-55.975c0.184-9.126-0.29-18.732-7.666-26.021c-4.13-4.08-8.937-6.261-14.723-6.251
			c-16.664,0.029-33.363-0.582-49.98,0.315c-14.818,0.8-29.65-0.131-44.4,0.958c-13.987,1.032-27.951,0.294-41.912,0.797
			c-5.691,0.205-11.256-0.939-16.902-1.004c-2.979-0.034-2.994-1.367-1.668-3.406c0.361-0.556,0.776-1.092,1.246-1.555
			c12.219-12.035,24.286-24.213,36.675-36.084c17.412-16.685,34.762-33.469,49.912-52.378c5.811-7.251,5.519-15.547,5.69-23.639
			c0.302-14.121-0.449-28.265-0.746-42.399c-0.028-1.331-0.122-2.69,0.088-3.992c0.528-3.265,2.435-5.72,5.666-6.225
			c3.36-0.525,5.625,1.758,7.026,4.576c1.12,2.255,1.204,4.784,1.201,7.318c-0.021,19.163-0.039,38.326,0.093,57.489
			c0.033,4.802,0.295,9.65,1.026,14.388c0.865,5.6,5.611,8.582,9.627,11.617c14.354,10.848,30.072,19.604,45.443,28.884
			c20.639,12.462,41.348,24.797,61.058,38.749c6.234,4.414,8.475,10.458,8.224,17.144c-0.389,10.358,6.249,14.019,14.11,16.632
			c10.614,3.529,21.209,3.26,30.378-3.772c8.815-6.763,9.037-15.573,1.321-23.6c-7.641-7.949-16.768-14.12-25.448-20.802
			c-34.62-26.65-69.33-53.185-104.008-79.761c-1.795-1.376-3.032-2.921-2.796-5.451c1.662-17.824,3.409-35.643,4.782-53.49
			c0.648-8.434,1.394-16.863,1.986-25.294c0.896-12.743,1.93-25.467,3.124-38.183c1.467-15.622-5.511-27.404-17.589-36.392
			c-3.454-2.57-3.413-3.909-0.604-6.757c3.486-3.535,6.573-7.488,9.616-11.428c2.533-3.281,4.954-4.102,9.255-2.578
			c21.104,7.477,41.342,4.857,59.896-7.481c17.607-11.708,27.092-28.457,29.68-49.61c4.144-33.863-20.104-64.817-49.884-72.293
			c-1.33-0.334-3.233,0.083-3.293-2.199c127.816,0,255.635,0.02,383.452-0.095c3.749-0.003,4.594,0.846,4.593,4.594
			c-0.104,251.468-0.094,502.937-0.094,754.406c-2.471-8.672-3.237-17.675-5.815-26.388c-6.605-22.325-17.898-41.882-33.281-59.116
			c-14.825-16.611-32.682-29.181-53.084-38.104c-16.899-7.391-34.636-11.386-53.001-12.308c-13.186-0.662-26.347,0.065-39.3,2.939
			C1183.452,872.366,1169.03,877.202,1155.745,885.06z"/>
		<path fill-rule="evenodd" clip-rule="evenodd" fill="#FEFEFE" d="M321.219,1055.969c35.44-2.035,70.913-0.404,106.366-0.974
			c3.715-0.06,7.127,0.434,10.533,2.119c11.89,5.884,23.817,5.101,35.503-0.638c2.048-1.006,3.959-1.464,6.161-1.464
			c136.463,0.02,272.927,0.021,409.39-0.011c2.562,0,4.841,0.52,7.179,1.628c12.119,5.746,24.319,6.228,36.436-0.05
			c2.142-1.109,4.284-1.581,6.687-1.579c45.654,0.039,91.309,0.023,136.964,0.052c1.587,0.001,3.39-0.565,4.626,1.083
			c-0.029,0.83-0.267,1.716-0.057,2.48c4.062,14.808,9.75,28.94,18.018,41.922c9.93,15.593,21.779,29.4,36.566,40.769
			c16.104,12.379,33.732,21.42,53.298,26.631c7.594,2.023,15.36,3.393,23.049,5.06c-340.957,0-681.915,0-1022.872,0
			c0.244-0.736,0.821-0.904,1.521-0.979c14.916-1.588,29.268-5.411,42.878-11.651
			C279.146,1139.426,308.254,1104.459,321.219,1055.969z"/>
		<path fill-rule="evenodd" clip-rule="evenodd" fill="#0EC6A6" d="M1211.936,1172.997c-7.688-1.667-15.455-3.036-23.049-5.06
			c-19.565-5.211-37.193-14.252-53.298-26.631c-14.787-11.368-26.637-25.176-36.566-40.769
			c-8.268-12.981-13.955-27.114-18.018-41.922c-0.21-0.765,0.027-1.65,0.057-2.48c8.236-0.006,16.473-0.011,24.71-0.016
			c0.511,0.826,0.934,1.64,1.25,2.612c8.947,27.469,25.104,49.742,48.673,66.459c22.984,16.303,48.73,24.101,76.872,23.749
			c7.855-0.098,15.639-1.333,23.363-2.904c22.235-4.522,41.833-14.432,58.731-29.395c14.662-12.982,26.188-28.396,33.811-46.627
			c6.107-14.611,9.498-29.817,10.381-45.549c0.685-12.211-0.938-24.287-4-36.105c-7.304-28.169-22.223-51.668-44.999-69.693
			c-18.587-14.709-39.71-24.045-63.582-26.747c-15.083-1.708-29.957-1.385-44.812,1.851c-11.077,2.412-21.466,6.529-31.516,11.638
			c-2.422-0.237-3.118-2.385-4.069-4.002c-3.251-5.531-8.182-10.02-10.128-16.348c13.284-7.856,27.706-12.692,42.687-16.017
			c12.953-2.874,26.114-3.602,39.3-2.939c18.365,0.922,36.102,4.917,53.001,12.308c20.402,8.924,38.259,21.493,53.084,38.104
			c15.383,17.234,26.676,36.791,33.281,59.116c2.578,8.713,3.345,17.716,5.815,26.388c0,11.998,0,23.997,0,35.995
			c-1.686,3.049-1.339,6.521-1.939,9.783c-3.339,18.127-9.832,35.041-19.221,50.848c-9.63,16.213-21.892,30.096-36.717,41.823
			c-16.203,12.817-34.235,21.924-54.053,27.455c-7.566,2.113-15.363,3.407-23.053,5.074
			C1235.933,1172.997,1223.935,1172.997,1211.936,1172.997z"/>
		<path fill-rule="evenodd" clip-rule="evenodd" fill="#0EC6A6" d="M321.219,1055.969c-12.965,48.49-42.073,83.457-87.755,104.397
			c-13.611,6.24-27.962,10.063-42.878,11.651c-0.7,0.075-1.277,0.243-1.521,0.979c-11.332,0-22.664,0-33.996,0
			c-1.927-1.996-4.619-1.455-6.915-1.812c-62.771-9.732-114.252-59.256-126.222-121.371c-0.824-4.274-0.446-8.865-2.846-12.801
			c0-11.331,0-22.664,0-33.995c2.308-5.688,2.373-11.856,3.803-17.748c10.025-41.329,33.123-73.261,68.896-96.01
			c20.572-13.083,43.251-19.824,67.479-22.404c23.933-2.549,46.573,1.93,68.779,10.182c-2.938,7.476-6.237,14.765-11.005,21.295
			c-18.508-7.035-37.724-8.993-57.3-7.442c-26.917,2.132-50.718,12.496-70.925,30.016c-36.058,31.265-51.239,71.287-44.431,118.396
			c8.315,57.531,54.649,104.353,118.151,109.539c32.422,2.648,62.032-6.129,87.925-26.027
			c22.707-17.449,38.436-39.849,45.981-67.699c7.061-0.034,14.121-0.09,21.182-0.083
			C318.868,1055.032,320.296,1054.605,321.219,1055.969z"/>
		<path fill-rule="evenodd" clip-rule="evenodd" fill="#FEFEFE" d="M19.085,1037.014c2.4,3.936,2.022,8.526,2.846,12.801
			c11.97,62.115,63.451,111.639,126.222,121.371c2.296,0.356,4.988-0.185,6.915,1.812c-44.162,0-88.323-0.037-132.483,0.084
			c-2.982,0.008-3.591-0.601-3.583-3.584C19.123,1125.336,19.085,1081.176,19.085,1037.014z"/>
		<path fill-rule="evenodd" clip-rule="evenodd" fill="#FEFEFE" d="M1247.932,1172.997c7.689-1.667,15.486-2.961,23.053-5.074
			c19.817-5.531,37.85-14.638,54.053-27.455c14.825-11.728,27.087-25.61,36.717-41.823c9.389-15.807,15.882-32.721,19.221-50.848
			c0.601-3.262,0.254-6.734,1.939-9.783c0,43.827-0.038,87.656,0.084,131.483c0.008,2.983-0.601,3.592-3.583,3.584
			C1335.587,1172.959,1291.759,1172.997,1247.932,1172.997z"/>
		<path fill-rule="evenodd" clip-rule="evenodd" fill="#FEFEFE" d="M969.966,243.113c-0.667,1.107-1.333,1.173-2,0
			C968.633,243.113,969.299,243.113,969.966,243.113z"/>
		<path fill-rule="evenodd" clip-rule="evenodd" fill="#FEFEFE" d="M992.963,243.113c-0.333,0.901-0.667,0.815-1,0
			C992.296,243.113,992.63,243.113,992.963,243.113z"/>
		<path fill-rule="evenodd" clip-rule="evenodd" fill="#FEFEFE" d="M873.125,987.063c-1.85,0-3.506,0-5.163,0
			c-122.806,0-245.612,0-368.417,0c-0.667,0-1.349,0.09-1.997-0.019c-1.382-0.23-3.283,0.816-4.029-0.923
			c-0.544-1.27,0.746-2.423,1.457-3.52c8.051-12.421,16.128-24.824,24.158-37.259c32.116-49.734,64.237-99.465,96.259-149.26
			c1.467-2.279,2.975-3.13,5.599-3.126c41.324,0.062,82.647,0.062,123.972-0.005c2.501-0.005,3.771,0.947,5.107,3.01
			c25.155,38.792,50.431,77.508,75.646,116.262c15.419,23.696,30.778,47.431,46.167,71.146
			C872.506,984.327,873.399,985.162,873.125,987.063z"/>
		<path fill-rule="evenodd" clip-rule="evenodd" fill="#FEFEFE" d="M1169.943,905.408c10.05-5.108,20.438-9.226,31.516-11.638
			c14.855-3.235,29.729-3.559,44.812-1.851c23.872,2.702,44.995,12.038,63.582,26.747c22.776,18.025,37.695,41.524,44.999,69.693
			c3.062,11.818,4.685,23.895,4,36.105c-0.883,15.731-4.273,30.938-10.381,45.549c-7.622,18.23-19.148,33.645-33.811,46.627
			c-16.898,14.963-36.496,24.872-58.731,29.395c-7.725,1.571-15.508,2.807-23.363,2.904c-28.142,0.352-53.888-7.446-76.872-23.749
			c-23.569-16.717-39.726-38.99-48.673-66.459c-0.316-0.973-0.739-1.786-1.25-2.612c1.426-1.72,3.396-1.06,5.14-1.062
			c30.975-0.038,61.949-0.012,92.924-0.056c2.723-0.004,5.159,0.505,7.66,1.693c25.731,12.226,54.315-2.704,59.261-30.864
			c3.794-21.611-13.055-44.04-34.838-46.966c-4.909-0.659-9.669-0.696-14.23,0.583c-3.435,0.963-4.824-0.367-6.42-2.773
			c-13.415-20.228-26.93-40.388-40.28-60.656C1172.843,912.764,1170.413,909.516,1169.943,905.408z"/>
		<path fill-rule="evenodd" clip-rule="evenodd" fill="#FEFEFE" d="M296.438,1055.114c-7.545,27.851-23.274,50.25-45.981,67.699
			c-25.893,19.898-55.503,28.676-87.925,26.027c-63.502-5.187-109.836-52.008-118.151-109.539
			c-6.809-47.108,8.373-87.131,44.431-118.396c20.207-17.52,44.008-27.884,70.925-30.016c19.577-1.551,38.792,0.407,57.3,7.442
			c0.135,1.393-0.433,2.582-1.028,3.788c-12.072,24.44-24.159,48.874-36.154,73.353c-1.383,2.822-2.943,3.229-6.195,3.118
			c-12.938-0.446-24.212,4.124-32.613,14.124c-18.979,22.59-10.204,55.573,17.437,65.917c11.02,4.125,21.909,3,32.324-2.231
			c2.061-1.035,4.001-1.384,6.182-1.381C230.139,1055.062,263.289,1055.086,296.438,1055.114z"/>
		<path fill-rule="evenodd" clip-rule="evenodd" fill="#FEFEFE" d="M1080.109,986.953c-43.42,0-86.84,0-131.105,0
			c3.104-5.016,5.786-9.518,8.632-13.915c23.382-36.138,46.804-72.25,70.192-108.384c12.914-19.948,25.862-39.876,38.615-59.928
			c2.384-3.75,3.483-3.805,5.965-0.035c19.736,29.984,39.651,59.851,59.524,89.745c0.927,1.395,1.863,2.759,2.058,4.479
			c-0.626,2.187-2.924,2.509-4.35,3.81c-17.674,16.136-32.124,34.64-41.42,56.812
			C1084.532,968.333,1080.899,977.251,1080.109,986.953z"/>
		<path fill-rule="evenodd" clip-rule="evenodd" fill="#FEFEFE" d="M685.001,1043.056c-63.153,0-126.306,0.002-189.458-0.002
			c-6.002,0-5.987-0.005-3.337-5.463c5.151-10.616,5.263-21.492,1.308-32.434c-2.236-6.187-2.421-6.12,4.392-6.12
			c116.976-0.001,233.951-0.001,350.926,0c8.498,0,16.996,0.076,25.493-0.037c3.333-0.044,4.133,0.856,2.688,4.071
			c-5.619,12.491-5.096,24.844,1.584,36.806c1.328,2.377,1.226,3.285-1.636,3.183c-1.165-0.042-2.333-0.004-3.499-0.004
			C810.643,1043.056,747.822,1043.056,685.001,1043.056z"/>
		<path fill-rule="evenodd" clip-rule="evenodd" fill="#FEFEFE" d="M250.113,887.882c13.875-28.021,27.742-56.044,41.643-84.054
			c0.795-1.602,1.128-4.117,2.962-4.351c2.456-0.313,2.631,2.575,3.657,4.141c16.474,25.165,32.917,50.351,49.337,75.55
			c21.954,33.691,43.903,67.386,65.767,101.135c1.204,1.859,3.802,4.054,2.78,5.943c-1.071,1.979-4.264,0.771-6.498,0.773
			c-29.301,0.024-58.603-0.04-87.904-0.081c-0.493-2.068-0.925-4.153-1.487-6.203C309.323,940.427,285.789,909.559,250.113,887.882z
			"/>
		<path fill-rule="evenodd" clip-rule="evenodd" fill="#FEFEFE" d="M920.591,793.001c3.18,0,5,0,6.82,0
			c37.472,0,74.944-0.01,112.416,0.033c1.56,0.002,3.658-0.867,4.568,0.827c0.749,1.397-0.83,2.687-1.621,3.91
			c-25.631,39.643-51.273,79.277-76.898,118.924c-12.813,19.821-25.582,39.672-38.415,59.48c-1.077,1.664-1.684,4.442-4.72,3.163
			c-3.144-1.325-1.361-3.596-0.826-5.51c9.782-34.977,18.992-70.105,24.748-105.999c2.142-13.354,4.064-26.851,2.379-40.54
			c-0.828-6.722-4.457-11.666-8.757-16.365C934.584,804.696,927.893,799.522,920.591,793.001z"/>
		<path fill-rule="evenodd" clip-rule="evenodd" fill="#FEFEFE" d="M319.822,793.009c17.943,0,34.74,0.01,51.537-0.014
			c1.771-0.003,3.231,0.718,4.611,1.663c17.136,11.73,34.528,23.078,51.623,34.879c11.205,7.735,13.75,17.701,12.325,30.134
			c-2.545,22.223-6.424,44.212-10.931,66.101c-1.692,8.223-3.623,16.396-5.803,26.206
			C388.387,898.463,354.427,846.231,319.822,793.009z"/>
		<path fill-rule="evenodd" clip-rule="evenodd" fill="#FEFEFE" d="M468.709,793.225c40.664,0,80.054,0,120.428,0
			c-39.978,61.895-79.563,123.184-119.149,184.472c-0.341-0.16-0.683-0.319-1.024-0.479c2.843-10.676,5.629-21.365,8.539-32.022
			c6.508-23.834,12.003-47.908,16.229-72.239c2.097-12.065,2.923-24.305,3.626-36.586c0.828-14.457-6.357-23.805-16.282-32.303
			C477.204,800.75,473.406,797.348,468.709,793.225z"/>
		<path fill-rule="evenodd" clip-rule="evenodd" fill="#FEFEFE" d="M876.791,945.691c-2.772-1.501-3.566-3.812-4.793-5.693
			c-30.948-47.492-61.857-95.011-92.713-142.563c-0.74-1.141-2.565-2.266-1.585-3.843c0.739-1.189,2.465-0.567,3.746-0.57
			c13.491-0.033,26.982,0.007,40.473-0.048c2.247-0.009,4.243,0.411,6.11,1.706c18.973,13.157,38.932,24.873,57.025,39.323
			c4.679,3.737,6.939,8.141,6.972,14.1c0.122,22.384-4.492,44.136-8.612,65.948C881.447,924.465,879.084,934.803,876.791,945.691z"
			/>
		<path fill-rule="evenodd" clip-rule="evenodd" fill="#FEFEFE" d="M1078.075,1042.973c-42.761,0-85.523,0-128.748,0
			c2.266-5.827,4.886-10.951,5.924-16.748c1.406-7.856,0.503-15.23-2.867-22.307c-1.605-3.373-1.896-4.965,2.804-4.95
			c39.648,0.121,79.298,0.066,118.947,0.082c1.291,0,2.697-0.353,3.76,0.802c-1.52,4.478-1.545,9.194-1.861,13.808
			C1075.354,1023.496,1076.51,1033.263,1078.075,1042.973z"/>
		<path fill-rule="evenodd" clip-rule="evenodd" fill="#FEFEFE" d="M297.238,986.935c-30.641,0.043-61.282,0.027-91.923,0.191
			c-4.545,0.024-4.634-1.431-2.822-4.907c10.07-19.323,18.971-39.245,29.844-58.162c2.698-4.694,3.767-10.294,7.861-14.227
			C269.377,928.013,288.327,953.761,297.238,986.935z"/>
		<path fill-rule="evenodd" clip-rule="evenodd" fill="#FEFEFE" d="M323.93,999.074c30.303-0.013,60.605-0.019,90.908-0.049
			c2.533-0.002,4.853-0.352,2.946,3.597c-5.82,12.047-5.193,24.187,0.671,35.97c2.144,4.305,0.631,4.528-3.093,4.514
			c-30.469-0.121-60.938-0.115-91.407-0.148C324.966,1028.329,326.145,1013.7,323.93,999.074z"/>
		<path fill-rule="evenodd" clip-rule="evenodd" fill="#FEFEFE" d="M299.769,1042.998c-29.3,0.02-58.6-0.029-87.899,0.13
			c-4.458,0.024-5.065-0.86-2.976-4.864c5.791-11.097,5.892-22.583,1.34-34.172c-0.486-1.235-0.957-2.479-1.381-3.737
			c-0.095-0.28,0.042-0.638,0.101-1.269c30.416,0,60.853,0,91.291,0C301.534,1013.738,302.183,1028.385,299.769,1042.998z"/>
		<path fill-rule="evenodd" clip-rule="evenodd" fill="#FEFEFE" d="M1101.848,1000.124c1.416-1.754,3.395-1.054,5.133-1.057
			c27.321-0.044,54.645,0.042,81.966-0.111c4.003-0.021,4.776,0.562,3.11,4.503c-5.068,11.981-4.819,23.982,1.402,35.552
			c1.919,3.567,0.799,4.103-2.663,4.09c-29.32-0.105-58.642-0.098-87.962-0.125c-1.259-7.875-1.92-15.771-2.02-23.774
			C1100.735,1012.784,1102.09,1006.508,1101.848,1000.124z"/>
		<path fill-rule="evenodd" clip-rule="evenodd" fill="#FEFEFE" d="M922.007,769.035c-11.024,0-20.948,0-30.873,0.002
			c-1.59,0.002-2.902-0.735-4.095-1.646c-19.922-15.225-40.654-29.367-60.167-45.135c-1.289-1.043-2.548-2.184-3.584-3.47
			c-1.48-1.838-4.997-3.1-3.765-5.778c1.021-2.219,4.314-1.785,6.795-1.98c25.929-2.032,51.897-0.564,77.844-0.957
			c1.997-0.03,3.996,0.016,5.995,0.01c7.022-0.021,9.827,3.383,8.53,10.337c-1.596,8.552-4.84,16.547-8.235,24.492
			c-3.495,8.178-2.287,12.997,4.675,18.6C917.141,765.13,919.157,766.747,922.007,769.035z"/>
		<path fill-rule="evenodd" clip-rule="evenodd" fill="#FEFEFE" d="M469.962,769.049c-10.501,0-19.819-0.049-29.135,0.033
			c-2.465,0.023-4.48-0.697-6.437-2.165c-19.115-14.333-38.302-28.571-57.375-42.958c-3.033-2.286-5.64-5.148-8.391-7.8
			c-2.593-2.498-1.681-4.163,1.505-4.58c5.083-0.664,10.206-1.383,15.315-1.415c24.462-0.153,48.924-0.093,73.387-0.086
			c5.985,0.002,8.344,3.195,7.658,9.296c-0.983,8.743-4.305,16.674-7.907,24.516c-3.985,8.674-3.575,11.755,3.379,18.494
			C464.187,764.54,466.724,766.372,469.962,769.049z"/>
		<path fill-rule="evenodd" clip-rule="evenodd" fill="#FEFEFE" d="M1148.048,920.082c15.588,20.267,28.613,42.278,43.148,63.259
			c2.19,3.163,1.348,3.767-2.058,3.756c-28.099-0.087-56.197-0.088-84.296-0.115c3.723-11.089,7.659-22.027,13.655-32.22
			C1126.349,941.414,1136.322,930.043,1148.048,920.082z"/>
		<path fill-rule="evenodd" clip-rule="evenodd" fill="#0EC6A6" d="M297.238,986.935c-8.912-33.174-27.861-58.922-57.04-77.104
			c1.938-7.934,6.023-14.896,9.914-21.948c35.676,21.677,59.21,52.545,70.257,92.854c0.562,2.05,0.994,4.135,1.487,6.203
			C313.65,986.937,305.444,986.936,297.238,986.935z"/>
		<path fill-rule="evenodd" clip-rule="evenodd" fill="#0EC6A6" d="M1148.048,920.082c-11.726,9.961-21.699,21.332-29.55,34.68
			c-5.996,10.192-9.933,21.131-13.655,32.22c-8.244-0.01-16.489-0.019-24.733-0.027c0.79-9.703,4.423-18.621,8.111-27.417
			c9.296-22.172,23.746-40.676,41.42-56.812c1.426-1.301,3.724-1.623,4.35-3.81C1140.368,904.847,1144.371,912.356,1148.048,920.082
			z"/>
		<path fill-rule="evenodd" clip-rule="evenodd" fill="#0EC6A6" d="M1101.848,1000.124c0.242,6.384-1.112,12.66-1.033,19.077
			c0.1,8.004,0.761,15.899,2.02,23.774c-8.253-0.001-16.506-0.002-24.758-0.003c-1.566-9.71-2.722-19.477-2.043-29.313
			c0.316-4.613,0.342-9.33,1.861-13.808C1085.879,999.942,1093.863,1000.033,1101.848,1000.124z"/>
		<path fill-rule="evenodd" clip-rule="evenodd" fill="#0EC6A6" d="M299.769,1042.998c2.415-14.613,1.765-29.26,0.475-43.912
			c7.896-0.004,15.791-0.009,23.687-0.013c2.215,14.627,1.037,29.256,0.025,43.884
			C315.893,1042.971,307.831,1042.984,299.769,1042.998z"/>
	</g>
</g>
</svg>
