<?xml version="1.0" encoding="utf-8"?>
<!-- Generator: Adobe Illustrator 16.0.0, SVG Export Plug-In . SVG Version: 6.00 Build 0)  -->
<!DOCTYPE svg PUBLIC "-//W3C//DTD SVG 1.1//EN" "http://www.w3.org/Graphics/SVG/1.1/DTD/svg11.dtd">
<svg version="1.1" id="Layer_1" xmlns="http://www.w3.org/2000/svg" xmlns:xlink="http://www.w3.org/1999/xlink" x="0px" y="0px"
	 width="1400px" height="1400px" viewBox="0 0 1400 1400" enable-background="new 0 0 1400 1400" xml:space="preserve">
<g>
	<path fill="#CCCCCC" d="M700.833,51.729c-359.573,0-652.098,292.54-652.098,652.127c0,359.612,292.525,652.183,652.098,652.183
		c359.587,0,652.126-292.567,652.126-652.183C1352.959,344.269,1060.42,51.729,700.833,51.729z M1174.368,1087.96l0.013,0.043
		c-0.684,0.841-1.362,1.685-2.05,2.521l-0.028-0.099c-0.322,0.378-0.713,0.703-1.166,0.96
		c-11.208,12.074-46.713,51.035-48.763,52.999c-2.56,2.45-5.142,4.879-7.744,7.286
		c-108.815,100.656-254.235,162.282-413.811,162.282c-336.351,0.015-610.012-273.69-610.012-610.098
		c0-336.377,273.663-610.056,610.026-610.056c69.321,0,135.921,11.794,198.073,33.194c9.331,3.957,57.882,23.033,66.97,27.435
		c203.999,98.812,345.012,307.962,345.012,549.426c0,145.409-51.167,279.09-136.399,384.017
		C1174.52,1087.822,1174.477,1087.854,1174.368,1087.96z"/>
</g>
<path fill="none" d="M894.195,125.399"/>
<g transform="translate(0,-1007.3622)">
	<path fill="#CCCCCC" d="M815.851,1945.65c-5.702-1.206-11.868,0.582-15.828,3.403c-3.96,2.82-6.422,6.205-8.437,9.479
		c-4.029,6.552-6.494,13.455-8.3,17.236c-18.324,38.371-18.355,74.887-24.446,119.829c-0.785,5.789,2.116,12.271,5.668,15.555
		c3.553,3.287,7.139,4.702,10.479,5.853c6.677,2.299,13.407,3.376,16.102,4.264c44.51,14.683,90.815,14.004,133.615,19.684
		c51.222,6.801,153.259,18.322,153.259,18.325l10.612,1.184l26.759-133.979l-9.115-3.493c0,0-61.352-23.625-94.341-33.11
		c-64.791-18.605-124.622-29.234-196.026-44.221V1945.65z M812.903,1968.783c70.87,14.843,129.74,25.42,192.534,43.45
		c27.396,7.878,72.945,25.306,83.228,29.209l-18.687,93.479c-12.518-1.419-95.078-10.757-142.189-17.01
		c-45.056-5.978-89.835-5.618-129.445-18.686c-6.062-1.998-12.168-2.929-15.784-4.174c-0.179,0-0.065,0-0.228,0
		c5.768-44.261,6.577-77.07,21.907-109.17c2.621-5.487,4.985-11.512,7.166-15.058c0.782-1.278,1.142-1.58,1.496-1.949
		L812.903,1968.783z"/>
	<path fill="#CCCCCC" d="M1053.242,1560.81c-9.455-0.579-19.146,1.092-27.984,6.62c-25.752,16.106-34.389,44.456-40.911,71.073
		c-6.521,26.62-11.647,52.67-24.628,69.485c-9.724,12.594-29.917,20.4-46.625,37.642c-21.514,22.209-49.963,45.66-60.368,80.375
		c-7.944,26.497-4.805,62.144-0.59,92.388c4.215,30.24,10.159,54.745,10.159,54.745l22.588-5.488c0,0-5.713-23.493-9.752-52.476
		c-4.04-28.982-5.776-63.843-0.182-82.503c7.76-25.885,32.167-47.542,54.789-70.892c11.668-12.042,33.222-19.938,48.395-39.595
		c17.883-23.166,22.534-52.566,28.803-78.15c6.266-25.579,13.443-46.183,30.614-56.921c6.887-4.307,21.765-3.072,32.61,1.812
		c5.972,2.688,12.677,6.738,17.28,11.113c4.604,4.375,6.655,8.458,6.713,11.749c1.255,71.555-32.429,192.261-32.429,192.261
		l22.359,6.351c0,0,34.677-120.008,33.292-199.02c-0.207-11.782-6.673-21.232-13.97-28.166
		c-7.297-6.935-15.867-11.935-23.722-15.466c-7.796-3.513-16.987-6.363-26.442-6.939V1560.81z"/>
	<path fill="#CCCCCC" d="M1108.666,1363.785c-11.127,1.069-20.852,6.625-28.528,13.97c-7.675,7.346-13.55,16.625-15.602,27.212
		c-2.121,10.942-1.099,25.793,0.544,44.902c1.643,19.114,4.357,41.468,7.257,62.866c5.798,42.792,12.337,81.729,12.337,81.729
		l22.859-3.812c0,0-6.462-38.697-12.201-81.048c-2.869-21.178-5.533-43.261-7.121-61.73c-1.587-18.466-1.66-34.337-0.861-38.462
		c0.885-4.564,4.213-10.442,8.845-14.876c4.631-4.432,10.354-7.249,14.695-7.664c4.46-0.419,10.956,1.252,16.464,4.717
		c5.507,3.464,9.736,8.531,11.156,12.608c25.021,71.736,37.224,124.945,54.745,198.158c12.906,53.931,8.298,113.397-5.669,168.271
		c-9.793,38.468-33.249,84.675-53.611,107.086c-46.392,51.058-100.78,128.355-100.78,128.355l18.96,13.382
		c0,0,54.406-76.999,99.01-126.088c24.751-27.239,48.107-74.555,58.917-117.018c14.648-57.539,19.851-120.506,5.761-179.382
		c-17.498-73.113-30.002-127.491-55.424-200.38c-3.711-10.642-11.527-18.867-20.683-24.628c-9.155-5.766-19.922-9.235-31.069-8.166
		V1363.785z"/>
	<path fill="#CCCCCC" d="M587.531,1945.65c-71.404,14.989-131.234,25.614-196.026,44.224c-32.989,9.482-94.339,33.107-94.339,33.107
		l-9.116,3.492l26.759,133.981l10.613-1.186c0,0,102.037-11.523,153.257-18.323c42.801-5.685,89.107-5.003,133.618-19.683h0.046
		c2.694-0.883,9.38-1.975,16.056-4.263c3.338-1.164,6.924-2.564,10.477-5.854c3.552-3.285,6.455-9.769,5.67-15.558
		c-6.092-44.942-6.122-81.456-24.448-119.827c-1.806-3.783-4.271-10.685-8.299-17.235c-2.016-3.274-4.476-6.659-8.437-9.481
		c-3.96-2.818-10.125-4.598-15.829-3.4L587.531,1945.65z M590.48,1968.783c0.355,0.372,0.714,0.673,1.496,1.949
		c2.18,3.546,4.545,9.571,7.167,15.06c15.33,32.102,16.139,64.909,21.906,109.171c-0.162,0-0.046,0-0.227,0
		c-3.617,1.252-9.723,2.182-15.785,4.171c-39.61,13.07-84.389,12.708-129.445,18.688c-47.11,6.254-129.672,15.586-142.19,17.008
		l-18.687-93.478c10.278-3.899,55.775-21.322,83.182-29.207c62.811-18.043,121.694-28.608,192.58-43.453L590.48,1968.783z"/>
	<path fill="#CCCCCC" d="M350.141,1560.81c-9.454,0.582-18.646,3.426-26.442,6.939c-7.855,3.534-16.423,8.531-23.721,15.468
		c-7.298,6.932-13.763,16.382-13.969,28.166c-1.387,79.012,33.291,199.018,33.291,199.018l22.36-6.351
		c0,0-33.685-120.707-32.429-192.262c0.058-3.291,2.108-7.373,6.712-11.749c4.605-4.375,11.309-8.424,17.281-11.111
		c10.846-4.886,25.723-6.123,32.611-1.812c17.17,10.733,24.348,31.34,30.615,56.919c6.268,25.581,10.919,54.984,28.801,78.149
		c15.173,19.658,36.728,27.557,48.394,39.596c22.625,23.352,47.031,45.006,54.79,70.892c5.595,18.66,3.858,53.52-0.181,82.503
		c-4.04,28.981-9.751,52.476-9.751,52.476l22.587,5.488c0,0,5.945-24.502,10.16-54.745c4.216-30.24,7.354-65.891-0.59-92.389
		c-10.405-34.712-38.854-58.166-60.368-80.374c-16.708-17.244-36.902-25.051-46.625-37.642
		c-12.981-16.814-18.106-42.866-24.628-69.485c-6.522-26.62-15.159-54.969-40.91-71.073c-8.838-5.526-18.531-7.202-27.985-6.621
		V1560.81z"/>
	<path fill="#CCCCCC" d="M294.716,1363.785c-11.147-1.069-21.913,2.4-31.069,8.167c-9.156,5.761-16.971,13.986-20.682,24.627
		c-25.422,72.89-37.926,127.264-55.424,200.38c-14.09,58.873-8.887,121.842,5.76,179.381c10.81,42.466,34.167,89.778,58.917,117.019
		c44.604,49.088,99.011,126.087,99.011,126.087l18.959-13.381c0,0-54.389-77.3-100.78-128.356
		c-20.362-22.408-43.818-68.618-53.611-107.086c-13.968-54.87-18.576-114.339-5.669-168.27
		c17.522-73.21,29.724-126.419,54.745-198.158c1.422-4.074,5.65-9.142,11.157-12.608c5.508-3.464,12.004-5.146,16.464-4.717
		c4.34,0.418,10.063,3.235,14.695,7.664c4.632,4.434,7.959,10.312,8.845,14.879c0.799,4.123,0.726,19.994-0.862,38.462
		c-1.587,18.466-4.251,40.552-7.12,61.728c-5.738,42.353-12.201,81.05-12.201,81.05l22.859,3.81c0,0,6.539-38.938,12.337-81.729
		c2.898-21.395,5.613-43.751,7.257-62.863c1.643-19.109,2.664-33.962,0.544-44.902c-2.052-10.587-7.926-19.869-15.603-27.212
		C315.568,1370.41,305.843,1364.854,294.716,1363.785z"/>
	<path fill="#FF0068" d="M810.726,1388.639c-24.665-3.393-50.92,1.534-72.66,13.606c-20.663,11.48-35.746,30.958-46.76,47.305
		c-1.052-1.439-0.866-1.344-2.041-2.9c-6.792-9.055-14.959-19.402-23.949-26.26c-16.129-12.31-35.583-22.222-56.694-25.217
		c-28.832-4.089-62.372-3.477-89.669,13.017l0,0c-25.981,15.703-48.783,42.935-53.337,74.744
		c-6.288,43.899,17.815,85.857,40.775,118.424c23.393,33.182,67.404,68.251,105.996,96.151
		c38.592,27.901,71.753,48.076,71.753,48.076c4.2,2.567,9.562,2.204,13.38-0.902c0,0,88.875-72.129,129.444-115.476
		c26.691-28.52,64.25-56.786,77.149-100.235c9.073-30.567,10.626-68.96-9.07-97.741c-19.161-27.985-54.57-38.544-84.316-42.634
		V1388.639z M807.596,1411.682c26.51,3.643,55.486,14.04,68.261,32.699c13.587,19.854,13.657,52.214,5.986,78.059
		c-10.047,33.839-43.252,60.437-71.797,90.936c-35.834,38.287-112.768,101.081-120.874,107.722
		c-5.602-3.452-29.182-17.742-63.179-42.318c-37.782-27.313-80.899-62.748-100.645-90.755
		c-21.798-30.921-41.486-68.583-36.738-101.731c3.202-22.366,21.721-45.716,42.362-58.194c20.031-12.103,48.542-13.596,74.383-9.932
		c15.925,2.252,32.174,10.241,45.854,20.683c4.768,3.638,13.168,13.338,19.458,21.727c6.289,8.386,10.931,15.512,10.931,15.512
		c3.52,5.36,10.719,6.853,16.08,3.332c1.497-0.982,2.746-2.299,3.649-3.842h0.047c8.096-13.854,29.439-42.675,47.986-52.977
		c17.007-9.45,38.927-13.542,58.236-10.886L807.596,1411.682z"/>
</g>
</svg>
