<?xml version="1.0" encoding="utf-8"?>
<!-- Generator: Adobe Illustrator 16.0.0, SVG Export Plug-In . SVG Version: 6.00 Build 0)  -->
<!DOCTYPE svg PUBLIC "-//W3C//DTD SVG 1.1//EN" "http://www.w3.org/Graphics/SVG/1.1/DTD/svg11.dtd">
<svg version="1.1" id="Layer_1" xmlns="http://www.w3.org/2000/svg" xmlns:xlink="http://www.w3.org/1999/xlink" x="0px" y="0px"
	 width="2000px" height="2000px" viewBox="0 0 2000 2000" enable-background="new 0 0 2000 2000" xml:space="preserve">
<g>
	<path fill="#0EC7A7" d="M967.935,51.688c19.925,0,39.851,0,59.777,0c2.058,0.248,4.109,0.651,6.174,0.722
		c60.842,2.069,121.021,9.643,180.219,23.719c222.836,52.99,405.321,169.699,546.105,350.19
		c112.536,144.277,177.378,308.405,196.696,490.373c5.505,51.851,6.433,103.854,3.363,155.945
		c-3.416,58.019-11.491,115.357-25.646,171.697c-54.731,217.826-170.625,396.319-347.719,534.215
		c-144.236,112.312-308.215,177.071-490.008,196.364c-51.852,5.503-103.854,6.435-155.945,3.354
		c-53.822-3.183-107.063-10.423-159.524-22.757c-196.138-46.114-362.121-143.947-497.94-292.555
		c-78.787-86.205-139.396-184.051-182.418-292.684c-37.836-95.537-59.706-194.62-65.624-297.217
		c-0.526-9.117-1.169-18.229-1.758-27.343c0-19.926,0-39.851,0-59.777c0.254-2.214,0.663-4.423,0.74-6.644
		c1.226-35.178,4.547-70.154,9.647-104.983c10.999-75.104,30.623-147.872,59.116-218.208
		c58.39-144.141,146.467-267.205,263.819-369.128c94.781-82.319,201.787-143.708,320.668-184.206
		c82.045-27.95,166.363-44.374,252.908-49.324C949.706,52.923,958.819,52.277,967.935,51.688z M997.772,1856.479
		c463.872,0.012,840.648-376.716,840.714-840.607c0.066-463.817-376.706-840.628-840.612-840.699
		c-463.84-0.072-840.568,376.607-840.712,840.604C157.018,1479.511,533.932,1856.466,997.772,1856.479z"/>
	<path fill-rule="evenodd" clip-rule="evenodd" fill="#FFFFFF" d="M33.687,1045.714c0.589,9.114,1.232,18.226,1.758,27.343
		c5.918,102.597,27.787,201.68,65.624,297.217c43.023,108.633,103.631,206.479,182.418,292.684
		c135.819,148.607,301.802,246.44,497.94,292.555c52.461,12.334,105.703,19.574,159.524,22.757
		c52.091,3.08,104.094,2.148,155.945-3.354c181.793-19.293,345.771-84.052,490.008-196.364
		c177.094-137.896,292.987-316.389,347.719-534.215c14.155-56.34,22.23-113.679,25.646-171.697
		c3.069-52.092,2.142-104.095-3.363-155.945c-19.318-181.967-84.16-346.096-196.696-490.373
		c-140.784-180.491-323.27-297.201-546.105-350.19c-59.198-14.076-119.377-21.65-180.219-23.719
		c-2.064-0.071-4.116-0.474-6.174-0.722c311.737,0,623.476,0,935.212,0c0,643.079,0,1286.158,0,1929.237
		c-643.079,0-1286.157,0-1929.236,0C33.687,1669.189,33.687,1357.451,33.687,1045.714z"/>
	<path fill-rule="evenodd" clip-rule="evenodd" fill="#FFFFFF" d="M967.935,51.688c-9.116,0.589-18.229,1.234-27.35,1.755
		c-86.545,4.95-170.863,21.374-252.908,49.324c-118.882,40.498-225.887,101.887-320.668,184.206
		C249.657,388.896,161.58,511.96,103.19,656.102C74.697,726.438,55.073,799.206,44.074,874.31
		c-5.1,34.83-8.421,69.805-9.647,104.983c-0.077,2.22-0.486,4.429-0.74,6.644c0-311.416,0-622.832,0-934.249
		C345.103,51.688,656.519,51.688,967.935,51.688z"/>
	<g>
		<path fill-rule="evenodd" clip-rule="evenodd" fill="#0EC7A7" d="M198.979,1002.625
			c74.268-157.897,148.888-315.638,222.567-473.818c18.897-40.559,29.848-46.048,68.703-26.652
			c18.747,9.363,37.37,18.966,56.065,28.424c50.699,25.652,54.939,36.44,31.916,86.718
			C524.912,733.72,471.25,849.978,417.758,966.324c-17.022,37.022-31.738,75.362-52.034,110.489
			c-7.566,13.084-33.356,29.869-41.751,25.879c-43.287-20.604-83.627-47.398-124.994-72.031
			C198.979,1021.316,198.979,1011.969,198.979,1002.625z"/>
		<path fill-rule="evenodd" clip-rule="evenodd" fill="#0EC7A7" d="M1775.912,1030.66c-41.777,23.668-82.082,50.738-125.898,69.676
			c-24.941,10.773-38.453-14.777-48.074-35.459c-52.023-111.865-103.66-223.914-155.891-335.675
			c-19.719-42.202-39.834-84.26-61.346-125.559c-14.992-28.78-8.938-48.848,19.561-63.146
			c21.869-10.979,43.629-22.162,65.471-33.195c47.219-23.846,58.928-20.156,81.305,26.693
			c38.631,80.873,76.758,161.984,115.512,242.795c36.17,75.418,72.887,150.568,109.361,225.834
			C1775.912,1011.969,1775.912,1021.316,1775.912,1030.66z"/>
		<path fill-rule="evenodd" clip-rule="evenodd" fill="#0EC7A7" d="M1441.104,1387.463
			c-13.779,85.512-39.732,109.324-123.061,114.422c-31.107,97.014-83.039,117.936-174.416,70.271
			c-52.922,66.273-88.371,76.779-155.734,44.742c-25.806,29.957-50.281,68.129-99.273,50.502
			c-37.024-13.316-47.65-45.096-45.08-86.621c-33.958,28.645-67.229,48.342-107.155,18.691
			c-32.613-24.221-40.686-55.246-21.344-99.57c-39.128,24.354-72.865,32.188-106.593,4.969
			c-32.929-26.57-32.794-61.371-26.583-87.723c-27.356,0-56.794,6.508-81.714-1.328c-55.121-17.344-69.729-64.926-39.037-114.109
			c17.864-28.629,38.253-55.68,58.41-84.738c-18.918-25.592-37.462-50.766-56.1-75.869c-35.525-47.852-35.549-47.834-0.055-103.316
			c28.634,37.678,55.665,75.658,85.623,111.166c8.802,10.438,25.673,19.02,39.239,19.621c55.134,2.426,82.98,26.545,81.454,81.859
			c-0.872,31.717,7.738,43.166,40.697,43.291c36.545,0.137,65.397,29.088,69.935,66.342c3.542,29.074,15.766,40.17,45.416,38
			c33.516-2.445,51.944,19.561,66.971,47.104c10.564,19.361,23.363,38.828,39.468,53.533c25.742,23.52,54.269,44.305,83.25,63.811
			c11.656,7.844,28.334,14.074,41.43,12.164c11.164-1.639,24.773-14.293,29.105-25.297c2.967-7.535-5.389-23.826-13.404-30.656
			c-35.498-30.266-73.765-57.336-108.592-88.297c-9.452-8.4-10.386-26.381-15.232-39.959c15.526-0.246,35.402-6.844,45.864,0.307
			c62.537,42.771,122.804,88.84,184.039,133.521c30.674,22.387,52.195,21.725,70.143-1.24c18.27-23.373,12.516-54.664-15.6-76.088
			c-64.957-49.506-130.418-98.346-195.697-147.428c-16.023-12.045-36.279-24.316-19.867-47.457
			c16.566-23.359,34.201-8.455,50.666,3.723c76.916,56.85,153.98,113.5,231.045,170.15c31.523,23.174,53.236,23.887,70.494,2.6
			c21.48-26.5,16.723-53.379-14.826-77.441c-85.332-65.104-170.746-130.104-256.574-194.543
			c-18.029-13.533-36.941-29.686-20.795-50.855c17.066-22.373,37.855-4.51,54.619,7.891
			c88.15,65.199,176.045,130.748,264.133,196.043c34.838,25.818,62.164,26.242,83.576,1.834
			c23.859-27.199,21.012-65.943-8.859-93.232c-138.791-126.766-277.678-253.425-417.244-379.34
			c-48.414-43.673-127.452-16.31-142.985,49.587c-16.32,69.238-54.716,118.558-123.669,138.243
			c-20.78,5.934-46.583,3.564-67.667-2.889c-38.92-11.924-45.669-35.284-31.918-73.502c9.763-27.159,15.779-55.801,21.737-84.144
			c9.849-46.836,18.298-93.959,27.733-143.013c-38.516,0-86.426,0-139.918,0c9.346-21.881,14.075-40.368,24.471-54.761
			c7.31-10.123,22.146-20.341,33.952-20.738c60.651-2.06,121.432-0.027,182.117-1.54c17.85-0.445,37.339-4.346,52.992-12.553
			c89.281-46.794,179.888-46.151,274.372-17.118c50.857,15.626,104.51,22.018,156.564,34.03
			c10.432,2.409,24.188,9.103,28.238,17.679c66.1,140.007,131.941,280.159,194.459,421.781c6.893,15.613-4.467,41.348-11.887,60.646
			c-7.986,20.781-9.834,36.229,2.645,57.85C1580.119,1286.527,1539.438,1363.109,1441.104,1387.463z"/>
	</g>
</g>
</svg>
