<?xml version="1.0" encoding="utf-8"?>
<!-- Generator: Adobe Illustrator 16.0.0, SVG Export Plug-In . SVG Version: 6.00 Build 0)  -->
<!DOCTYPE svg PUBLIC "-//W3C//DTD SVG 1.1//EN" "http://www.w3.org/Graphics/SVG/1.1/DTD/svg11.dtd">
<svg version="1.1" id="Layer_1" xmlns="http://www.w3.org/2000/svg" xmlns:xlink="http://www.w3.org/1999/xlink" x="0px" y="0px"
	 width="1400px" height="1400px" viewBox="0 0 1400 1400" enable-background="new 0 0 1400 1400" xml:space="preserve">
<g>
	<path fill="none" d="M704.876,1379.74c-223.493,0-446.987-0.119-670.48,0.301c-13.118,0.023-17.6-1.236-17.579-16.603
		c0.587-447.782,0.557-895.567,0.086-1343.349C16.889,6.443,20.178,4.429,32.997,4.44c447.782,0.403,895.567,0.476,1343.349-0.214
		c16.495-0.023,16.108,5.998,16.104,18.045c-0.229,446.987-0.291,893.975,0.24,1340.962c0.016,14.786-3.648,16.889-17.332,16.858
		C1151.863,1379.596,928.37,1379.74,704.876,1379.74z M675.627,1084.967c73.944,0,147.887,0.005,221.832-0.002
		c23.058-0.003,46.114,0.098,69.172-0.094c34.476-0.286,35.289-1.145,35.356-34.431c0.032-16.698,0.017-33.396-0.149-50.092
		c-0.079-7.954-0.921-15.154-7.42-21.633c-37.268-37.146-40.953-101.948-4.154-128.371c10.411-7.477,11.88-17.449,9.973-29.528
		c-7.995-50.675-33.27-90.006-74.895-119.816c-16.502-11.819-28.216-12.747-45.522,1.518c-79.86,65.819-199.46,67.577-274.11-0.395
		c-29.717-27.057-59.071-33.104-94.614-29.852c-63.09,5.77-111.018,35.2-141.808,91.451c-9.238,16.88-6.562,24.733,14.094,24.386
		c32.589-0.548,65.195,0.098,97.794-0.096c18.397-0.111,34.163,5.938,47.856,18.088c26.3,23.332,35.606,63.856,19.127,101.041
		c-13.357,30.139-39.902,44.763-72.657,45.793c-30.979,0.972-62.011,0.214-93.02,0.345c-32.023,0.136-32.365,0.492-32.557,31.464
		c-0.1,16.695-0.028,33.394-0.025,50.091c0.002,50.118,0.002,50.129,49.038,50.134
		C491.167,1084.977,583.398,1084.972,675.627,1084.967z M704.405,1213.141c203.551,0,407.102,0,610.652-0.008
		c7.949,0,15.907,0.126,23.85-0.146c21.873-0.751,36.401-10.648,39.319-33.422c6.833-53.334-0.827-77.718-27.456-84.289
		c-10.591-2.613-22.078-2.138-33.155-2.143c-407.895-0.096-815.789-0.084-1223.683-0.067c-8.742,0-17.504-0.059-26.225,0.447
		c-11.651,0.679-23.041,4.551-28.461,14.924c-14.031,26.851-12.18,56.344-3.516,83.262c7.669,23.817,32.35,21.477,53.25,21.47
		C294.122,1213.117,499.265,1213.138,704.405,1213.141z M949.768,533.134c0.403-115.063-92.036-209.143-206.013-209.677
		c-114.112-0.532-209.884,93.073-210.957,206.182c-1.077,113.711,94.91,210.89,208.669,211.263
		C855.391,741.272,949.366,647.538,949.768,533.134z M438.061,42.392c-112.098-0.753-209.015,89.823-204.793,214.833
		C237.993,397.194,377.53,487.614,509.93,440.87c39.042-13.787,118.686-99.153,129.075-138.354
		C673.644,171.828,573.906,42.715,438.061,42.392z M538.095,446.462c-12.712,4.063-19.407,6.222-26.111,8.341
		c-81.728,25.838-155.56,10.926-220.312-44.791c-13.36-11.497-20.542-9.392-30.941,2.17
		c-64.295,71.479-129.271,142.349-193.408,213.968c-19.479,21.754-24.083,47.315-14.26,75.61
		c21.896,63.079,43.035,126.416,64.671,189.583c9.786,28.572,19.127,57.346,30.312,85.373c10.28,25.76,35.786,41.852,61.95,40.464
		c26.911-1.426,46.406-14.973,57.976-39.358c7.17-15.11,4.807-24.12-14.693-23.95c-22.959,0.198-46.143,2.215-68.636-5.152
		c-34.634-11.341-53.227-39.758-52.854-81.354c0.331-37.019,21.232-67.621,52.6-77.021c35.543-10.648,35.562-10.656,22.936-45.695
		c-2.156-5.981-4.296-11.994-6.896-17.786c-5.152-11.483-3.135-20.439,5.818-30.007c28.23-30.158,55.36-61.342,83.164-91.903
		c14.015-15.407,28.563-30.331,42.87-45.471c2.117,0.669,4.236,1.338,6.355,2.007c0,73.69,0,147.382,0,223.272
		c5.669-3.105,7.55-3.506,8.275-4.646c2.541-3.993,5.012-8.094,6.923-12.413c19.638-44.368,52.414-75.07,96.878-93.814
		c23.824-10.045,48.83-13.868,74.421-14.383c33.89-0.683,33.991-0.564,18.491-31.811c-13.285-26.783-20.176-54.85-20.612-84.926
		C522.56,511.606,524.865,481.015,538.095,446.462z M343.703,941.403c42.084,0,84.173,0.329,126.252-0.088
		c45.464-0.45,73.358-26.974,73.846-69.319c0.52-45.129-25.724-73.916-71.366-74.427c-85.746-0.962-171.519-0.943-257.262,0.03
		c-43.395,0.494-73.046,31.249-72.837,71.907c0.222,42.899,29.557,71.312,75.114,71.801
		C259.53,941.76,301.619,941.403,343.703,941.403z M961.747,485.059c0,12.343-0.354,18.507,0.059,24.619
		c2.333,34.527,0.363,68.888-14.144,100.507c-10.042,21.885-19.311,40.497,9.455,54.919c4.101,2.058,6.492,8.935,8.208,14.071
		c5.393,16.134,17.036,23.312,32.916,27.384c53.101,13.616,105.473,30.55,159.075,41.593c45.459,9.361,73.988,33.729,94.781,74.31
		c28.841,56.276,11.174,107.066-48.422,127.395c-5.267,1.795-10.523,3.608-15.799,5.373c-16.225,5.425-15.485,13.945-3.767,23.468
		c6.091,4.951,12.765,9.642,19.917,12.746c33.993,14.759,75.918,2.558,100.279-28.598c22.507-28.787,23.344-66.629,0.995-97.32
		c-55.199-75.798-113.226-149.667-165.542-227.392C1094.904,571.488,1027.289,534.759,961.747,485.059z M1054.694,984.905
		c52.117-16.216,115.429-29.62,172.397-60.13c27.969-14.978,33.839-51.772,19.414-84.928
		c-14.024-32.233-44.751-50.379-76.855-40.959c-51.791,15.202-103.2,32.002-153.902,50.505
		c-32.664,11.921-46.73,44.798-38.699,80.413C984.909,964.666,1010.174,985.255,1054.694,984.905z M965.281,710.406
		c0.019,12.434,6.532,17.591,11.122,23.594c17.241,22.544,29.253,47.632,32.57,75.775c2.527,21.438,10.376,26.599,31.145,18.947
		c38-14,77.022-25.199,115.316-38.449c15.547-5.381,32.429-3.882,48.477-10.569C1125.817,751.152,1046.223,731.854,965.281,710.406z
		"/>
	<path fill-rule="evenodd" clip-rule="evenodd" fill="#CCCCCC" d="M675.029,1085.734c-92.229,0.002-184.461,0.008-276.69-0.002
		c-49.036-0.006-49.036-0.016-49.038-50.135c-0.002-16.697-0.075-33.395,0.025-50.09c0.191-30.973,0.534-31.328,32.557-31.465
		c31.009-0.131,62.041,0.627,93.02-0.344c32.755-1.031,59.3-15.654,72.657-45.793c16.479-37.186,7.173-77.709-19.127-101.041
		c-13.693-12.15-29.459-18.199-47.856-18.088c-32.599,0.193-65.205-0.453-97.794,0.096c-20.656,0.348-23.333-7.506-14.094-24.387
		c30.79-56.25,78.718-85.681,141.808-91.45c35.543-3.252,64.897,2.795,94.614,29.853c74.65,67.971,194.25,66.213,274.11,0.395
		c17.307-14.265,29.021-13.337,45.522-1.518c41.625,29.811,66.899,69.141,74.895,119.816c1.907,12.078,0.438,22.051-9.973,29.527
		c-36.799,26.424-33.113,91.225,4.154,128.371c6.499,6.479,7.341,13.68,7.42,21.633c0.166,16.697,0.182,33.395,0.149,50.092
		c-0.067,33.287-0.881,34.145-35.356,34.432c-23.058,0.191-46.114,0.09-69.172,0.094
		C822.916,1085.736,748.973,1085.732,675.029,1085.734z"/>
	<path fill-rule="evenodd" clip-rule="evenodd" fill="#CCCCCC" d="M703.807,1213.902c-205.141,0-410.283-0.02-615.424,0.031
		c-20.901,0.006-45.581,2.348-53.25-21.471c-8.665-26.918-10.516-56.41,3.516-83.262c5.42-10.373,16.81-14.244,28.461-14.924
		c8.721-0.506,17.483-0.447,26.225-0.447c407.894-0.016,815.788-0.027,1223.683,0.068c11.077,0.004,22.564-0.471,33.155,2.143
		c26.629,6.57,34.289,30.955,27.456,84.289c-2.918,22.773-17.446,32.67-39.319,33.422c-7.942,0.271-15.9,0.146-23.85,0.146
		C1110.908,1213.906,907.357,1213.906,703.807,1213.902z"/>
	<path fill-rule="evenodd" clip-rule="evenodd" fill="#CCCCCC" d="M949.169,533.899c-0.401,114.403-94.377,208.138-208.3,207.769
		C627.11,741.295,531.123,644.116,532.2,530.405c1.072-113.109,96.845-206.714,210.957-206.182
		C857.133,324.756,949.572,418.836,949.169,533.899z"/>
	<path fill-rule="evenodd" clip-rule="evenodd" fill="#CCCCCC" d="M437.462,43.157c135.845,0.324,235.583,129.437,200.944,260.125
		c-10.39,39.201-90.033,124.567-129.075,138.354c-132.399,46.744-271.937-43.676-276.662-183.645
		C228.447,132.98,325.364,42.404,437.462,43.157z"/>
	<path fill-rule="evenodd" clip-rule="evenodd" fill="#CCCCCC" d="M537.496,447.228c-13.229,34.552-15.535,65.144-15.083,96.307
		c0.436,30.076,7.327,58.143,20.612,84.926c15.5,31.247,15.399,31.127-18.491,31.811c-25.591,0.515-50.597,4.338-74.421,14.383
		c-44.464,18.745-77.24,49.446-96.878,93.815c-1.911,4.318-4.382,8.42-6.923,12.412c-0.725,1.141-2.606,1.541-8.275,4.646
		c0-75.891,0-149.582,0-223.272c-2.119-0.669-4.238-1.338-6.355-2.007c-14.306,15.141-28.855,30.064-42.87,45.471
		c-27.804,30.561-54.933,61.745-83.164,91.903c-8.954,9.567-10.97,18.524-5.818,30.006c2.599,5.793,4.739,11.805,6.896,17.787
		c12.625,35.039,12.607,35.047-22.936,45.695c-31.368,9.398-52.269,40.002-52.6,77.02c-0.373,41.598,18.22,70.014,52.854,81.355
		c22.493,7.367,45.676,5.35,68.636,5.152c19.5-0.17,21.864,8.84,14.693,23.949c-11.569,24.387-31.065,37.934-57.976,39.359
		c-26.165,1.387-51.67-14.705-61.95-40.465c-11.185-28.027-20.525-56.801-30.312-85.373C95.5,828.943,74.361,765.605,52.464,702.527
		c-9.823-28.295-5.219-53.856,14.26-75.611c64.137-71.62,129.113-142.489,193.408-213.968c10.399-11.562,17.582-13.667,30.941-2.17
		c64.752,55.717,138.584,70.629,220.312,44.791C518.089,453.449,524.784,451.291,537.496,447.228z"/>
	<path fill-rule="evenodd" clip-rule="evenodd" fill="#CCCCCC" d="M343.104,942.168c-42.084,0-84.173,0.357-126.252-0.096
		c-45.558-0.488-74.893-28.9-75.114-71.801c-0.209-40.658,29.442-71.412,72.837-71.906c85.744-0.975,171.516-0.992,257.262-0.031
		c45.642,0.512,71.886,29.299,71.366,74.428c-0.487,42.346-28.382,68.869-73.846,69.318
		C427.277,942.498,385.188,942.168,343.104,942.168z"/>
	<path fill-rule="evenodd" clip-rule="evenodd" fill="#CCCCCC" d="M961.148,485.824c65.542,49.7,133.157,86.429,178.013,153.075
		c52.316,77.724,110.343,151.593,165.542,227.392c22.349,30.691,21.512,68.533-0.995,97.32
		c-24.361,31.154-66.286,43.355-100.279,28.598c-7.152-3.105-13.826-7.795-19.917-12.746c-11.719-9.523-12.458-18.043,3.767-23.469
		c5.275-1.764,10.532-3.578,15.799-5.373c59.596-20.328,77.263-71.117,48.422-127.395c-20.793-40.58-49.322-64.947-94.781-74.309
		c-53.603-11.043-105.975-27.977-159.075-41.594c-15.88-4.072-27.523-11.25-32.916-27.383c-0.751-2.247-5.901-12.913-8.208-14.071
		c-28.766-14.423-19.497-33.035-9.455-54.919c14.507-31.62,16.477-65.98,14.144-100.507
		C960.794,504.331,961.148,498.167,961.148,485.824z"/>
	<path fill-rule="evenodd" clip-rule="evenodd" fill="#CCCCCC" d="M1054.096,985.67c-44.521,0.35-69.785-20.238-77.646-55.098
		c-8.031-35.615,6.035-68.492,38.699-80.414c50.702-18.502,102.111-35.303,153.902-50.504c32.104-9.42,62.831,8.725,76.855,40.959
		c14.425,33.154,8.555,69.949-19.414,84.928C1169.524,956.051,1106.213,969.455,1054.096,985.67z"/>
	<path fill-rule="evenodd" clip-rule="evenodd" fill="#CCCCCC" d="M964.683,711.172c80.941,21.447,160.536,40.746,238.63,69.297
		c-16.048,6.688-32.93,5.189-48.477,10.57c-38.294,13.25-77.316,24.449-115.316,38.449c-20.769,7.65-28.617,2.49-31.145-18.947
		c-3.317-28.145-15.329-53.232-32.57-75.775C971.215,728.762,964.701,723.605,964.683,711.172z"/>
</g>
<g>
	<path fill="none" d="M571.624,847.236c16.437,0,32.872,0.003,49.308-0.014c0.487,0,0.583,0.096,0.583,0.583
		c-0.015,29.077-0.015,58.154,0,87.231c0,0.486-0.096,0.582-0.583,0.582c-32.871-0.015-65.743-0.015-98.615,0
		c-0.487,0-0.583-0.096-0.583-0.583c0.015-29.077,0.015-58.153,0-87.23c0-0.487,0.096-0.583,0.583-0.583
		C538.753,847.239,555.188,847.236,571.624,847.236z M571.576,848.468c-23.473-0.141-42.713,19.19-42.791,42.588
		c-0.078,23.553,19.212,42.888,42.706,42.918c23.519,0.03,42.807-19.245,42.827-42.725
		C614.34,867.709,595.029,848.352,571.576,848.468z"/>
	<path fill-rule="evenodd" clip-rule="evenodd" fill="none" d="M543.694,869.604c-0.032-0.393,0.207-0.711,0.472-1.025
		c3.688-4.374,8.131-7.773,13.277-10.259c0.915-0.441,1.703-0.24,2.089,0.505c0.394,0.762,0.07,1.556-0.878,2.008
		c-4.465,2.125-8.321,5.059-11.642,8.712c-0.35,0.385-0.668,0.805-1.048,1.156c-0.408,0.377-0.902,0.503-1.444,0.25
		C544.002,870.708,543.689,870.226,543.694,869.604z"/>
	<path fill-rule="evenodd" clip-rule="evenodd" fill="none" d="M561.347,857.524c0.018-0.522,0.401-0.946,1.054-1.161
		c2.234-0.733,4.524-1.228,6.854-1.538c1.645-0.219,3.297-0.339,4.959-0.312c1.025,0.016,1.672,0.523,1.687,1.335
		c0.014,0.833-0.668,1.44-1.694,1.438c-3.703-0.009-7.308,0.598-10.839,1.687C562.241,859.318,561.346,858.741,561.347,857.524z"/>
	<path fill-rule="evenodd" clip-rule="evenodd" fill="none" d="M534.859,892.727c0.075-2.497,0.41-5.048,0.995-7.568
		c0.146-0.634,0.479-1.081,1.159-1.175c1.019-0.143,1.8,0.63,1.579,1.634c-0.604,2.761-0.98,5.542-0.968,8.373
		c0.004,0.925-0.631,1.565-1.418,1.562c-0.79-0.003-1.33-0.642-1.347-1.6C534.854,893.574,534.859,893.195,534.859,892.727z"/>
	<path fill-rule="evenodd" clip-rule="evenodd" fill="none" d="M540.625,877.827c-1.032,0.01-1.708-0.818-1.423-1.722
		c0.229-0.724,0.629-1.386,1.087-1.989c0.42-0.553,1.141-0.641,1.729-0.295c0.581,0.341,0.866,1.023,0.595,1.65
		c-0.272,0.627-0.616,1.228-0.972,1.813C541.405,877.676,541.003,877.835,540.625,877.827z"/>
</g>
<g>
	<path fill="none" d="M561.522,835.511c20.248,0,40.496,0.003,60.744-0.017c0.601-0.001,0.719,0.117,0.719,0.719
		c-0.019,35.873-0.019,71.746,0,107.619c0,0.602-0.118,0.72-0.719,0.719c-40.496-0.018-80.993-0.018-121.489,0
		c-0.601,0.001-0.719-0.117-0.719-0.719c0.019-35.873,0.019-71.746,0-107.619c0-0.602,0.118-0.72,0.719-0.719
		C521.026,835.514,541.274,835.511,561.522,835.511z M561.55,837.029c-28.958-0.173-52.697,23.676-52.792,52.544
		c-0.097,29.057,23.703,52.911,52.688,52.948c29.016,0.037,52.812-23.744,52.838-52.712
		C614.31,860.768,590.485,836.886,561.55,837.029z"/>
	<path fill-rule="evenodd" clip-rule="evenodd" fill="none" d="M527.151,863.104c-0.039-0.483,0.256-0.876,0.583-1.264
		c4.55-5.397,10.031-9.591,16.38-12.657c1.129-0.545,2.102-0.296,2.577,0.623c0.486,0.939,0.087,1.92-1.083,2.477
		c-5.508,2.623-10.266,6.242-14.362,10.749c-0.432,0.476-0.824,0.991-1.294,1.426c-0.503,0.466-1.112,0.621-1.782,0.309
		C527.532,864.468,527.146,863.873,527.151,863.104z"/>
	<path fill-rule="evenodd" clip-rule="evenodd" fill="none" d="M548.93,848.203c0.022-0.645,0.495-1.168,1.3-1.433
		c2.757-0.905,5.582-1.515,8.455-1.897c2.029-0.271,4.068-0.418,6.118-0.386c1.265,0.02,2.063,0.646,2.081,1.647
		c0.018,1.027-0.823,1.776-2.09,1.773c-4.569-0.011-9.015,0.738-13.373,2.081C550.034,850.417,548.928,849.705,548.93,848.203z"/>
	<path fill-rule="evenodd" clip-rule="evenodd" fill="none" d="M516.252,891.634c0.092-3.081,0.506-6.229,1.227-9.338
		c0.181-0.782,0.592-1.334,1.43-1.45c1.257-0.175,2.221,0.778,1.949,2.017c-0.747,3.406-1.21,6.836-1.195,10.33
		c0.005,1.141-0.777,1.932-1.749,1.928c-0.974-0.004-1.641-0.792-1.661-1.974C516.245,892.68,516.252,892.212,516.252,891.634z"/>
	<path fill-rule="evenodd" clip-rule="evenodd" fill="none" d="M523.365,873.252c-1.273,0.012-2.108-1.01-1.754-2.125
		c0.283-0.893,0.775-1.709,1.34-2.453c0.518-0.684,1.407-0.791,2.134-0.364c0.717,0.421,1.068,1.262,0.733,2.035
		c-0.335,0.774-0.76,1.516-1.198,2.238C524.327,873.065,523.831,873.261,523.365,873.252z"/>
</g>
<g>
	<g>
		<path fill="#FF0068" d="M575.06,910.314c15.371,4.049,31.025,6.75,46.66,9.543c13.398,2.395,28.636,8.578,42.134,4.188
			c12.346-4.017,17.449-16.781,22.184-27.691c5.488-12.644,12.755-24.796,20.328-36.293c11.03-16.745,29.389-42.614,52.178-38.273
			c15.884,3.026,20.901,25.46,23.849,40.876c1.314,6.871,2.473,13.869,3.156,20.833c0.94,9.581,0.088,19.255,0.962,28.85
			c0.846,9.289,3.452,17.458,9.515,24.638c5.048,5.978,12.507,10.035,19.581,13.084c14.02,6.04,28.861,8.755,43.652,12.143
			c25.056,5.739,48.758-0.924,73.51-4.748c4.855-0.751,7.472-6.759,6.286-11.071c-1.412-5.133-6.228-7.034-11.071-6.286
			c-14.771,2.282-29.334,6.139-44.323,6.699c-11.294,0.422-22.141-2.461-33.076-4.868c-15.154-3.335-40.209-7.884-45.011-24.07
			c-3.229-10.886-1.146-23.166-2.024-34.369c-0.795-10.125-2.661-20.446-4.754-30.375c-4.062-19.267-11.989-39.67-31.506-47.532
			c-17.126-6.899-36.911,2.154-49.973,13.095c-7.563,6.335-13.677,14.358-19.447,22.294c-7.019,9.652-13.284,19.67-19.098,30.09
			c-4.584,8.216-8.247,16.657-12.284,25.13c-1.503,3.154-3.138,6.458-5.505,9.055c-2.637,2.893-7.502,2.618-11.013,2.07
			c-10.974-1.713-21.884-4.536-32.841-6.493c-12.511-2.235-24.989-4.633-37.284-7.872
			C568.608,889.997,563.845,907.359,575.06,910.314L575.06,910.314z"/>
	</g>
</g>
<g>
	<path fill-rule="evenodd" clip-rule="evenodd" fill="#0EC7A7" d="M554.48,954.86c-32.652-0.031-59.181-26.638-59.115-59.29
		c0.065-32.611,26.645-59.093,59.26-59.042c32.608,0.051,59.116,26.633,59.071,59.236
		C613.652,928.375,587.082,954.892,554.48,954.86z"/>
	<path fill-rule="evenodd" clip-rule="evenodd" fill="#FEFEFE" d="M538.188,851.67c0.002,1.023-0.585,1.603-1.455,2.014
		c-3.966,1.872-7.612,4.242-10.969,7.062c-2.219,1.864-4.258,3.906-6.136,6.113c-0.99,1.164-2.207,1.364-3.158,0.538
		c-0.926-0.805-0.927-2.029,0.018-3.142c5.15-6.065,11.314-10.82,18.488-14.263C536.611,849.207,538.178,850.034,538.188,851.67z"/>
	<path fill-rule="evenodd" clip-rule="evenodd" fill="#FEFEFE" d="M556.438,844.678c0.723,0,1.447-0.034,2.167,0.008
		c1.229,0.07,2.064,0.948,2.04,2.087c-0.024,1.134-0.895,1.979-2.129,1.984c-5.292,0.024-10.456,0.843-15.506,2.419
		c-1.186,0.371-2.292-0.16-2.648-1.209c-0.395-1.164,0.182-2.262,1.48-2.679C546.588,845.763,551.453,844.91,556.438,844.678z"/>
	<path fill-rule="evenodd" clip-rule="evenodd" fill="#FEFEFE" d="M503.536,897.44c0.154-3.258,0.598-6.472,1.294-9.651
		c0.049-0.224,0.104-0.447,0.168-0.667c0.336-1.167,1.292-1.818,2.34-1.599c1.175,0.246,1.894,1.266,1.61,2.514
		c-0.883,3.89-1.33,7.821-1.362,11.809c-0.01,1.101-0.887,1.923-1.944,1.962c-1.065,0.039-1.98-0.698-2.09-1.81
		C503.47,899.153,503.536,898.293,503.536,897.44z"/>
	<path fill-rule="evenodd" clip-rule="evenodd" fill="#FEFEFE" d="M509.492,875.116c0.372-1.23,0.934-2.598,2.084-3.566
		c0.675-0.568,1.55-0.481,2.276,0.075c0.747,0.574,1.084,1.366,0.704,2.25c-0.397,0.926-0.884,1.828-1.451,2.658
		c-0.501,0.731-1.288,0.986-2.171,0.694C510.027,876.929,509.555,876.284,509.492,875.116z"/>
	<g>
		<path fill-rule="evenodd" clip-rule="evenodd" fill="#0EC7A7" d="M958.618,883.136c32.652,0.031,59.181,26.638,59.115,59.29
			c-0.065,32.611-26.645,59.093-59.26,59.042c-32.608-0.051-59.116-26.633-59.071-59.236
			C899.446,909.621,926.017,883.104,958.618,883.136z"/>
		<path fill-rule="evenodd" clip-rule="evenodd" fill="#FEFEFE" d="M974.911,986.326c-0.002-1.023,0.585-1.603,1.455-2.014
			c3.966-1.872,7.612-4.242,10.969-7.062c2.219-1.864,4.258-3.906,6.136-6.113c0.99-1.164,2.207-1.364,3.158-0.538
			c0.926,0.805,0.927,2.029-0.018,3.142c-5.15,6.065-11.314,10.82-18.488,14.263C976.487,988.789,974.921,987.962,974.911,986.326z"
			/>
		<path fill-rule="evenodd" clip-rule="evenodd" fill="#FEFEFE" d="M956.661,993.318c-0.723,0-1.447,0.034-2.167-0.008
			c-1.229-0.07-2.064-0.948-2.04-2.087c0.024-1.134,0.895-1.979,2.129-1.984c5.292-0.024,10.456-0.843,15.506-2.419
			c1.186-0.371,2.292,0.16,2.648,1.209c0.395,1.164-0.182,2.262-1.48,2.679C966.511,992.233,961.646,993.086,956.661,993.318z"/>
		<path fill-rule="evenodd" clip-rule="evenodd" fill="#FEFEFE" d="M1009.562,940.556c-0.154,3.258-0.598,6.472-1.294,9.651
			c-0.049,0.224-0.104,0.447-0.168,0.667c-0.336,1.167-1.292,1.818-2.34,1.599c-1.175-0.246-1.894-1.266-1.61-2.514
			c0.883-3.89,1.33-7.821,1.362-11.809c0.01-1.101,0.887-1.923,1.944-1.962c1.065-0.039,1.98,0.698,2.09,1.81
			C1009.629,938.843,1009.562,939.703,1009.562,940.556z"/>
		<path fill-rule="evenodd" clip-rule="evenodd" fill="#FEFEFE" d="M1003.606,962.88c-0.372,1.23-0.934,2.598-2.084,3.566
			c-0.675,0.568-1.55,0.481-2.276-0.075c-0.747-0.574-1.084-1.366-0.704-2.25c0.397-0.926,0.884-1.828,1.451-2.658
			c0.501-0.731,1.288-0.986,2.171-0.694C1003.071,961.067,1003.544,961.712,1003.606,962.88z"/>
	</g>
</g>
</svg>
