<?xml version="1.0" encoding="utf-8"?>
<!-- Generator: Adobe Illustrator 16.0.0, SVG Export Plug-In . SVG Version: 6.00 Build 0)  -->
<!DOCTYPE svg PUBLIC "-//W3C//DTD SVG 1.1//EN" "http://www.w3.org/Graphics/SVG/1.1/DTD/svg11.dtd">
<svg version="1.1" id="Layer_1" xmlns="http://www.w3.org/2000/svg" xmlns:xlink="http://www.w3.org/1999/xlink" x="0px" y="0px"
	 width="1400px" height="1400px" viewBox="0 0 1400 1400" enable-background="new 0 0 1400 1400" xml:space="preserve">
<g>
	<path fill="none" d="M571.624,847.236c16.437,0,32.872,0.003,49.308-0.015c0.487,0,0.583,0.097,0.583,0.583
		c-0.015,29.077-0.015,58.154,0,87.231c0,0.486-0.096,0.582-0.583,0.582c-32.871-0.015-65.742-0.015-98.614,0
		c-0.487,0-0.583-0.096-0.583-0.583c0.015-29.077,0.015-58.153,0-87.23c0-0.486,0.096-0.583,0.583-0.583
		C538.753,847.239,555.188,847.236,571.624,847.236z M571.576,848.468c-23.473-0.141-42.713,19.19-42.791,42.588
		c-0.078,23.554,19.212,42.889,42.706,42.918c23.519,0.03,42.807-19.245,42.827-42.725
		C614.34,867.709,595.029,848.352,571.576,848.468z"/>
	<path fill="none" d="M543.694,869.604c-0.032-0.393,0.206-0.711,0.472-1.024c3.688-4.374,8.131-7.773,13.277-10.259
		c0.914-0.441,1.703-0.24,2.089,0.505c0.394,0.762,0.069,1.556-0.878,2.008c-4.465,2.125-8.321,5.059-11.643,8.712
		c-0.35,0.385-0.668,0.805-1.048,1.156c-0.408,0.377-0.901,0.503-1.444,0.25C544.002,870.708,543.689,870.226,543.694,869.604z"/>
	<path fill="none" d="M561.347,857.524c0.019-0.522,0.401-0.946,1.055-1.161c2.233-0.733,4.523-1.229,6.854-1.538
		c1.646-0.22,3.297-0.339,4.959-0.312c1.025,0.017,1.672,0.523,1.688,1.335c0.014,0.833-0.669,1.44-1.694,1.438
		c-3.703-0.009-7.308,0.598-10.839,1.687C562.241,859.318,561.346,858.741,561.347,857.524z"/>
	<path fill="none" d="M534.859,892.727c0.074-2.496,0.41-5.048,0.994-7.567c0.146-0.634,0.479-1.081,1.159-1.175
		c1.02-0.144,1.8,0.63,1.579,1.634c-0.604,2.761-0.979,5.542-0.968,8.373c0.004,0.925-0.631,1.564-1.418,1.562
		c-0.79-0.003-1.33-0.642-1.347-1.6C534.854,893.574,534.859,893.195,534.859,892.727z"/>
	<path fill="none" d="M540.625,877.827c-1.032,0.01-1.708-0.818-1.423-1.722c0.229-0.725,0.629-1.387,1.087-1.989
		c0.42-0.553,1.141-0.642,1.729-0.295c0.581,0.341,0.866,1.022,0.596,1.649c-0.272,0.627-0.616,1.229-0.973,1.813
		C541.405,877.676,541.003,877.835,540.625,877.827z"/>
</g>
<g>
	<path fill="none" d="M561.521,835.511c20.248,0,40.496,0.003,60.744-0.017c0.602-0.001,0.72,0.117,0.72,0.719
		c-0.02,35.873-0.02,71.746,0,107.619c0,0.602-0.118,0.72-0.72,0.719c-40.496-0.018-80.992-0.018-121.488,0
		c-0.602,0.001-0.72-0.117-0.72-0.719c0.02-35.873,0.02-71.746,0-107.619c0-0.602,0.118-0.72,0.72-0.719
		C521.026,835.514,541.273,835.511,561.521,835.511z M561.55,837.029c-28.958-0.173-52.696,23.676-52.792,52.544
		c-0.097,29.057,23.703,52.911,52.688,52.948c29.016,0.036,52.812-23.744,52.838-52.713
		C614.311,860.768,590.485,836.886,561.55,837.029z"/>
	<path fill="none" d="M527.151,863.104c-0.039-0.482,0.256-0.875,0.583-1.264c4.55-5.396,10.03-9.591,16.38-12.657
		c1.129-0.545,2.102-0.296,2.577,0.623c0.485,0.939,0.087,1.92-1.083,2.478c-5.509,2.623-10.267,6.242-14.362,10.749
		c-0.432,0.476-0.824,0.991-1.294,1.426c-0.503,0.466-1.112,0.621-1.782,0.31C527.532,864.468,527.146,863.873,527.151,863.104z"/>
	<path fill="none" d="M548.93,848.203c0.022-0.646,0.495-1.168,1.301-1.434c2.757-0.904,5.582-1.515,8.455-1.896
		c2.028-0.271,4.067-0.418,6.117-0.386c1.266,0.02,2.063,0.646,2.081,1.646c0.019,1.027-0.823,1.776-2.09,1.773
		c-4.569-0.011-9.015,0.737-13.373,2.081C550.034,850.417,548.928,849.705,548.93,848.203z"/>
	<path fill="none" d="M516.252,891.634c0.092-3.081,0.506-6.229,1.227-9.338c0.182-0.782,0.593-1.334,1.431-1.45
		c1.257-0.175,2.221,0.778,1.948,2.018c-0.746,3.405-1.209,6.836-1.194,10.33c0.005,1.141-0.777,1.932-1.749,1.928
		c-0.975-0.004-1.641-0.792-1.661-1.975C516.245,892.68,516.252,892.212,516.252,891.634z"/>
	<path fill="none" d="M523.365,873.252c-1.273,0.012-2.108-1.01-1.754-2.125c0.283-0.893,0.774-1.709,1.34-2.453
		c0.518-0.684,1.406-0.791,2.134-0.364c0.717,0.422,1.068,1.263,0.733,2.035c-0.336,0.774-0.761,1.517-1.198,2.238
		C524.327,873.065,523.831,873.261,523.365,873.252z"/>
</g>
<path fill="none" d="M672.945,941.973c69.344,0,138.688,0.006,208.032,0c21.625-0.004,43.246,0.092,64.869-0.088
	c32.332-0.27,33.094-1.074,33.158-32.289c0.029-15.66,0.016-31.32-0.141-46.977c-0.074-7.459-0.863-14.211-6.959-20.287
	c-34.949-34.836-38.404-95.605-3.895-120.387c9.764-7.012,11.141-16.363,9.354-27.69c-7.498-47.523-31.201-84.407-70.238-112.363
	c-15.475-11.083-26.459-11.954-42.689,1.424c-74.893,61.725-187.051,63.373-257.058-0.371
	c-27.868-25.373-55.396-31.044-88.729-27.994c-59.166,5.411-104.112,33.01-132.987,85.762c-8.664,15.83-6.153,23.194,13.217,22.869
	c30.562-0.514,61.14,0.092,91.71-0.091c17.253-0.104,32.038,5.569,44.879,16.963c24.664,21.88,33.392,59.884,17.938,94.755
	c-12.526,28.266-37.42,41.979-68.138,42.945c-29.052,0.912-58.153,0.201-87.233,0.324c-30.031,0.127-30.352,0.461-30.532,29.506
	c-0.093,15.656-0.025,31.316-0.023,46.975c0.002,47,0.002,47.012,45.988,47.016C499.959,941.982,586.454,941.979,672.945,941.973z
	 M699.933,1062.174c190.889,0,381.778,0,572.665-0.008c7.455,0,14.918,0.119,22.367-0.135c20.512-0.705,34.137-9.986,36.873-31.344
	c6.408-50.018-0.775-72.885-25.748-79.047c-9.932-2.449-20.705-2.004-31.092-2.01c-382.523-0.09-765.042-0.078-1147.563-0.061
	c-8.198,0-16.415-0.057-24.593,0.418c-10.926,0.637-21.607,4.268-26.69,13.994c-13.158,25.182-11.422,52.84-3.297,78.084
	c7.192,22.336,30.338,20.141,49.938,20.135C315.172,1062.152,507.553,1062.172,699.933,1062.174z M930.031,424.468
	c0.379-107.905-86.309-196.133-193.195-196.634C629.821,227.335,540.007,315.118,539,421.19
	c-1.01,106.637,89.007,197.772,195.689,198.122C841.525,619.659,929.656,531.756,930.031,424.468z M356.917,660.443
	c5.316-2.911,7.08-3.287,7.761-4.356c2.383-3.744,4.7-7.591,6.492-11.641c18.416-41.608,49.153-70.4,90.852-87.979
	c22.342-9.42,45.793-13.006,69.792-13.488c31.782-0.64,31.876-0.529,17.341-29.832c-12.459-25.117-18.921-51.438-19.33-79.644
	c-0.424-29.225,1.738-57.912,14.145-90.315c-11.921,3.811-18.2,5.834-24.486,7.822 M361.669,807.34
	c39.466,0,78.937,0.309,118.398-0.082c42.636-0.422,68.795-25.297,69.252-65.006c0.488-42.323-24.123-69.319-66.926-69.797
	c-80.412-0.902-160.85-0.885-241.259,0.027c-40.695,0.463-68.502,29.305-68.306,67.434c0.208,40.23,27.718,66.877,70.441,67.334
	C282.732,807.676,322.203,807.34,361.669,807.34z M941.266,379.383c0,11.576-0.332,17.356,0.057,23.088
	c2.188,32.379,0.34,64.604-13.264,94.255c-9.418,20.524-18.109,37.978,8.865,51.502c3.846,1.931,6.09,8.379,7.697,13.196
	c5.059,15.13,15.977,21.862,30.869,25.681c49.797,12.769,98.912,28.65,149.18,39.006c42.631,8.778,69.385,31.631,88.885,69.688
	c27.047,52.776,10.479,100.407-45.41,119.471c-4.939,1.684-9.867,3.383-14.816,5.039c-15.215,5.086-14.521,13.076-3.531,22.008
	c5.711,4.643,11.971,9.041,18.678,11.953 M1028.432,848.137c48.875-15.207,108.248-27.777,161.672-56.389
	c26.23-14.047,31.734-48.553,18.207-79.646c-13.152-30.227-41.967-47.245-72.074-38.411c-48.568,14.256-96.779,30.01-144.328,47.362
	c-30.633,11.182-43.824,42.014-36.291,75.412C962.988,829.156,986.682,848.465,1028.432,848.137z M944.58,590.713
	c0.018,11.66,6.125,16.496,10.432,22.126c16.168,21.142,27.432,44.669,30.543,71.062c2.369,20.103,9.73,24.945,29.207,17.767
	c35.637-13.128,72.23-23.63,108.143-36.056c14.58-5.046,30.412-3.641,45.463-9.911
	C1095.131,628.924,1020.486,610.827,944.58,590.713z"/>
<path fill="#CCCCCC" d="M671.297,975.182c-93.702,0.002-187.406,0.01-281.107-0.002c-49.819-0.006-49.819-0.016-49.821-50.937
	c-0.002-16.961-0.077-33.927,0.025-50.889c0.193-31.467,0.542-31.827,33.077-31.967c31.503-0.133,63.031,0.637,94.505-0.349
	c33.278-1.047,60.247-15.906,73.817-46.525c16.741-37.78,7.287-78.95-19.434-102.654c-13.91-12.344-29.929-18.489-48.619-18.375
	c-33.119,0.194-66.247-0.461-99.355,0.098c-20.986,0.352-23.706-7.627-14.318-24.777c31.28-57.148,79.974-87.049,144.071-92.911
	c36.11-3.303,65.934,2.84,96.125,30.328c75.841,69.059,197.35,67.271,278.485,0.402c17.585-14.493,29.485-13.549,46.249-1.542
	c42.289,30.288,67.967,70.245,76.091,121.729c1.936,12.271,0.445,22.401-10.133,29.999c-37.387,26.846-33.642,92.681,4.222,130.419
	c6.601,6.582,7.459,13.899,7.538,21.98c0.167,16.962,0.185,33.927,0.15,50.891c-0.067,33.818-0.896,34.69-35.919,34.982
	c-23.428,0.194-46.853,0.091-70.277,0.095C821.545,975.184,746.421,975.18,671.297,975.182z"/>
<path fill="#CCCCCC" d="M705.767,1102.79c-166.216,0-332.436-0.02-498.652,0.029c-16.935,0.008-36.933,2.301-43.146-21.026
	c-7.021-26.361-8.52-55.244,2.85-81.541c4.391-10.157,13.62-13.949,23.061-14.616c7.065-0.493,14.165-0.437,21.249-0.437
	c330.5-0.016,661-0.026,991.5,0.067c8.975,0.002,18.282-0.463,26.863,2.097c21.576,6.436,27.782,30.315,22.249,82.549
	c-2.366,22.301-14.137,31.993-31.858,32.729c-6.436,0.268-12.884,0.145-19.326,0.145
	C1035.623,1102.795,870.694,1102.795,705.767,1102.79z"/>
<path fill="#CCCCCC" d="M949.812,414.538c-0.408,116.229-95.884,211.46-211.624,211.084
	c-115.575-0.378-213.095-99.108-212.001-214.633c1.089-114.916,98.391-210.015,214.326-209.474
	C856.308,202.057,950.224,297.638,949.812,414.538z"/>
<path fill="#CCCCCC" d="M334.073,829.325c-42.756,0-85.517,0.361-128.267-0.098c-46.286-0.496-76.088-29.362-76.313-72.949
	c-0.213-41.307,29.912-72.551,74-73.052c87.113-0.991,174.253-1.008,261.369-0.031c46.37,0.519,73.033,29.764,72.505,75.615
	c-0.495,43.023-28.835,69.969-75.025,70.424C419.59,829.658,376.829,829.325,334.073,829.325z"/>
<path fill="#CCCCCC" d="M1056.416,873.521c-45.232,0.355-70.901-20.562-78.888-55.978c-8.157-36.184,6.131-69.586,39.316-81.697
	c51.513-18.798,103.742-35.867,156.359-51.31c32.616-9.57,63.835,8.864,78.084,41.613c14.654,33.683,8.69,71.064-19.726,86.282
	C1173.687,843.427,1109.364,857.048,1056.416,873.521z"/>
<path fill="#CCCCCC" d="M965.574,594.641c82.233,21.79,163.098,41.397,242.439,70.403c-16.305,6.795-33.456,5.271-49.25,10.739
	c-38.907,13.461-78.551,24.839-117.158,39.062c-21.101,7.771-29.074,2.53-31.641-19.25c-3.371-28.594-15.573-54.082-33.092-76.984
	C972.21,612.511,965.593,607.272,965.574,594.641z"/>
<g>
	<path fill="#FF0068" d="M569.732,796.961c15.616,4.114,31.521,6.859,47.404,9.696c13.612,2.433,29.093,8.716,42.806,4.255
		c12.544-4.082,17.728-17.05,22.539-28.134c5.574-12.846,12.959-25.192,20.652-36.872c11.208-17.012,29.857-43.294,53.01-38.884
		c16.14,3.075,21.236,25.867,24.23,41.528c1.335,6.981,2.513,14.091,3.207,21.166c0.955,9.733,0.089,19.562,0.979,29.31
		c0.858,9.438,3.506,17.735,9.664,25.031c5.13,6.073,12.709,10.196,19.895,13.293c14.244,6.139,29.322,8.896,44.351,12.339
		c25.454,5.828,49.535-0.94,74.682-4.825c4.934-0.764,7.592-6.866,6.388-11.249c-1.435-5.213-6.327-7.145-11.249-6.385
		c-15.006,2.318-29.8,6.236-45.031,6.804c-11.472,0.43-22.494-2.498-33.603-4.944c-15.396-3.388-40.85-8.009-45.729-24.453
		c-3.281-11.061-1.164-23.535-2.057-34.918c-0.809-10.286-2.704-20.773-4.83-30.86c-4.126-19.574-12.18-40.303-32.009-48.292
		c-17.399-7.008-37.5,2.189-50.771,13.304c-7.683,6.437-13.894,14.588-19.757,22.65c-7.131,9.807-13.495,19.984-19.403,30.57
		c-4.656,8.347-8.377,16.923-12.479,25.533c-1.528,3.203-3.189,6.558-5.594,9.197c-2.678,2.941-7.621,2.66-11.188,2.103
		c-11.149-1.738-22.233-4.608-33.365-6.595c-12.711-2.272-25.389-4.708-37.88-7.999
		C563.176,776.321,558.338,793.959,569.732,796.961L569.732,796.961z"/>
</g>
<path fill="#0EC7A7" d="M548.824,842.219c-33.174-0.031-60.126-27.064-60.06-60.235c0.065-33.134,27.071-60.037,60.206-59.984
	c33.129,0.051,60.06,27.056,60.015,60.181C608.94,815.311,581.946,842.252,548.824,842.219z"/>
<path fill="#FEFEFE" d="M544.055,723.189c0.002,0.959-0.548,1.504-1.364,1.889c-3.72,1.756-7.138,3.979-10.287,6.623
	c-2.08,1.748-3.992,3.662-5.754,5.732c-0.929,1.092-2.069,1.279-2.962,0.504c-0.868-0.754-0.869-1.902,0.018-2.945
	c4.829-5.689,10.61-10.148,17.338-13.377C542.577,720.879,544.046,721.656,544.055,723.189z"/>
<path fill="#FEFEFE" d="M561.17,716.633c0.678,0,1.356-0.033,2.032,0.006c1.152,0.066,1.936,0.891,1.913,1.959
	c-0.022,1.062-0.839,1.855-1.997,1.859c-4.963,0.023-9.806,0.791-14.541,2.27c-1.112,0.348-2.149-0.15-2.483-1.135
	c-0.37-1.092,0.171-2.121,1.388-2.512C551.933,717.65,556.496,716.85,561.17,716.633z"/>
<path fill="#FEFEFE" d="M511.559,766.113c0.145-3.057,0.561-6.07,1.214-9.051c0.046-0.211,0.097-0.42,0.157-0.627
	c0.315-1.094,1.212-1.705,2.194-1.498c1.102,0.229,1.776,1.186,1.511,2.357c-0.829,3.646-1.248,7.334-1.278,11.074
	c-0.009,1.031-0.831,1.803-1.823,1.84c-0.998,0.035-1.856-0.654-1.96-1.697C511.498,767.719,511.559,766.912,511.559,766.113z"/>
<path fill="#FEFEFE" d="M517.145,745.178c0.349-1.154,0.875-2.438,1.954-3.346c0.633-0.531,1.453-0.449,2.134,0.07
	c0.701,0.539,1.017,1.281,0.66,2.111c-0.371,0.867-0.828,1.713-1.359,2.492c-0.471,0.686-1.208,0.926-2.037,0.65
	C517.647,746.877,517.204,746.271,517.145,745.178z"/>
<g>
	<path fill="#0EC7A7" d="M959.413,769.349c33.173,0.032,60.125,27.065,60.059,60.236c-0.067,33.134-27.071,60.037-60.208,59.984
		c-33.127-0.05-60.058-27.056-60.012-60.179C899.297,796.258,926.291,769.317,959.413,769.349z"/>
	<path fill="#FEFEFE" d="M975.967,874.187c-0.004-1.038,0.593-1.629,1.478-2.047c4.029-1.901,7.733-4.31,11.143-7.174
		c2.256-1.894,4.327-3.968,6.235-6.211c1.006-1.184,2.242-1.386,3.209-0.546c0.939,0.817,0.941,2.062-0.018,3.192
		c-5.232,6.159-11.496,10.991-18.785,14.491C977.567,876.689,975.977,875.851,975.967,874.187z"/>
	<path fill="#FEFEFE" d="M957.424,881.29c-0.734,0-1.47,0.033-2.201-0.008c-1.248-0.071-2.098-0.964-2.073-2.12
		c0.025-1.152,0.909-2.011,2.165-2.016c5.376-0.025,10.621-0.857,15.754-2.459c1.202-0.376,2.326,0.163,2.689,1.23
		c0.4,1.184-0.186,2.298-1.503,2.721C967.433,880.189,962.488,881.055,957.424,881.29z"/>
	<path fill="#FEFEFE" d="M1011.17,827.686c-0.156,3.312-0.607,6.576-1.315,9.807c-0.049,0.226-0.104,0.453-0.169,0.677
		c-0.343,1.186-1.314,1.849-2.379,1.623c-1.193-0.249-1.923-1.284-1.636-2.555c0.897-3.949,1.353-7.943,1.384-11.994
		c0.01-1.119,0.901-1.955,1.977-1.993c1.081-0.04,2.011,0.707,2.122,1.837C1011.238,825.945,1011.17,826.82,1011.17,827.686z"/>
	<path fill="#FEFEFE" d="M1005.118,850.365c-0.376,1.251-0.949,2.642-2.118,3.626c-0.685,0.575-1.573,0.488-2.31-0.077
		c-0.761-0.584-1.103-1.388-0.715-2.287c0.401-0.939,0.896-1.856,1.473-2.7c0.51-0.743,1.309-1.003,2.207-0.704
		C1004.575,848.523,1005.056,849.182,1005.118,850.365z"/>
</g>
<g>
	<path fill="#CCCCCC" d="M701.866,11.539c-375.5,0-680.982,305.498-680.982,681.013c0,375.542,305.482,681.069,680.982,681.069
		c375.515,0,681.011-305.525,681.011-681.069C1382.877,317.037,1077.381,11.539,701.866,11.539z M1196.376,1093.67l0.014,0.045
		c-0.715,0.876-1.423,1.758-2.142,2.632l-0.029-0.104c-0.336,0.396-0.744,0.734-1.218,1.004
		c-11.704,12.608-48.781,53.296-50.923,55.346c-2.672,2.56-5.368,5.095-8.086,7.609c-113.637,105.114-265.498,169.47-432.141,169.47
		c-351.248,0.016-637.031-285.812-637.031-637.12c0-351.278,285.784-637.078,637.046-637.078c72.392,0,141.94,12.316,206.847,34.665
		c9.744,4.132,60.446,24.053,69.936,28.65c213.035,103.189,360.294,321.604,360.294,573.763
		c0,151.848-53.433,291.452-142.442,401.025C1196.533,1093.524,1196.489,1093.56,1196.376,1093.67z"/>
</g>
</svg>
