<?xml version="1.0" encoding="utf-8"?>
<!-- Generator: Adobe Illustrator 16.0.0, SVG Export Plug-In . SVG Version: 6.00 Build 0)  -->
<!DOCTYPE svg PUBLIC "-//W3C//DTD SVG 1.1//EN" "http://www.w3.org/Graphics/SVG/1.1/DTD/svg11.dtd">
<svg version="1.1" id="Layer_1" xmlns="http://www.w3.org/2000/svg" xmlns:xlink="http://www.w3.org/1999/xlink" x="0px" y="0px"
	 width="1400px" height="1400px" viewBox="0 0 1400 1400" enable-background="new 0 0 1400 1400" xml:space="preserve">
<g>
	<path fill="#CCCCCC" d="M700.833,51.729c-359.573,0-652.098,292.54-652.098,652.127c0,359.612,292.525,652.183,652.098,652.183
		c359.587,0,652.126-292.567,652.126-652.183C1352.959,344.269,1060.42,51.729,700.833,51.729z M1174.368,1087.96l0.013,0.043
		c-0.684,0.841-1.362,1.685-2.05,2.521l-0.028-0.099c-0.322,0.378-0.713,0.703-1.166,0.96
		c-11.208,12.074-46.713,51.035-48.763,52.999c-2.56,2.45-5.142,4.879-7.744,7.286
		c-108.815,100.656-254.235,162.282-413.811,162.282c-336.351,0.015-610.012-273.69-610.012-610.098
		c0-336.377,273.663-610.056,610.026-610.056c69.321,0,135.921,11.794,198.073,33.194c9.331,3.957,57.882,23.033,66.97,27.435
		c203.999,98.812,345.012,307.962,345.012,549.426c0,145.409-51.167,279.09-136.399,384.017
		C1174.52,1087.822,1174.477,1087.854,1174.368,1087.96z"/>
</g>
<path fill="none" d="M894.195,125.399"/>
<path fill="#CCCCCC" d="M1020.136,1136.029H383.32c-29.378,0-53.293-23.904-53.293-53.293V348.658
	c0-29.38,23.905-53.294,53.293-53.294h129.32V279.26c0-21.332,17.349-38.682,38.682-38.682l293.521,0
	c21.331,0,38.681,17.349,38.681,38.681v16.104h136.622c29.378,0,53.293,23.906,53.293,53.294v734.079
	C1073.429,1112.113,1049.523,1136.029,1020.136,1136.029z M383.32,336.21c-6.749,0-12.447,5.698-12.447,12.448v734.079
	c0,6.75,5.698,12.447,12.447,12.447h636.815c6.748,0,12.447-5.697,12.447-12.447V348.658c0-6.75-5.699-12.448-12.447-12.448H883.514
	v19.75c0,21.331-17.349,38.68-38.682,38.68h-45.084c-18.718,0-30.562-19.115-40.018-35.678H640.07
	c-9.456,16.573-21.291,35.678-40.02,35.678h-48.739c-21.332,0-38.681-17.349-38.681-38.681V336.21H383.32z M804.846,353.794h37.821
	v-72.37H553.476v72.37h41.48c3.584-4.401,8.73-13.478,11.151-17.748c2.022-3.574,3.799-6.648,5.167-8.73
	c3.778-5.749,10.191-9.202,17.063-9.202h143.104c6.873,0,13.286,3.453,17.064,9.202c1.369,2.083,3.146,5.156,5.167,8.73
	C796.104,340.316,801.261,349.393,804.846,353.794z M966.432,1028.473H436.697c-7.046,0-12.765-5.719-12.765-12.766
	s5.718-12.764,12.765-12.764h529.734c7.046,0,12.765,5.717,12.765,12.764S973.478,1028.473,966.432,1028.473z M966.432,972.646
	H436.697c-7.046,0-12.765-5.719-12.765-12.766c0-7.045,5.718-12.766,12.765-12.766h529.734c7.046,0,12.765,5.721,12.765,12.766
	C979.196,966.928,973.478,972.646,966.432,972.646z M965.737,884.621H749.855c-7.047,0-12.765-5.719-12.765-12.764
	c0-7.047,5.718-12.766,12.765-12.766h215.882c7.047,0,12.766,5.719,12.766,12.766C978.503,878.902,972.794,884.621,965.737,884.621z
	 M599.664,876.004c-4.616,0-8.926-2.514-11.172-6.607l-35.853-65.088l-28.787,64.146c-1.633,3.627-4.85,6.281-8.721,7.201
	c-3.87,0.898-7.935-0.021-11.007-2.543l-32.82-26.816l-25.52,25.896c-4.942,5.025-13.029,5.086-18.054,0.135
	c-5.024-4.945-5.086-13.031-0.132-18.055l33.677-34.18c4.616-4.697,12.06-5.084,17.166-0.918l28.919,23.631l32.444-72.299
	c1.979-4.422,6.289-7.332,11.119-7.525c5.076-0.094,9.374,2.357,11.702,6.596l34.291,62.25l34.465-100.615
	c2.286-6.658,9.546-10.211,16.214-7.934c6.668,2.287,10.223,9.547,7.935,16.215l-43.808,127.889
	c-1.635,4.781-5.943,8.139-10.967,8.58C600.399,875.992,600.031,876.004,599.664,876.004z M965.737,825.477H749.855
	c-7.047,0-12.765-5.719-12.765-12.766s5.718-12.764,12.765-12.764h215.882c7.047,0,12.766,5.717,12.766,12.764
	S972.794,825.477,965.737,825.477z M965.737,766.32H749.855c-7.047,0-12.765-5.717-12.765-12.764s5.718-12.766,12.765-12.766
	h215.882c7.047,0,12.766,5.719,12.766,12.766S972.794,766.32,965.737,766.32z M764.968,674.305 M564.914,699.834h-70.276
	c-7.045,0-12.766-5.719-12.766-12.766v-50.149h-50.158c-7.046,0-12.764-5.718-12.764-12.765v-70.286
	c0-7.045,5.718-12.764,12.764-12.764h50.158v-46.82c0-7.046,5.72-12.764,12.766-12.764h70.276c7.046,0,12.764,5.718,12.764,12.764
	v46.82h46.83c7.047,0,12.765,5.719,12.765,12.764v70.286c0,7.047-5.718,12.765-12.765,12.765h-46.83v50.149
	C577.678,694.125,571.96,699.834,564.914,699.834z M507.392,674.305h44.748v-50.15c0-7.045,5.718-12.764,12.764-12.764l46.83,0
	v-44.757h-46.83c-7.046,0-12.764-5.72-12.764-12.766v-46.819h-44.748v46.819c0,7.046-5.718,12.766-12.765,12.766h-50.159v44.756
	h50.159c7.047,0,12.765,5.719,12.765,12.764V674.305L507.392,674.305z"/>
<path fill="#FF0068" d="M927.98,483.816c-16.247-2.235-33.54,1.01-47.858,8.962c-13.61,7.562-23.546,20.392-30.8,31.158
	c-0.693-0.948-0.571-0.886-1.345-1.911c-4.474-5.964-9.854-12.779-15.773-17.296c-10.624-8.108-23.438-14.637-37.343-16.609
	c-18.99-2.694-41.082-2.291-59.062,8.573l0,0c-17.113,10.343-32.132,28.28-35.132,49.231c-4.142,28.915,11.734,56.551,26.857,78.002
	c15.407,21.855,44.396,44.954,69.815,63.331s47.261,31.666,47.261,31.666c2.767,1.69,6.298,1.452,8.812-0.595
	c0,0,58.539-47.509,85.262-76.06c17.58-18.785,42.318-37.402,50.815-66.021c5.976-20.134,6.999-45.422-5.975-64.379
	c-12.621-18.433-35.943-25.388-55.536-28.081V483.816z M925.919,498.994c17.46,2.399,36.546,9.247,44.961,21.538
	c8.948,13.076,8.995,34.391,3.942,51.414c-6.617,22.289-28.489,39.807-47.29,59.896c-23.603,25.218-74.276,66.578-79.614,70.952
	c-3.69-2.273-19.223-11.686-41.615-27.873c-24.886-17.99-53.285-41.33-66.291-59.777c-14.357-20.366-27.325-45.173-24.197-67.007
	c2.109-14.732,14.307-30.111,27.902-38.33c13.193-7.973,31.973-8.955,48.993-6.542c10.489,1.483,21.192,6.745,30.203,13.623
	c3.14,2.396,8.673,8.785,12.815,14.311c4.143,5.523,7.2,10.217,7.2,10.217c2.318,3.53,7.061,4.514,10.592,2.194
	c0.985-0.646,1.808-1.514,2.403-2.53h0.03c5.332-9.125,19.391-28.108,31.607-34.894c11.202-6.225,25.64-8.92,38.358-7.171
	L925.919,498.994z"/>
</svg>
