<?xml version="1.0" encoding="utf-8"?>
<!-- Generator: Adobe Illustrator 16.0.0, SVG Export Plug-In . SVG Version: 6.00 Build 0)  -->
<!DOCTYPE svg PUBLIC "-//W3C//DTD SVG 1.1//EN" "http://www.w3.org/Graphics/SVG/1.1/DTD/svg11.dtd">
<svg version="1.1" id="Layer_1" xmlns="http://www.w3.org/2000/svg" xmlns:xlink="http://www.w3.org/1999/xlink" x="0px" y="0px"
	 width="1400px" height="1400px" viewBox="0 0 1400 1400" enable-background="new 0 0 1400 1400" xml:space="preserve">
<g>
	<path fill="none" d="M-662.646,836.326c16.437,0,32.872,0.003,49.308-0.019c0.487,0,0.583,0.101,0.583,0.583
		c-0.015,29.077-0.015,58.154,0,87.231c0,0.486-0.096,0.582-0.583,0.582c-32.871-0.017-65.741-0.017-98.613,0
		c-0.487,0-0.583-0.096-0.583-0.583c0.015-29.077,0.015-58.153,0-87.23c0-0.482,0.096-0.583,0.583-0.583
		C-695.517,836.329-679.082,836.326-662.646,836.326z M-662.693,837.558c-23.475-0.141-42.713,19.19-42.791,42.589
		c-0.078,23.557,19.212,42.892,42.706,42.918c23.519,0.029,42.807-19.243,42.827-42.726
		C-619.93,856.799-639.24,837.441-662.693,837.558z"/>
	<path fill="none" d="M-690.575,858.693c-0.032-0.396,0.207-0.711,0.472-1.023c3.688-4.374,8.131-7.773,13.277-10.259
		c0.914-0.441,1.701-0.24,2.089,0.505c0.394,0.762,0.068,1.556-0.878,2.008c-4.467,2.125-8.321,5.062-11.644,8.712
		c-0.35,0.386-0.668,0.808-1.048,1.156c-0.408,0.377-0.902,0.503-1.444,0.25C-690.268,859.798-690.58,859.315-690.575,858.693z"/>
	<path fill="none" d="M-672.923,846.614c0.02-0.522,0.401-0.946,1.056-1.161c2.232-0.733,4.522-1.229,6.854-1.538
		c1.646-0.22,3.297-0.339,4.959-0.312c1.025,0.021,1.672,0.523,1.688,1.335c0.014,0.834-0.668,1.44-1.694,1.438
		c-3.703-0.009-7.308,0.598-10.839,1.687C-672.028,848.408-672.924,847.831-672.923,846.614z"/>
	<path fill="none" d="M-699.41,881.816c0.073-2.495,0.408-5.051,0.994-7.566c0.146-0.634,0.479-1.081,1.158-1.175
		c1.021-0.146,1.801,0.63,1.579,1.634c-0.604,2.761-0.979,5.542-0.968,8.373c0.004,0.925-0.631,1.562-1.418,1.562
		c-0.79-0.003-1.33-0.642-1.347-1.6C-699.416,882.664-699.41,882.285-699.41,881.816z"/>
	<path fill="none" d="M-693.645,866.917c-1.032,0.01-1.708-0.818-1.423-1.722c0.229-0.729,0.629-1.391,1.087-1.989
		c0.42-0.553,1.141-0.644,1.729-0.295c0.581,0.341,0.866,1.021,0.597,1.646c-0.271,0.627-0.616,1.229-0.974,1.813
		C-692.864,866.766-693.267,866.925-693.645,866.917z"/>
</g>
<path fill="#FF0068" d="M277.005,796.088c24.404-54.537,77.411-22.155,78.74,17.854c1.283,38.635-38.063,73.491-78.322,97.751
	c11.256-5.77-18.191-28.767-40.726-40.449C179.266,841.467,202.386,750.639,277.005,796.088z"/>
<path fill="#CCCCCC" d="M1274.24,663.804c0-0.384,0.112-0.736,0.112-1.124h-0.257c0-2.157-0.063-4.338-0.787-6.496l-137.035-411.099
	l41.321-12.392c10.859-3.272,17.035-14.726,13.746-25.568c-3.256-10.868-14.708-17.02-25.553-13.78l-418.47,125.552l-6.833-150.847
	c-1.012-21.936-19.072-39.203-41.032-39.203c-21.952,0-40.021,17.267-41.023,39.203l-8.182,179.977L221.32,476.707
	c-10.869,3.271-17.043,14.725-13.755,25.568c2.646,8.903,10.827,14.637,19.649,14.637c1.965,0,3.93-0.279,5.895-0.857l23.701-7.113
	L125.597,902.57c-0.715,2.166-0.794,4.349-0.794,6.497h-0.249c0,0.385,0.112,0.738,0.112,1.123c0.023,0.368,0.063,0.707,0.112,1.076
	c1.203,89.682,74.067,162.057,164.033,162.057c89.963,0,162.829-72.375,164.032-162.057c0.048-0.369,0.087-0.708,0.112-1.076
	c0-0.385,0.112-0.738,0.112-1.123h-0.25c0-2.149-0.079-4.331-0.794-6.497L314.996,491.479l333.279-99.982l-30.91,679.968
	l-0.009,12.252c-51.698,13.573-91.632,39.622-110.648,71.736h-74.172c-34.023,0-61.598,27.574-61.598,61.596v61.598h657.028v-61.598
	c0-34.021-27.575-61.596-61.596-61.596h-74.173c-19.023-32.099-58.934-58.164-110.616-71.736v-10.394l-32.338-712.119
	l328.849-98.666L946.881,656.186c-0.722,2.157-0.787,4.338-0.787,6.496h-0.256c0,0.387,0.112,0.74,0.112,1.124
	c0.018,0.37,0.063,0.706,0.111,1.074c1.203,89.683,74.076,162.06,164.034,162.06c89.956,0,162.83-72.377,164.032-162.06
	C1274.176,664.511,1274.225,664.175,1274.24,663.804z M288.812,1032.26c-53.537,0-99.205-34.325-116.15-82.129H404.97
	C388.022,997.934,342.347,1032.26,288.812,1032.26z M166.741,909.067l122.071-366.25l122.069,366.25H166.741z M966.371,1196.517
	c11.324,0,20.532,9.209,20.532,20.532v20.532h-574.9v-20.532c0-11.323,9.208-20.532,20.533-20.532H966.371z M559.899,1155.453
	c28.439-23.131,79.071-41.063,139.553-41.063c60.474,0,111.131,17.933,139.555,41.063H559.899z M699.453,1073.323
	c-14.067,0-27.789,0.867-41.063,2.487v-2.487l41.063-903.412l41.063,903.412v2.487
	C727.236,1074.19,713.521,1073.323,699.453,1073.323z M1110.096,296.433l122.069,366.249h-244.14L1110.096,296.433z
	 M1110.096,785.874c-53.545,0-99.196-34.326-116.152-82.128h232.318C1209.306,751.548,1163.64,785.874,1110.096,785.874z"/>
</svg>
