<?xml version="1.0" encoding="utf-8"?>
<!-- Generator: Adobe Illustrator 16.0.0, SVG Export Plug-In . SVG Version: 6.00 Build 0)  -->
<!DOCTYPE svg PUBLIC "-//W3C//DTD SVG 1.1//EN" "http://www.w3.org/Graphics/SVG/1.1/DTD/svg11.dtd">
<svg version="1.1" id="Layer_1" xmlns="http://www.w3.org/2000/svg" xmlns:xlink="http://www.w3.org/1999/xlink" x="0px" y="0px"
	 width="1400px" height="1400px" viewBox="0 0 1400 1400" enable-background="new 0 0 1400 1400" xml:space="preserve">
<g>
	<path fill="#CCCCCC" d="M700.833,51.729c-359.573,0-652.098,292.54-652.098,652.127c0,359.612,292.525,652.183,652.098,652.183
		c359.587,0,652.126-292.567,652.126-652.183C1352.959,344.269,1060.42,51.729,700.833,51.729z M1174.368,1087.96l0.013,0.043
		c-0.684,0.841-1.362,1.685-2.05,2.521l-0.028-0.099c-0.322,0.378-0.713,0.703-1.166,0.96
		c-11.208,12.074-46.713,51.035-48.763,52.999c-2.56,2.45-5.142,4.879-7.744,7.286
		c-108.815,100.656-254.235,162.282-413.811,162.282c-336.351,0.015-610.012-273.69-610.012-610.098
		c0-336.377,273.663-610.056,610.026-610.056c69.321,0,135.921,11.794,198.073,33.194c9.331,3.957,57.882,23.033,66.97,27.435
		c203.999,98.812,345.012,307.962,345.012,549.426c0,145.409-51.167,279.09-136.399,384.017
		C1174.52,1087.822,1174.477,1087.854,1174.368,1087.96z"/>
</g>
<path fill="none" d="M894.195,125.399"/>
<path fill="#FF0068" d="M288.925,786.672c22.148-49.494,70.255-20.105,71.461,16.205c1.165,35.062-34.544,66.697-71.081,88.713
	c10.215-5.235-16.51-26.106-36.961-36.709C200.222,827.856,221.205,745.426,288.925,786.672z"/>
<path fill="#CCCCCC" d="M1193.967,666.618c0-0.348,0.102-0.667,0.102-1.02h-0.232c0-1.957-0.058-3.937-0.715-5.896L1068.755,286.61
	l37.5-11.247c9.855-2.969,15.461-13.364,12.475-23.204c-2.954-9.864-13.346-15.447-23.189-12.507L715.758,353.598l-6.202-136.901
	c-0.918-19.908-17.309-35.579-37.237-35.579c-19.924,0-36.321,15.671-37.231,35.579l-7.426,163.339L238.388,496.818
	c-9.864,2.97-15.467,13.364-12.483,23.205c2.401,8.079,9.827,13.283,17.833,13.283c1.784,0,3.567-0.253,5.35-0.778l21.51-6.455
	L151.515,883.311c-0.65,1.967-0.722,3.948-0.722,5.897h-0.225c0,0.349,0.102,0.669,0.102,1.02c0.021,0.334,0.057,0.64,0.101,0.975
	c1.092,81.393,67.22,147.077,148.869,147.077c81.646,0,147.775-65.685,148.867-147.077c0.043-0.335,0.079-0.641,0.102-0.975
	c0-0.351,0.102-0.671,0.102-1.02h-0.227c0-1.951-0.072-3.931-0.72-5.897l-124.36-373.085l302.468-90.739l-28.052,617.104
	l-0.008,11.119c-46.919,12.32-83.161,35.961-100.419,65.105h-67.315c-30.877,0-55.903,25.024-55.903,55.901v55.902h596.287v-55.902
	c0-30.875-25.026-55.901-55.902-55.901h-67.315c-17.265-29.133-53.485-52.787-100.389-65.105v-9.431l-29.349-646.285l298.446-89.544
	L896.871,659.705c-0.654,1.958-0.714,3.938-0.714,5.896h-0.232c0,0.352,0.103,0.672,0.103,1.02c0.016,0.336,0.057,0.642,0.1,0.975
	c1.092,81.392,67.229,147.077,148.869,147.077c81.64,0,147.777-65.685,148.868-147.077
	C1193.908,667.261,1193.953,666.956,1193.967,666.618z M299.641,1001.01c-48.588,0-90.034-31.15-105.412-74.534H405.06
	C389.678,969.857,348.226,1001.01,299.641,1001.01z M188.855,889.208l110.785-332.391l110.784,332.391H188.855z M914.559,1150.082
	c10.278,0,18.637,8.358,18.637,18.635v18.635H411.443v-18.635c0-10.276,8.356-18.635,18.635-18.635H914.559z M545.665,1112.815
	c25.811-20.992,71.762-37.267,126.653-37.267c54.882,0,100.856,16.275,126.653,37.267H545.665z M672.318,1038.279
	c-12.767,0-25.22,0.785-37.267,2.256v-2.256l37.267-819.894l37.266,819.894v2.256
	C697.533,1039.064,685.085,1038.279,672.318,1038.279z M1044.996,333.211L1155.783,665.6H934.212L1044.996,333.211z
	 M1044.996,777.404c-48.594,0-90.023-31.154-105.411-74.536h210.839C1135.036,746.25,1093.592,777.404,1044.996,777.404z"/>
</svg>
