<?xml version="1.0" encoding="utf-8"?>
<!-- Generator: Adobe Illustrator 16.0.0, SVG Export Plug-In . SVG Version: 6.00 Build 0)  -->
<!DOCTYPE svg PUBLIC "-//W3C//DTD SVG 1.1//EN" "http://www.w3.org/Graphics/SVG/1.1/DTD/svg11.dtd">
<svg version="1.1" id="Layer_1" xmlns="http://www.w3.org/2000/svg" xmlns:xlink="http://www.w3.org/1999/xlink" x="0px" y="0px"
	 width="2000px" height="2000px" viewBox="0 0 2000 2000" enable-background="new 0 0 2000 2000" xml:space="preserve">
<g>
	<path fill="#38BBA2" d="M960.567,50.953c19.848,0,39.693,0,59.541,0c9.081,0.585,18.157,1.245,27.242,1.744
		c53.607,2.954,106.584,10.487,158.851,22.665c157.376,36.67,296.872,108.382,418.213,215.035
		c104.096,91.494,184.709,200.583,241.789,326.894c48.5,107.325,75.953,219.89,82.736,337.485c0.515,8.918,1.149,17.827,1.73,26.741
		c0,19.848,0,39.695,0,59.541c-0.245,1.883-0.606,3.76-0.716,5.65c-0.695,11.979-1.191,23.965-2.016,35.932
		c-3.645,52.914-11.84,105.145-24.557,156.615c-39.822,161.17-116.117,302.828-228.912,424.586
		c-104.541,112.848-229.205,195.922-373.541,249.213c-88.472,32.666-179.889,51.494-274.067,56.836
		c-8.921,0.506-17.836,1.15-26.754,1.732c-19.847,0-39.693,0-59.541,0c-1.888-0.246-3.771-0.648-5.665-0.711
		c-58.648-2.021-116.646-9.266-173.861-22.289c-198.058-45.08-365.421-143.146-502.329-292.889
		c-78.474-85.828-138.79-183.293-181.621-291.473c-37.669-95.137-59.444-193.807-65.334-295.973
		c-0.523-9.08-1.165-18.152-1.751-27.229c0-19.848,0-39.695,0-59.541c0.254-2.207,0.661-4.406,0.738-6.618
		c1.22-35.04,4.527-69.877,9.609-104.57c10.956-74.807,30.501-147.288,58.881-217.347
		c58.159-143.573,145.89-266.152,262.779-367.671c94.407-81.995,200.989-143.142,319.403-183.48
		c81.721-27.839,165.707-44.199,251.909-49.129C942.411,52.182,951.488,51.538,960.567,50.953z M990.461,173.949
		c-461.962-0.173-837.087,374.836-837.467,837.209c-0.38,461.307,374.859,837.084,836.262,837.463
		c462.642,0.381,838.269-374.705,838.429-837.217C1827.843,549.465,1452.604,174.122,990.461,173.949z"/>
	<path fill="#FFFFFF" d="M1020.108,1971.619c8.918-0.58,17.833-1.225,26.754-1.732c94.178-5.342,185.596-24.168,274.067-56.836
		c144.336-53.291,268.999-136.365,373.542-249.213c112.793-121.758,189.088-263.416,228.911-424.586
		c12.717-51.471,20.913-103.701,24.558-156.615c0.822-11.967,1.32-23.955,2.015-35.932c0.11-1.891,0.471-3.768,0.716-5.65
		c0,310.188,0,620.375,0,930.562C1640.483,1971.619,1330.296,1971.619,1020.108,1971.619z"/>
	<path fill="#FFFFFF" d="M960.567,50.953c-9.08,0.585-18.157,1.229-27.242,1.748c-86.203,4.93-170.189,21.29-251.909,49.129
		c-118.414,40.338-224.997,101.485-319.404,183.48C245.124,386.83,157.394,509.408,99.234,652.982
		c-28.38,70.058-47.927,142.54-58.882,217.347c-5.08,34.692-8.388,69.529-9.609,104.57c-0.077,2.21-0.484,4.412-0.737,6.617
		c0-310.187,0-620.375,0-930.562C340.193,50.953,650.38,50.953,960.567,50.953z"/>
	<path fill="#FFFFFF" d="M30.005,1041.057c0.585,9.076,1.227,18.148,1.751,27.229c5.89,102.166,27.665,200.836,65.333,295.973
		c42.833,108.18,103.149,205.645,181.621,291.473c136.909,149.742,304.273,247.811,502.33,292.889
		c57.215,13.023,115.213,20.27,173.861,22.287c1.896,0.064,3.778,0.467,5.665,0.713c-310.187,0-620.375,0-930.562,0
		C30.005,1661.432,30.005,1351.244,30.005,1041.057z"/>
	<path fill="#FFFFFF" d="M1950.671,981.516c-0.58-8.914-1.217-17.825-1.73-26.742c-6.783-117.595-34.236-230.16-82.736-337.485
		c-57.081-126.31-137.694-235.399-241.789-326.894c-121.342-106.653-260.837-178.364-418.213-215.035
		c-52.268-12.178-105.244-19.709-158.851-22.664c-9.085-0.5-18.161-1.159-27.242-1.745c310.188,0,620.375,0,930.562,0
		C1950.671,361.14,1950.671,671.328,1950.671,981.516z"/>
	<path fill="#FFFFFF" d="M990.461,173.949c462.143,0.173,837.382,375.516,837.224,837.455
		c-0.16,462.512-375.787,837.598-838.429,837.217c-461.403-0.379-836.642-376.156-836.262-837.463
		C153.374,548.786,528.498,173.776,990.461,173.949z M1107.298,1276.068c0-2.926-0.111-5.457,0.018-7.979
		c1.315-25.541,1.989-51.143,4.193-76.607c2.44-28.205,12.043-53.926,31.31-75.305c9.742-10.809,19.177-22.051,29.983-31.717
		c32.314-28.91,65.399-56.957,97.879-85.682c35.75-31.62,70.255-64.53,100.85-101.294c36.582-43.959,60.512-93.556,65.754-151.081
		c4.928-54.077-3.701-106.008-28.11-154.67c-34.651-69.077-87.696-120.698-154.702-158.098
		c-55.172-30.796-115.278-45.916-177.731-52.149c-46.45-4.636-92.961-4.874-139.417,0.669
		c-46.466,5.546-91.419,16.603-134.32,35.642c-100.502,44.604-196.667,143.083-216.447,271.56
		c-1.917,12.452-3.193,25.002-4.767,37.496c1.502,0.459,2.241,0.806,3.01,0.901c34.279,4.254,68.559,8.497,102.842,12.714
		c32.854,4.043,65.724,7.964,98.554,12.191c4.57,0.588,6.349-0.351,7.425-5.021c5.83-25.279,13.64-49.936,24.929-73.367
		c26.206-54.389,66.793-92.722,125.013-110.947c40.34-12.63,81.508-13.671,122.956-6.968c41.793,6.758,78.282,24.151,107.644,55.274
		c31.488,33.377,45.457,73.01,40.582,118.565c-3.572,33.372-17.246,62.722-42.126,85.543c-29.581,27.135-59.788,53.629-90.507,79.47
		c-36.513,30.714-72.767,61.513-105.097,96.848c-47.163,51.549-70.326,112.662-75.992,181.363
		c-2.701,32.76-2.23,65.553-1.247,98.354c0.042,1.381,0.253,2.756,0.4,4.289C969.127,1276.068,1037.747,1276.068,1107.298,1276.068z
		 M1111.004,1373.336c-70.735,0-140.73,0-210.945,0c0,70.33,0,140.34,0,210.947c1.964,0,3.679,0,5.394,0
		c66.562,0,133.126-0.062,199.688,0.131c5.095,0.014,5.974-1.564,5.963-6.217c-0.145-66.404-0.1-132.805-0.1-199.209
		C1111.004,1377.258,1111.004,1375.523,1111.004,1373.336z"/>
	<path fill="#38BBA2" d="M1107.298,1276.068c-69.551,0-138.171,0-207.122,0c-0.147-1.533-0.359-2.908-0.4-4.289
		c-0.984-32.801-1.457-65.594,1.246-98.354c5.665-68.701,28.829-129.814,75.992-181.363c32.329-35.336,68.584-66.133,105.097-96.848
		c30.719-25.841,60.926-52.335,90.506-79.47c24.881-22.822,38.555-52.172,42.127-85.543c4.875-45.555-9.094-85.188-40.582-118.565
		c-29.361-31.123-65.852-48.517-107.644-55.275c-41.447-6.703-82.615-5.663-122.956,6.968
		c-58.22,18.226-98.807,56.558-125.013,110.946c-11.29,23.432-19.1,48.087-24.929,73.367c-1.077,4.668-2.858,5.608-7.426,5.02
		c-32.831-4.227-65.7-8.147-98.555-12.19c-34.282-4.218-68.562-8.461-102.841-12.714c-0.77-0.096-1.508-0.442-3.011-0.901
		c1.573-12.494,2.85-25.043,4.767-37.495C606.333,560.883,702.499,462.404,803.002,417.8c42.9-19.04,87.854-30.096,134.32-35.642
		c46.456-5.543,92.966-5.305,139.417-0.669c62.453,6.233,122.56,21.352,177.731,52.149c67.005,37.399,120.051,89.02,154.702,158.098
		c24.41,48.662,33.038,100.593,28.11,154.67c-5.242,57.524-29.172,107.121-65.755,151.081
		c-30.593,36.764-65.099,69.675-100.849,101.295c-32.48,28.725-65.563,56.771-97.879,85.682
		c-10.806,9.666-20.241,20.906-29.984,31.717c-19.266,21.377-28.868,47.1-31.309,75.303c-2.204,25.467-2.878,51.068-4.193,76.609
		C1107.187,1270.611,1107.298,1273.143,1107.298,1276.068z"/>
	<path fill="#38BBA2" d="M1111.004,1373.336c0,2.188,0,3.922,0,5.652c0,66.404-0.047,132.807,0.1,199.209
		c0.011,4.654-0.868,6.23-5.963,6.217c-66.562-0.193-133.125-0.129-199.688-0.129c-1.715,0-3.43,0-5.394,0
		c0-70.609,0-140.619,0-210.949C970.273,1373.336,1040.269,1373.336,1111.004,1373.336z"/>
</g>
</svg>
