<?xml version="1.0" encoding="utf-8"?>
<!-- Generator: Adobe Illustrator 16.0.0, SVG Export Plug-In . SVG Version: 6.00 Build 0)  -->
<!DOCTYPE svg PUBLIC "-//W3C//DTD SVG 1.1//EN" "http://www.w3.org/Graphics/SVG/1.1/DTD/svg11.dtd">
<svg version="1.1" id="Layer_1" xmlns="http://www.w3.org/2000/svg" xmlns:xlink="http://www.w3.org/1999/xlink" x="0px" y="0px"
	 width="1400px" height="1400px" viewBox="0 0 1400 1400" enable-background="new 0 0 1400 1400" xml:space="preserve">
<g>
	<path fill="#CCCCCC" d="M700.833,51.729c-359.573,0-652.098,292.54-652.098,652.127c0,359.612,292.525,652.183,652.098,652.183
		c359.587,0,652.126-292.567,652.126-652.183C1352.959,344.269,1060.42,51.729,700.833,51.729z M1174.368,1087.96l0.013,0.043
		c-0.684,0.841-1.362,1.685-2.05,2.521l-0.028-0.099c-0.322,0.378-0.713,0.703-1.166,0.96
		c-11.208,12.074-46.713,51.035-48.763,52.999c-2.56,2.45-5.142,4.879-7.744,7.286
		c-108.815,100.656-254.235,162.282-413.811,162.282c-336.351,0.015-610.012-273.69-610.012-610.098
		c0-336.377,273.663-610.056,610.026-610.056c69.321,0,135.921,11.794,198.073,33.194c9.331,3.957,57.882,23.033,66.97,27.435
		c203.999,98.812,345.012,307.962,345.012,549.426c0,145.409-51.167,279.09-136.399,384.017
		C1174.52,1087.822,1174.477,1087.854,1174.368,1087.96z"/>
</g>
<path fill="none" d="M894.195,125.399"/>
<g>
	<g>
		<g>
			<path fill="#CCCCCC" d="M904.842,1022.248l-0.324,8.198v5.937c-0.061,2.511-0.123,5.162-0.123,7.735
				c0.123,9.883-6.459,27.362-17.233,33.759c-1.542,0.833-3.038,1.742-4.193,2.575c-12.007,7.492-24.971,15.291-38.459,21.363
				c-42.99,19.099-93.009,32.785-157.35,42.912c-21.487,3.423-41.818,5.875-62.15,7.554c-19.36,1.681-38.458,2.514-58.544,2.514
				h-6.258c-20.069,0-39.183-0.833-58.544-2.514c-20.27-1.679-40.601-4.131-62.15-7.554
				c-64.417-10.203-114.359-23.813-157.227-42.912c-13.488-6.072-26.528-13.812-38.335-21.241c-1.418-0.971-2.836-1.864-4.254-2.651
				c-10.837-6.396-17.418-23.877-17.295-33.881c0-4.839-0.123-10.004-0.263-13.872l-0.446-8.771
				c-0.586-22.721-1.233-46.15,7.492-65.512c10.266-22.782,31.691-39.892,52.793-55.506c9.943-7.492,21.041-14.906,33.048-22.013
				c2.713,5.812,5.935,12.193,9.942,20.008c1.866,3.607,3.807,7.229,5.812,10.913c-27.684,24.648-38.151,71.893-25.881,119.14
				c0.909,3.744,2.065,7.737,3.422,11.807l1.803,5.61c1.618,5.04,3.3,10.267,5.935,15.616c7.03,14.397,16.001,21.688,26.652,21.688
				c1.942,0,3.931-0.263,6.135-0.771l0.971-0.322c1.942-0.449,3.299-0.832,4.84-1.297c5.672,2.391,12.393,2.713,18.143,0.71
				c8.91-3.037,15.43-10.652,17.11-19.746l0.971-5.672h-0.771c-0.385-13.874-11.746-25.05-25.619-25.05
				c-7.938,0-15.168,3.546-19.947,9.357c-0.647-1.804-1.233-3.745-1.864-5.812c-0.263-0.833-0.586-1.681-0.833-2.512
				c-0.262-0.973-0.585-1.865-0.909-2.774c-15.106-44.656-4.778-89.912,22.52-100.626c29.75-8.139,64.741,22.013,79.708,66.283
				c0.585,1.541,1.157,3.035,1.866,5.163l0.323,1.032c0.324,0.771,0.585,1.541,0.833,2.327c-2.127,0.201-4.333,0.648-6.397,1.358
				c-6.459,2.126-11.685,6.704-14.721,12.84c-3.037,6.133-3.483,13.102-1.295,19.56c3.483,10.451,13.225,17.435,24.2,17.435
				c2.898,0,5.612-0.449,8.263-1.356c6.397-2.189,11.484-6.583,14.521-12.454c6.259-3.101,12.901-9.742,12.901-23.879
				c0-3.605-0.385-7.49-1.232-11.808c-1.157-5.873-2.976-10.913-4.717-15.752l-0.448-1.096c-0.585-1.54-1.033-3.034-1.542-4.718
				c-18.143-53.316-60.408-90.62-102.69-90.62c-2.451,0-4.963,0.201-7.938,0.509c-3.221-5.935-6.073-11.237-8.585-16.263
				c-3.036-5.87-5.935-11.868-8.463-17.294l0.385-0.199c2.898-1.481,5.75-2.976,8.771-4.517l14.721-7.615
				c6.582-3.359,13.164-6.706,20.008-9.942l0.323-0.123c11.484-5.288,21.103-9.033,30.521-11.868c0.586-0.264,1.156-0.45,1.804-0.71
				l0.91,1.481c2.327,3.543,4.639,7.104,7.105,10.588c9.295,13.611,17.11,24.647,24.463,34.65
				c14.644,20.131,29.302,39.047,41.696,54.859c3.483,4.457,7.029,8.849,10.589,13.304c3.545,4.455,7.168,8.972,10.713,13.488
				c0.77,0.971,1.556,1.863,2.327,2.774c0.71,0.833,1.356,1.681,2.065,2.512l6.583,8.387l1.942-10.515
				c4.193-22.134,9.68-52.53,10.266-57.31l0.262-3.747c0-0.445-0.062-0.969-0.123-1.155l-0.524-2.575
				c-0.524-1.155-1.156-2.45-2.065-3.807l-4.64-7.106c-2.451-3.742-4.902-7.489-7.168-11.237c-0.124-0.122-0.124-0.521-0.124-0.707
				l0.71-2.128c1.032-2.974,2.065-6.072,3.298-9.171l1.356-4.069c1.557-4.133,3.036-8.387,4.455-12.518
				c0.262-0.123,0.447-0.261,0.586-0.324c1.541-0.507,10.066-1.233,24.262-1.233c14.783,0,23.692,0.771,25.109,1.233l0.71,0.263
				c0.971,3.099,2.065,6.197,3.16,9.234l3.422,9.557c1.032,3.099,2.126,6.259,3.16,8.847c0.061,0.263-0.062,0.833-0.062,0.971
				c-2.389,3.809-4.841,7.617-7.292,11.362l-4.717,7.291c-0.833,1.154-1.357,2.388-1.804,3.543l-0.386,1.295
				c-0.323,0.973-0.323,1.867-0.323,2.452l0.323,3.868c0.524,4.519,5.75,33.881,9.943,56.017l2.065,11.038l6.583-9.033
				c0.971-1.295,2.004-2.575,3.221-3.932c4.007-5.104,8-10.127,12.008-15.105l11.546-14.458
				c12.779-16.464,26.405-34.021,39.368-52.023c9.033-12.456,17.172-23.941,24.848-35.177c2.575-3.807,5.103-7.676,7.738-11.745
				c0.647,0.261,1.356,0.523,2.128,0.83c9.171,2.776,18.773,6.521,30.213,11.81l0.445,0.261c6.645,3.099,13.304,6.46,19.809,9.805
				l14.967,7.675c7.414,3.809,15.229,7.938,23.168,12.271c-1.803,7.614-3.808,14.844-5.935,21.626
				c-6.32,19.684-14.397,37.95-24.017,54.351c-7.675-3.037-15.938-4.716-24.262-4.716c-35.76,0-64.801,29.103-64.801,64.802
				c0,33.819,26.405,62.15,60.023,64.539c1.542,0.125,3.222,0.125,4.778,0.125c16.001,0,31.307-5.812,42.99-16.324
				c13.874-12.271,21.813-29.891,21.813-48.34c0-13.874-4.518-27.5-12.841-38.722c10.327-16.971,19.098-35.562,26.143-55.446
				c2.512-7.028,4.841-14.72,7.168-23.429c6.642,4.254,13.872,9.171,20.839,14.459c21.104,15.676,42.591,32.91,52.795,55.444
				C906.337,975.525,905.566,999.265,904.842,1022.248z"/>
		</g>
		<g>
			<path fill="#CCCCCC" d="M768.795,1003.595c0,16.587-13.55,30.075-30.137,30.075c-16.586,0-30.073-13.488-30.073-30.075
				c0-16.647,13.487-30.134,30.073-30.134c3.484,0,6.968,0.646,10.267,1.804c6.968,2.573,12.778,7.613,16.323,14.196
				C767.576,993.775,768.795,998.631,768.795,1003.595z"/>
		</g>
	</g>
	<path fill="#CCCCCC" d="M727.637,576.478c0.447-8.37-4.284-19.808-13.271-21.919c-4.531-1.079-8.678,0.817-10.882-4.084
		c-1.25-2.775,0.848-10.158,1.171-13.133c0.833-7.415,1.248-15.337,3.067-22.598c3.377-13.472,5.457-27.298,5.966-41.187
		c1.542-42.775-19.577-77.997-58.682-95.4c-4.455-1.988-8.956-3.807-13.473-5.472c-25.217-9.326-51.391-13.843-78.196-14.058
		c-5.781-0.062-11.607,0.092-17.45,0.447c-18.712,1.11-38.705,2.575-55.846,10.868c-1.695,0.833-3.329,1.742-4.901,2.744
		c-6.335,4.07-11.623,9.558-15.8,15.861c-4.254,6.382-5.672,9.989-11.916,14.999c-5.518,4.424-10.466,7.691-16.601,10.389
		c-5.441,2.42-10.328,6.258-13.272,11.514c-6.059,10.76-8.2,23.831-8.709,36.024c-0.631,15.275,0.047,30.582,1.11,45.827
		c0.385,5.426,1.418,10.821,2.497,16.216c1.664,8.262,3.437,16.523,3.114,24.863c-0.108,2.589-1.172,4.07-2.76,4.994
		c-0.508,0.124-1.033,0.201-1.603,0.277c-2.958,0.339-5.996,0.216-8.894,0.909c-8.986,2.112-13.719,13.565-13.272,21.919
		c0.031,0.524,0.062,1.079,0.093,1.603c-0.247,3.916-0.107,7.877,0.124,11.73c0.477,7.877,2.065,15.661,3.036,23.522
		c2.143,17.418,10.312,34.159,26.959,42.451c3.484,2.775,5.781,5.612,7.045,10.544c10.004,38.874,29.457,70.227,61.026,91.807
		c3.9,2.651,7.969,5.165,12.27,7.539c5.102,2.604,11.962,5.671,20.81,8.679c0.493,0.214,0.986,0.431,1.48,0.632
		c5.396,2.312,10.744,3.944,16.246,4.979c5.087,0.956,10.143,1.356,15.23,1.248c5.086,0.108,10.142-0.292,15.399-1.295
		c5.333-1,10.698-2.637,16.077-4.946c0.494-0.202,0.987-0.418,1.48-0.509c8.863-3.146,15.708-6.197,20.84-8.817
		c4.271-2.358,8.34-4.872,12.24-7.523c16.416-11.145,30.258-25.805,40.678-42.666c5.302-8.586,9.557-17.65,13.302-27.007
		c3.623-9.048,3.592-19.083,9.927-26.914c4.641-5.749,10.744-10.096,16.201-15.09c9.819-9.002,13.333-20.162,14.921-33.11
		c0.971-7.845,2.558-15.63,3.037-23.522c0.23-3.854,0.368-7.83,0.124-11.73C727.577,577.542,727.606,577.002,727.637,576.478z"/>
	<path fill="#CCCCCC" d="M808.948,695.014c-14.628,0-26.543-11.869-26.543-26.436V372.9c0.432-57.572,48.755-93.103,93.271-93.103
		c51.392,0.709,90.392,0.57,133.797,0.385c19.993-0.077,40.71-0.154,63.308-0.154c20.701,0,40.479,6.613,57.203,19.129
		c22.704,17.265,36.162,43.237,37.025,71.354c0.045,1.31,3.729,129.588-10.76,164.749c-5.55,13.426-12.933,26.097-22.014,37.718
		c-20.191,25.85-47.812,44.872-77.811,53.612c-15.614,4.547-29.087,6.504-45.041,6.504l0,0c-5.395,0-10.852-0.216-16.725-0.447
		c-6.228-0.246-12.963-0.524-20.748-0.524c-30.212,0-60.424,0.109-90.543,0.217h-0.51c-15.799,15.583-41.819,41.495-55.306,54.982
		C822.312,692.394,815.824,695.014,808.948,695.014z M876.448,322.495c-24.91,0-51.099,19.331-51.346,50.559v256.435
		c10.729-10.683,21.734-21.597,29.579-29.319l1.374-1.372c5.733-5.718,14.026-9.11,22.196-9.11l4.963-0.016
		c30.166-0.107,60.424-0.215,90.697-0.215c8.402,0,15.709,0.277,22.443,0.555c16.108,0.632,27.854,1.51,48.125-4.394
		c21.148-6.166,41.603-20.332,56.108-38.891c6.688-8.57,12.13-17.911,16.2-27.729c6.905-16.786,9.049-97.049,7.553-147.176
		c-0.478-15.167-7.801-29.241-20.086-38.583c-9.14-6.844-20.067-10.513-31.475-10.513c-22.537,0-43.192,0.077-63.137,0.154
		C965.976,323.051,925.681,323.205,876.448,322.495L876.448,322.495z"/>
</g>
<path fill="#FF0068" d="M1043.671,365.585c-13.375-1.845-27.61,0.833-39.396,7.396c-11.204,6.24-19.383,16.828-25.354,25.712
	c-0.571-0.781-0.471-0.73-1.108-1.576c-3.683-4.922-8.111-10.546-12.983-14.274c-8.745-6.69-19.294-12.079-30.74-13.706
	c-15.633-2.224-33.818-1.891-48.62,7.075l0,0c-14.087,8.536-26.45,23.338-28.92,40.628c-3.409,23.862,9.659,46.668,22.108,64.371
	c12.683,18.037,36.546,37.099,57.472,52.264c20.924,15.166,38.904,26.133,38.904,26.133c2.277,1.395,5.185,1.198,7.254-0.49
	c0,0,48.189-39.208,70.187-62.77c14.472-15.502,34.837-30.866,41.831-54.484c4.919-16.616,5.762-37.484-4.919-53.129
	c-10.39-15.212-29.588-20.952-45.716-23.174L1043.671,365.585L1043.671,365.585z M1041.975,378.111
	c14.373,1.979,30.084,7.631,37.011,17.774c7.366,10.792,7.405,28.382,3.245,42.43c-5.447,18.395-23.451,32.851-38.928,49.429
	c-19.431,20.811-61.145,54.944-65.538,58.554c-3.037-1.875-15.824-9.643-34.257-23.002c-20.486-14.847-43.864-34.108-54.57-49.331
	c-11.818-16.807-22.493-37.28-19.919-55.299c1.736-12.157,11.777-24.848,22.969-31.632c10.86-6.58,26.319-7.39,40.331-5.399
	c8.634,1.225,17.445,5.566,24.862,11.243c2.585,1.978,7.14,7.25,10.55,11.811c3.41,4.557,5.926,8.431,5.926,8.431
	c1.909,2.914,5.813,3.726,8.72,1.812c0.811-0.534,1.488-1.25,1.978-2.088h0.025c4.39-7.531,15.963-23.197,26.02-28.796
	c9.221-5.137,21.105-7.361,31.575-5.918L1041.975,378.111z"/>
</svg>
