<?xml version="1.0" encoding="utf-8"?>
<!-- Generator: Adobe Illustrator 16.0.0, SVG Export Plug-In . SVG Version: 6.00 Build 0)  -->
<!DOCTYPE svg PUBLIC "-//W3C//DTD SVG 1.1//EN" "http://www.w3.org/Graphics/SVG/1.1/DTD/svg11.dtd">
<svg version="1.1" id="Layer_1" xmlns="http://www.w3.org/2000/svg" xmlns:xlink="http://www.w3.org/1999/xlink" x="0px" y="0px"
	 width="1400px" height="1400px" viewBox="0 0 1400 1400" enable-background="new 0 0 1400 1400" xml:space="preserve">
<g>
	<path fill="#CCCCCC" d="M700.833,51.729c-359.573,0-652.098,292.54-652.098,652.127c0,359.612,292.525,652.183,652.098,652.183
		c359.587,0,652.126-292.567,652.126-652.183C1352.959,344.269,1060.42,51.729,700.833,51.729z M1174.368,1087.96l0.013,0.043
		c-0.684,0.841-1.362,1.685-2.05,2.521l-0.028-0.099c-0.322,0.378-0.713,0.703-1.166,0.96
		c-11.208,12.074-46.713,51.035-48.763,52.999c-2.56,2.45-5.142,4.879-7.744,7.286
		c-108.815,100.656-254.235,162.282-413.811,162.282c-336.351,0.015-610.012-273.69-610.012-610.098
		c0-336.377,273.663-610.056,610.026-610.056c69.321,0,135.921,11.794,198.073,33.194c9.331,3.957,57.882,23.033,66.97,27.435
		c203.999,98.812,345.012,307.962,345.012,549.426c0,145.409-51.167,279.09-136.399,384.017
		C1174.52,1087.822,1174.477,1087.854,1174.368,1087.96z"/>
</g>
<path fill="none" d="M894.195,125.399"/>
<path fill="none" d="M582.12,621.667c0,7.64-6.202,13.843-13.856,13.843H268.179c-7.64,0-13.855-6.19-13.855-13.843V321.594
	c0-7.64,6.203-13.855,13.855-13.855h300.1c7.652,0,13.855,6.203,13.855,13.855v300.073H582.12z"/>
<path fill="none" d="M1119.683,1058.898l-187.411-83.298V770.475c-113.291,0-205.125,91.847-205.125,205.126
	c0,113.278,91.834,205.126,205.125,205.126c83.525,0,155.364-49.965,187.337-121.612"/>
<path fill="none" d="M1179.104,1013.12c11.348-25.469,17.687-53.606,17.687-83.273c0-113.291-91.832-205.126-205.111-205.126
	v205.126L1179.104,1013.12z"/>
<g>
	<path fill="#CCCCCC" d="M1079.767,920.506H837.1c-12.381,0-22.287,9.904-22.287,22.285s9.906,22.287,22.287,22.287h242.667
		c12.382,0,22.286-9.906,22.286-22.287C1103.291,930.41,1092.148,920.506,1079.767,920.506z"/>
	<path fill="#CCCCCC" d="M1078.529,977.458H838.338c-12.382,0-22.286,9.905-22.286,22.286s9.904,22.286,22.286,22.286h240.191
		c12.381,0,22.285-9.905,22.285-22.286S1090.91,977.458,1078.529,977.458z"/>
	<path fill="#CCCCCC" d="M1046.338,1034.411h-175.81c-12.382,0-22.286,9.905-22.286,22.286s9.904,22.285,22.286,22.285h177.048
		c12.381,0,22.286-9.904,22.286-22.285C1069.862,1045.554,1058.72,1034.411,1046.338,1034.411z"/>
	<path fill="#CCCCCC" d="M958.433,285.36c-157.238,0-272.381,115.143-272.381,274.858c0,95.334,49.525,158.476,89.142,208
		c22.287,28.477,42.096,53.239,44.572,74.287l8.667,63.143h42.096l-9.905-74.286c-3.714-30.952-24.762-58.19-50.763-90.381
		c-37.143-47.047-78.001-99.048-78.001-179.525c0-136.191,92.859-230.287,227.812-230.287c133.715,0,227.811,94.096,227.811,230.287
		c0,80.477-42.096,132.478-78.001,179.525c-24.762,32.19-47.047,59.429-50.761,90.381l-9.905,74.286h42.096l8.666-63.143
		c2.477-21.048,21.048-45.811,44.572-74.287c39.619-50.762,89.143-112.666,89.143-208
		C1230.815,401.742,1115.672,285.36,958.433,285.36z"/>
	<path fill="#CCCCCC" d="M1030.243,817.744c6.19-30.953,26-65.621,75.523-123.81c59.43-70.573,80.478-221.621-37.143-304.574
		c128.763,154.763,30.952,273.62,6.19,304.574C1040.147,736.029,1027.767,795.457,1030.243,817.744z"/>
	<path fill="#CCCCCC" d="M585.765,438.885v-24.762c0-23.523-18.571-42.095-42.095-42.095h-53.238c-2.476,0-4.953-2.476-4.953-4.952
		v-4.953c0-23.524-18.571-42.095-42.095-42.095h-104c-23.524,0-42.096,18.571-42.096,42.095v4.953c0,2.476-2.476,4.952-4.952,4.952
		h-53.238c-23.524,0-42.096,18.572-42.096,42.095v24.762c0,23.523,18.571,42.096,42.096,42.096h60.667v606.669
		c0,24.762,19.81,44.571,44.571,44.571h92.858c24.762,0,44.571-19.81,44.571-44.571V480.98h60.667
		C565.956,480.98,585.765,462.408,585.765,438.885z M454.526,1096.316c0,4.952-3.714,8.666-8.667,8.666H336.907
		c-4.952,0-8.666-3.714-8.666-8.666v-48.286h55.714c7.428,0,13.619-6.19,13.619-12.381c0-7.429-6.19-12.381-13.619-12.381h-55.714
		v-22.287h55.714c7.428,0,13.619-6.189,13.619-12.381c0-6.19-6.19-12.381-13.619-12.381h-55.714v-21.048h55.714
		c7.428,0,13.619-6.189,13.619-12.381c0-7.429-6.19-12.381-13.619-12.381h-55.714v-21.047h55.714c7.428,0,13.619-6.19,13.619-12.381
		c0-7.429-6.19-12.381-13.619-12.381h-55.714v-21.049h55.714c7.428,0,13.619-6.19,13.619-12.38c0-7.43-6.19-12.382-13.619-12.382
		h-55.714v-23.523h55.714c7.428,0,13.619-6.19,13.619-12.381c0-7.43-6.19-12.382-13.619-12.382h-55.714v-21.047h55.714
		c7.428,0,13.619-6.191,13.619-12.382c0-7.429-6.19-12.381-13.619-12.381h-55.714v-21.048h55.714c7.428,0,13.619-6.19,13.619-12.381
		c0-7.429-6.19-12.381-13.619-12.381h-55.714v-21.048h55.714c7.428,0,13.619-6.19,13.619-12.381c0-6.19-6.19-12.381-13.619-12.381
		h-55.714v-23.524h55.714c7.428,0,13.619-6.19,13.619-12.381c0-7.429-6.19-12.381-13.619-12.381h-55.714v-21.047h55.714
		c7.428,0,13.619-6.19,13.619-12.381c0-7.429-6.19-12.381-13.619-12.381h-55.714v-21.047h55.714c7.428,0,13.619-6.191,13.619-12.381
		s-6.19-12.38-13.619-12.38h-55.714V474.79h126.286V1096.316L454.526,1096.316z M239.097,452.504c-7.429,0-13.62-6.191-13.62-13.619
		v-24.762c0-7.429,6.191-13.619,13.62-13.619h53.238c18.571,0,33.429-14.857,33.429-33.428v-4.953
		c0-7.429,6.19-13.619,13.619-13.619h104c7.429,0,13.62,6.19,13.62,13.619v4.953c0,18.571,14.856,33.428,33.428,33.428h53.238
		c7.429,0,13.619,6.19,13.619,13.619v24.762c0,7.428-6.19,13.619-13.619,13.619H239.097z"/>
	<circle fill="#CCCCCC" cx="391.383" cy="384.408" r="14.857"/>
	<path fill="#0EC7A7" d="M655.099,662.98v-28.476c0-14.857-12.381-26-26-26h-11.143c-14.858,0-26,12.381-26,26v28.476
		l-53.238,90.382c-3.714,4.952-7.429,11.143-7.429,18.572v386.286c0,27.239,22.286,49.524,49.524,49.524h81.715
		c27.238,0,49.523-22.285,49.523-49.524V771.935c0-7.43-3.714-12.382-7.428-17.335L655.099,662.98z M622.908,676.6l52,92.858
		l-7.429,4.952l-14.857-11.144c-2.476-2.476-6.19-2.476-8.666,0l-21.048,12.382l-21.047-12.382c-2.477-1.237-6.19-1.237-8.667,0
		l-14.857,9.905l-7.428-4.953L622.908,676.6z M553.574,764.505L553.574,764.505C553.574,764.505,554.812,763.267,553.574,764.505
		C553.574,763.267,553.574,764.505,553.574,764.505z M678.622,1158.221c0,8.667-6.19,14.857-14.857,14.857h-81.714
		c-8.667,0-14.857-6.19-14.857-14.857v-42.096h111.429V1158.221z M678.622,1100.03H567.193v-22.286h111.429V1100.03z
		 M678.622,1060.411h-22.286V804.124c0-4.952-3.714-8.667-8.667-8.667c-4.953,0-8.667,3.715-8.667,8.667v256.287h-33.429V804.124
		c0-4.952-3.714-8.667-8.667-8.667c-4.952,0-8.667,3.715-8.667,8.667v256.287h-22.286V788.028l6.19,3.715
		c2.476,2.477,6.19,2.477,9.904,0l14.857-9.904l21.048,12.381c2.475,1.237,6.19,1.237,8.666,0l21.048-12.381l14.857,11.143
		c2.476,2.476,6.19,2.476,9.904,0l6.19-3.715V1060.411z M691.003,764.505C691.003,764.505,691.003,763.267,691.003,764.505
		L691.003,764.505C691.003,763.267,691.003,764.505,691.003,764.505L691.003,764.505z"/>
</g>
</svg>
