<?xml version="1.0" encoding="utf-8"?>
<!-- Generator: Adobe Illustrator 16.0.0, SVG Export Plug-In . SVG Version: 6.00 Build 0)  -->
<!DOCTYPE svg PUBLIC "-//W3C//DTD SVG 1.1//EN" "http://www.w3.org/Graphics/SVG/1.1/DTD/svg11.dtd">
<svg version="1.1" id="Layer_1" xmlns="http://www.w3.org/2000/svg" xmlns:xlink="http://www.w3.org/1999/xlink" x="0px" y="0px"
	 width="1400px" height="1400px" viewBox="0 0 1400 1400" enable-background="new 0 0 1400 1400" xml:space="preserve">
<g>
	<path fill="#CCCCCC" d="M700.833,51.729c-359.573,0-652.098,292.54-652.098,652.127c0,359.612,292.525,652.183,652.098,652.183
		c359.587,0,652.126-292.567,652.126-652.183C1352.959,344.269,1060.42,51.729,700.833,51.729z M1174.368,1087.96l0.013,0.043
		c-0.684,0.841-1.362,1.685-2.05,2.521l-0.028-0.099c-0.322,0.378-0.713,0.703-1.166,0.96
		c-11.208,12.074-46.713,51.035-48.763,52.999c-2.56,2.45-5.142,4.879-7.744,7.286
		c-108.815,100.656-254.235,162.282-413.811,162.282c-336.351,0.015-610.012-273.69-610.012-610.098
		c0-336.377,273.663-610.056,610.026-610.056c69.321,0,135.921,11.794,198.073,33.194c9.331,3.957,57.882,23.033,66.97,27.435
		c203.999,98.812,345.012,307.962,345.012,549.426c0,145.409-51.167,279.09-136.399,384.017
		C1174.52,1087.822,1174.477,1087.854,1174.368,1087.96z"/>
</g>
<path fill="none" d="M894.195,125.399"/>
<path fill="none" d="M582.12,621.667c0,7.64-6.202,13.843-13.856,13.843H268.179c-7.64,0-13.855-6.19-13.855-13.843V321.594
	c0-7.64,6.203-13.855,13.855-13.855h300.1c7.652,0,13.855,6.203,13.855,13.855v300.073H582.12z"/>
<path fill="#CCCCCC" d="M575.232,672.099H281.157c-17.705,0-32.11-14.394-32.11-32.099V345.938c0-17.705,14.406-32.111,32.11-32.111
	h294.088c17.705,0,32.11,14.406,32.11,32.111v294.076C607.344,657.705,592.95,672.099,575.232,672.099z M286.111,635.033h284.167
	V350.892H286.111V635.033z"/>
<path fill="#CCCCCC" d="M1095.381,388.413H693.828c-10.229,0-18.532-8.303-18.532-18.532c0-10.242,8.303-18.532,18.532-18.532
	h401.553c10.229,0,18.533,8.29,18.533,18.532C1113.914,380.11,1105.61,388.413,1095.381,388.413z"/>
<path fill="#CCCCCC" d="M1095.381,499.609H693.828c-10.229,0-18.532-8.303-18.532-18.533c0-10.242,8.303-18.533,18.532-18.533
	h401.553c10.229,0,18.533,8.291,18.533,18.533C1113.914,491.306,1105.61,499.609,1095.381,499.609z"/>
<path fill="#CCCCCC" d="M1095.381,610.768H693.828c-10.229,0-18.532-8.303-18.532-18.533c0-10.243,8.303-18.533,18.532-18.533
	h401.553c10.229,0,18.533,8.29,18.533,18.533C1113.914,602.465,1105.61,610.768,1095.381,610.768z"/>
<path fill="none" d="M1119.683,1058.898l-187.411-83.298V770.475c-113.291,0-205.125,91.847-205.125,205.126
	c0,113.278,91.834,205.126,205.125,205.126c83.525,0,155.364-49.965,187.337-121.612"/>
<path fill="#CCCCCC" d="M1123.131,1036.535l-172.663-76.736V770.827c0-10.229-8.301-18.532-18.532-18.532
	c-121.067,0-219.549,98.507-219.549,219.55c0,121.066,98.481,219.551,219.549,219.551c86.511,0,165.224-51.09,200.512-130.162
	c0.171-0.357,0.309-0.729,0.444-1.088C1136.423,1050.99,1132.2,1040.563,1123.131,1036.535z M931.948,1154.315
	c-100.633,0-182.496-81.852-182.496-182.482c0-94.357,72.017-172.218,163.965-181.533v181.533c0,7.339,4.3,13.973,11.007,16.938
	l165.88,73.725C1058.007,1118.82,997.688,1154.315,931.948,1154.315z"/>
<path fill="none" d="M1179.104,1013.12c11.348-25.469,17.687-53.606,17.687-83.273c0-113.291-91.832-205.126-205.111-205.126
	v205.126L1179.104,1013.12z"/>
<path fill="#CCCCCC" d="M990.166,707.459c-10.229,0-18.533,8.302-18.533,18.531v201.017c0,7.315,4.312,13.951,11.008,16.939
	l183.671,81.605c2.447,1.086,5.004,1.619,7.513,1.619c7.091,0,13.873-4.102,16.938-11.008c12.564-28.231,18.929-58.23,18.929-89.167
	C1209.702,805.94,1111.208,707.459,990.166,707.459z M1163.607,983.778l-154.896-68.817V745.45
	c91.932,9.328,163.938,87.202,163.938,181.546C1172.637,946.479,1169.61,965.517,1163.607,983.778z"/>
<path fill="#0EC7A7" d="M655.737,976.146l-88.596-132.893c-4.536-6.806-12.974-9.82-20.794-7.463
	c-7.821,2.36-13.159,9.552-13.159,17.743v47.926h-61.207c-19.088,0-34.631-15.544-34.631-34.632V747.329
	c0-10.229-8.291-18.532-18.533-18.532c-10.229,0-18.533,8.303-18.533,18.532v119.498c0,39.524,32.16,71.696,71.697,71.696h79.739
	c10.231,0,18.533-8.302,18.533-18.531v-5.266l47.79,71.697l-47.79,71.696v-5.015c0-0.05-0.012-0.088-0.012-0.124
	c0-0.026,0-0.049,0-0.075c0-10.23-8.29-18.533-18.533-18.533H418.817c-63.06,0-114.358-51.297-114.358-114.381V747.293
	c0-10.23-8.302-18.533-18.532-18.533c-10.243,0-18.533,8.303-18.533,18.533v172.71c0,83.521,67.928,151.449,151.423,151.449h114.371
	v47.876c0,8.179,5.35,15.37,13.159,17.741c1.779,0.556,3.582,0.791,5.374,0.791c6.08,0,11.91-2.99,15.42-8.253l88.596-132.902
	C659.89,990.478,659.89,982.372,655.737,976.146z"/>
</svg>
