<?xml version="1.0" encoding="utf-8"?>
<!-- Generator: Adobe Illustrator 16.0.0, SVG Export Plug-In . SVG Version: 6.00 Build 0)  -->
<!DOCTYPE svg PUBLIC "-//W3C//DTD SVG 1.1//EN" "http://www.w3.org/Graphics/SVG/1.1/DTD/svg11.dtd">
<svg version="1.1" id="Layer_1" xmlns="http://www.w3.org/2000/svg" xmlns:xlink="http://www.w3.org/1999/xlink" x="0px" y="0px"
	 width="1400px" height="1400px" viewBox="0 0 1400 1400" enable-background="new 0 0 1400 1400" xml:space="preserve">
<g>
	<path fill="#CCCCCC" d="M700.833,51.729c-359.573,0-652.098,292.54-652.098,652.127c0,359.615,292.525,652.183,652.098,652.183
		c359.587,0,652.126-292.567,652.126-652.183C1352.959,344.269,1060.42,51.729,700.833,51.729z M1310.888,703.856
		c0,146.635-52.028,281.348-138.557,386.668l-0.419-186.938h-97.607c-55.703,0-107.143-27.109-139.061-72.027
		c46.391-19.941,143.015-66.628,159.031-115.558c4.29-13.112,2.846-25.789-4.152-36.687
		c-23.574-36.659-118.151-26.547-186.56-13.561v-82.139h-71.03c-11.683,0-20.462-3.52-24.739-9.929
		c-3.954-5.933-4.165-14.515-0.617-24.317c15.188-19.732,105.376-141.712,105.376-257.774c0-51.062,8.652-101.323,25.691-149.705
		C1157.031,234.672,1310.888,451.636,1310.888,703.856z M90.807,703.856c0-336.378,273.663-610.054,610.026-610.054
		c69.321,0,135.921,11.794,198.073,33.194c-18.848,53.165-28.426,108.434-28.426,164.613c0,109.218-97.256,232.923-98.237,234.157
		l-1.837,2.314l-1.123,2.707c-9.928,23.882-8.652,48.032,3.521,66.264c12.144,18.203,33.909,28.65,59.728,28.65h28.959v91.913
		l25.496-5.539c75.884-16.45,156.029-20.966,167.601-10.547c0.224,15.693-62.575,63.698-157.728,100.314l-22.073,8.484
		l11.008,20.938c37.107,70.555,109.33,114.394,188.496,114.394h55.534v191.468c-110.284,109.232-261.883,176.828-429.007,176.828
		C364.47,1313.968,90.807,1040.263,90.807,703.856z"/>
	<path fill="#CCCCCC" d="M698.969,657.83h-20.167V548.528c0-40.698-33.11-73.822-73.809-73.822H288.488
		c-40.697,0-73.821,33.11-73.821,73.822v184.653c0,40.654,33.11,73.737,73.821,73.737h20.125v109.401
		c0,40.641,33.125,73.723,73.836,73.723h141.095l133.549,100.243V990.042h41.889c40.67,0,73.767-33.067,73.767-73.723V731.623
		C772.734,690.926,739.651,657.83,698.969,657.83z M308.599,731.624v33.223h-20.125c-17.501,0-31.75-14.207-31.75-31.666V548.528
		c0-17.502,14.249-31.75,31.75-31.75H604.98c17.502,0,31.736,14.248,31.736,31.75V657.83l-254.282,0.001
		C341.724,657.831,308.599,690.926,308.599,731.624z M730.662,916.305c0,17.446-14.221,31.652-31.693,31.652h-83.961v58.129
		l-77.44-58.129H382.434c-17.515,0-31.764-14.206-31.764-31.652V731.61c0-17.488,14.249-31.723,31.764-31.723h316.535
		c17.473,0,31.693,14.234,31.693,31.723V916.305L730.662,916.305z"/>
</g>
<path fill="#FF0066" d="M546.648,761.465c61.833-67.567,123.32,5.129,105.943,63.98c-16.782,56.829-90.851,88.549-161.133,104.411
	c19.162-2.961-12.582-50.632-39.728-78.506C382.542,780.305,460.026,659.32,546.648,761.465z"/>
</svg>
