<?xml version="1.0" encoding="utf-8"?>
<!-- Generator: Adobe Illustrator 16.0.0, SVG Export Plug-In . SVG Version: 6.00 Build 0)  -->
<!DOCTYPE svg PUBLIC "-//W3C//DTD SVG 1.1//EN" "http://www.w3.org/Graphics/SVG/1.1/DTD/svg11.dtd">
<svg version="1.1" id="Layer_1" xmlns="http://www.w3.org/2000/svg" xmlns:xlink="http://www.w3.org/1999/xlink" x="0px" y="0px"
	 width="1400px" height="1400px" viewBox="0 0 1400 1400" enable-background="new 0 0 1400 1400" xml:space="preserve">
<g>
	<path fill="#CCCCCC" d="M700.833,51.729c-359.573,0-652.098,292.54-652.098,652.127c0,359.612,292.525,652.183,652.098,652.183
		c359.587,0,652.126-292.567,652.126-652.183C1352.959,344.269,1060.42,51.729,700.833,51.729z M1174.368,1087.96l0.013,0.043
		c-0.684,0.841-1.362,1.685-2.05,2.521l-0.028-0.099c-0.322,0.378-0.713,0.703-1.166,0.96
		c-11.208,12.074-46.713,51.035-48.763,52.999c-2.56,2.45-5.142,4.879-7.744,7.286
		c-108.815,100.656-254.235,162.282-413.811,162.282c-336.351,0.015-610.012-273.69-610.012-610.098
		c0-336.377,273.663-610.056,610.026-610.056c69.321,0,135.921,11.794,198.073,33.194c9.331,3.957,57.882,23.033,66.97,27.435
		c203.999,98.812,345.012,307.962,345.012,549.426c0,145.409-51.167,279.09-136.399,384.017
		C1174.52,1087.822,1174.477,1087.854,1174.368,1087.96z"/>
</g>
<path fill="none" d="M894.195,125.399"/>
<path fill="none" d="M582.12,621.667c0,7.64-6.202,13.843-13.856,13.843H268.179c-7.64,0-13.855-6.19-13.855-13.843V321.594
	c0-7.64,6.203-13.855,13.855-13.855h300.1c7.652,0,13.855,6.203,13.855,13.855v300.073H582.12z"/>
<path fill="none" d="M1119.683,1058.898l-187.411-83.298V770.475c-113.291,0-205.125,91.847-205.125,205.126
	c0,113.278,91.834,205.126,205.125,205.126c83.525,0,155.364-49.965,187.337-121.612"/>
<path fill="none" d="M1179.104,1013.12c11.348-25.469,17.687-53.606,17.687-83.273c0-113.291-91.832-205.126-205.111-205.126
	v205.126L1179.104,1013.12z"/>
<g>
	<path fill="#CCCCCC" d="M1109.953,422.957c0-26.819-21.737-48.567-48.587-48.567H333.724c-26.82,0-48.577,21.748-48.577,48.567
		v467.484h824.806V422.957z M1052.854,829.901H342.257V434.962h710.597V829.901z"/>
	<path fill="#CCCCCC" d="M181.464,924.874v53.525c0,16.716,13.555,30.282,30.28,30.282h971.602
		c16.727,0,30.281-13.556,30.281-30.282v-53.525H181.464z M1164.883,978.534h-73.639c-6.487,0-11.766-5.269-11.766-11.777
		c0-6.488,5.278-11.767,11.766-11.767h73.639c6.49,0,11.769,5.278,11.769,11.767
		C1176.641,973.276,1171.373,978.534,1164.883,978.534z"/>
</g>
</svg>
