<?xml version="1.0" encoding="utf-8"?>
<!-- Generator: Adobe Illustrator 16.0.0, SVG Export Plug-In . SVG Version: 6.00 Build 0)  -->
<!DOCTYPE svg PUBLIC "-//W3C//DTD SVG 1.1//EN" "http://www.w3.org/Graphics/SVG/1.1/DTD/svg11.dtd">
<svg version="1.1" id="Layer_1" xmlns="http://www.w3.org/2000/svg" xmlns:xlink="http://www.w3.org/1999/xlink" x="0px" y="0px"
	 width="1400px" height="1400px" viewBox="0 0 1400 1400" enable-background="new 0 0 1400 1400" xml:space="preserve">
<g>
	<path fill="#CCCCCC" d="M700.833,51.729c-359.573,0-652.098,292.54-652.098,652.127c0,359.612,292.525,652.183,652.098,652.183
		c359.587,0,652.126-292.567,652.126-652.183C1352.959,344.269,1060.42,51.729,700.833,51.729z M1174.368,1087.96l0.013,0.043
		c-0.684,0.841-1.362,1.685-2.05,2.521l-0.028-0.099c-0.322,0.378-0.713,0.703-1.166,0.96
		c-11.208,12.074-46.713,51.035-48.763,52.999c-2.56,2.45-5.142,4.879-7.744,7.286
		c-108.815,100.656-254.235,162.282-413.811,162.282c-336.351,0.015-610.012-273.69-610.012-610.098
		c0-336.377,273.663-610.056,610.026-610.056c69.321,0,135.921,11.794,198.073,33.194c9.331,3.957,57.882,23.033,66.97,27.435
		c203.999,98.812,345.012,307.962,345.012,549.426c0,145.409-51.167,279.09-136.399,384.017
		C1174.52,1087.822,1174.477,1087.854,1174.368,1087.96z"/>
</g>
<path fill="none" d="M894.195,125.399"/>
<g>
	<path fill="#CCCCCC" d="M1126.893,287.08c-8.052-2.072-16.369,1.629-20.301,8.897l-230.411,425.37l-96.62,16.095l-90.234-15.03
		V412.85c0-6.838-3.862-13.083-9.983-16.149l-108.279-54.142c-3.948-1.987-8.389-1.952-12.598-0.853l-0.12-0.45l-270.702,72.187
		c-7.909,2.114-13.337,9.278-13.359,17.434h-0.036v104.587c-36.474-22.544-85.003-18.23-116.634,13.374
		c-17.885,17.884-27.74,41.669-27.74,66.95c0,25.286,9.855,49.072,27.74,66.935l116.634,116.6v72.3
		c-27.973-12.942-62.621-8.685-85.849,13.408c-14.474,13.769-22.433,32.162-22.433,51.76c0,19.599,7.958,37.999,22.433,51.786
		l91.447,87.02c3.495,3.328,7.974,4.993,12.449,4.993c4.478,0,8.953-1.666,12.436-4.993l91.441-87.049
		c14.494-13.759,22.452-32.158,22.452-51.758c0-19.597-7.958-37.969-22.432-51.76l0,0c-23.241-22.106-57.876-26.383-85.85-13.429
		v-72.293l116.633-116.598c17.886-17.874,27.742-41.636,27.742-66.922c0-25.279-9.855-49.05-27.742-66.914
		c-31.583-31.604-80.124-35.932-116.635-13.375v-81.901l207.11,47.789l-44.375,232.931c-0.333,1.644-0.382,3.342-0.255,4.998
		l36.093,397.032c0.869,9.293,8.643,16.425,17.99,16.425h89.692l1.101,4.386c0.888,3.566,2.854,6.768,5.633,9.206l144.376,126.327
		c3.368,2.963,7.61,4.456,11.855,4.456s8.487-1.493,11.87-4.482l144.375-126.33c2.765-2.412,4.753-5.626,5.64-9.192l53.294-213.15
		l142.317-195.69c2.227-3.081,3.44-6.804,3.44-10.61V304.57C1140.499,296.309,1134.887,289.103,1126.893,287.08z M681.981,757.778
		l79.531,13.247v147.141h-152.44L681.981,757.778z M797.607,771.025l79.535-13.247l72.903,160.387H797.607V771.025z
		 M367.083,429.635l172.812-46.089l-15.677,82.345L367.083,429.635z M543.379,1116.68l-34.36-378.104l67.261-353.063l76.953,38.491
		v309.793l-88.613,194.94c-1.712,3.76-1.933,7.905-0.951,11.823l-0.114,0.034l44.018,176.089L543.379,1116.68L543.379,1116.68z
		 M907.776,1142.919l-128.215,112.2l-128.217-112.215l-47.199-188.646h350.837L907.776,1142.919z M1104.404,731.83L981.684,900.567
		l-73.71-162.168l196.43-362.615L1104.404,731.83L1104.404,731.83z"/>
	<path fill="#0EC7A7" d="M382.529,936.769c0,9.635-3.987,18.728-11.226,25.638l-79.011,75.203l-79.011-75.204
		c-7.233-6.88-11.219-16.002-11.219-25.615c0-9.621,4.001-18.729,11.219-25.609c7.789-7.394,18.003-11.103,28.196-11.103
		c10.213,0,20.428,3.709,28.188,11.103l10.163,9.671c6.984,6.625,17.902,6.625,24.885,0l10.162-9.671
		c15.548-14.818,40.835-14.818,56.429-0.018C378.528,918.061,382.529,927.153,382.529,936.769z"/>
	<path fill="#FF0068" d="M418.623,615.789c0,15.645-6.097,30.351-17.168,41.414L292.292,766.317L183.135,657.19
		c-11.072-11.057-17.167-25.771-17.167-41.401c0-15.628,6.095-30.335,17.167-41.4c11.417-11.402,26.415-17.13,41.416-17.13
		c15.014,0,30.005,5.708,41.436,17.13l13.548,13.535c7.056,7.042,18.465,7.042,25.521,0l13.548-13.557
		c22.831-22.81,59.99-22.847,82.851,0C412.526,585.432,418.623,600.146,418.623,615.789z"/>
</g>
</svg>
