<?xml version="1.0" encoding="utf-8"?>
<!-- Generator: Adobe Illustrator 16.0.0, SVG Export Plug-In . SVG Version: 6.00 Build 0)  -->
<!DOCTYPE svg PUBLIC "-//W3C//DTD SVG 1.1//EN" "http://www.w3.org/Graphics/SVG/1.1/DTD/svg11.dtd">
<svg version="1.1" id="Layer_1" xmlns="http://www.w3.org/2000/svg" xmlns:xlink="http://www.w3.org/1999/xlink" x="0px" y="0px"
	 width="1400px" height="1400px" viewBox="0 0 1400 1400" enable-background="new 0 0 1400 1400" xml:space="preserve">
<g>
	<path fill="none" d="M-662.646,836.326c16.437,0,32.872,0.003,49.308-0.017c0.487,0,0.583,0.099,0.583,0.583
		c-0.015,29.077-0.015,58.154,0,87.231c0,0.486-0.096,0.582-0.583,0.582c-32.871-0.016-65.741-0.016-98.613,0
		c-0.487,0-0.583-0.096-0.583-0.583c0.015-29.077,0.015-58.153,0-87.23c0-0.484,0.096-0.583,0.583-0.583
		C-695.517,836.329-679.082,836.326-662.646,836.326z M-662.693,837.558c-23.475-0.141-42.713,19.19-42.791,42.589
		c-0.078,23.555,19.212,42.89,42.706,42.918c23.519,0.029,42.807-19.245,42.827-42.726
		C-619.93,856.799-639.24,837.441-662.693,837.558z"/>
	<path fill="none" d="M-690.575,858.693c-0.032-0.394,0.207-0.711,0.472-1.023c3.688-4.374,8.131-7.773,13.277-10.259
		c0.914-0.441,1.701-0.24,2.089,0.505c0.394,0.762,0.068,1.556-0.878,2.008c-4.467,2.125-8.321,5.06-11.644,8.712
		c-0.35,0.386-0.668,0.806-1.048,1.156c-0.408,0.377-0.902,0.503-1.444,0.25C-690.268,859.798-690.58,859.315-690.575,858.693z"/>
	<path fill="none" d="M-672.923,846.614c0.02-0.522,0.401-0.946,1.056-1.161c2.232-0.733,4.522-1.229,6.854-1.538
		c1.646-0.22,3.297-0.339,4.959-0.312c1.025,0.019,1.672,0.523,1.688,1.335c0.014,0.834-0.668,1.44-1.694,1.438
		c-3.703-0.009-7.308,0.598-10.839,1.687C-672.028,848.408-672.924,847.831-672.923,846.614z"/>
	<path fill="none" d="M-699.41,881.816c0.073-2.495,0.408-5.049,0.994-7.566c0.146-0.634,0.479-1.081,1.158-1.175
		c1.021-0.146,1.801,0.63,1.579,1.634c-0.604,2.761-0.979,5.542-0.968,8.373c0.004,0.925-0.631,1.562-1.418,1.562
		c-0.79-0.003-1.33-0.642-1.347-1.6C-699.416,882.664-699.41,882.285-699.41,881.816z"/>
	<path fill="none" d="M-693.645,866.917c-1.032,0.01-1.708-0.818-1.423-1.722c0.229-0.727,0.629-1.389,1.087-1.989
		c0.42-0.553,1.141-0.644,1.729-0.295c0.581,0.341,0.866,1.021,0.597,1.647c-0.271,0.627-0.616,1.229-0.974,1.813
		C-692.864,866.766-693.267,866.925-693.645,866.917z"/>
</g>
<g>
	<path fill="#CCCCCC" d="M1270.799,114.309c-9.316-2.398-18.941,1.885-23.491,10.295L980.689,616.819l-111.804,18.624
		l-104.414-17.392V259.844c0-7.913-4.469-15.14-11.552-18.688l-125.295-62.649c-4.569-2.299-9.707-2.259-14.578-0.987l-0.139-0.521
		l-313.242,83.531c-9.152,2.447-15.433,10.736-15.458,20.173h-0.042v121.023c-42.206-26.088-98.361-21.096-134.963,15.474
		c-20.695,20.695-32.099,48.218-32.099,77.471c0,29.26,11.404,56.784,32.099,77.454l134.963,134.923v83.661
		c-32.368-14.977-72.461-10.05-99.34,15.515c-16.748,15.933-25.958,37.216-25.958,59.893c0,22.679,9.21,43.97,25.958,59.924
		l105.817,100.695c4.045,3.851,9.227,5.777,14.405,5.777c5.181,0,10.361-1.927,14.391-5.777l105.81-100.728
		c16.771-15.922,25.981-37.213,25.981-59.892c0-22.677-9.21-43.935-25.957-59.893l0,0c-26.894-25.581-66.971-30.53-99.341-15.538
		V707.03l134.961-134.921c20.696-20.681,32.1-48.178,32.1-77.438c0-29.252-11.404-56.758-32.1-77.429
		c-36.546-36.569-92.715-41.578-134.964-15.475v-94.772l239.656,55.299l-51.35,269.535c-0.384,1.901-0.441,3.867-0.294,5.784
		l41.765,459.422c1.005,10.754,10.001,19.007,20.817,19.007h103.787l1.272,5.074c1.028,4.127,3.304,7.831,6.519,10.653
		l167.064,146.179c3.898,3.428,8.808,5.157,13.719,5.157c4.912,0,9.821-1.729,13.736-5.188l167.063-146.181
		c3.199-2.79,5.5-6.511,6.525-10.638l61.669-246.646l164.682-226.441c2.577-3.566,3.981-7.872,3.981-12.276V134.547
		C1286.543,124.987,1280.05,116.649,1270.799,114.309z M755.972,658.975l92.029,15.329v170.262H671.606L755.972,658.975z
		 M889.768,674.304l92.034-15.329l84.36,185.59H889.768V674.304z M391.589,279.266l199.969-53.332l-18.141,95.286L391.589,279.266z
		 M595.589,1074.277L555.83,636.756l77.83-408.546l89.045,44.54v358.476L620.167,856.8c-1.981,4.35-2.236,9.146-1.1,13.681
		l-0.132,0.04l50.935,203.758L595.589,1074.277L595.589,1074.277z M1017.25,1104.638l-148.364,129.833l-148.365-129.85
		L665.905,886.33h405.97L1017.25,1104.638z M1244.776,628.949l-142.005,195.254l-85.293-187.651l227.297-419.599L1244.776,628.949
		L1244.776,628.949z"/>
	<path fill="#0EC7A7" d="M409.462,866.092c0,11.149-4.613,21.671-12.99,29.667l-91.428,87.02l-91.428-87.02
		c-8.369-7.962-12.981-18.518-12.981-29.642c0-11.133,4.629-21.673,12.981-29.634c9.013-8.554,20.833-12.846,32.627-12.846
		c11.819,0,23.639,4.293,32.618,12.846l11.76,11.192c8.081,7.665,20.714,7.665,28.795,0l11.759-11.192
		c17.992-17.146,47.253-17.146,65.296-0.019C404.833,844.445,409.462,854.967,409.462,866.092z"/>
	<path fill="#FF0068" d="M451.229,494.674c0,18.103-7.055,35.119-19.867,47.922L305.044,668.855L178.734,542.58
		c-12.812-12.794-19.866-29.82-19.866-47.906c0-18.085,7.054-35.103,19.866-47.906c13.21-13.194,30.566-19.823,47.923-19.823
		c17.374,0,34.721,6.605,47.948,19.823l15.677,15.661c8.165,8.148,21.367,8.148,29.532,0l15.678-15.687
		c26.419-26.394,69.417-26.437,95.87,0C444.174,459.546,451.229,476.571,451.229,494.674z"/>
</g>
</svg>
